<svg xmlns="http://www.w3.org/2000/svg" xmlns:xlink="http://www.w3.org/1999/xlink" viewBox="104.23 906.16 3030.44 378.1">
<defs>
    <style>
      .cls-1 {
        fill: currentColor;
      }
    </style>
  </defs>
<g>
    <g>
      <g>
        <g>
          <path class="cls-1" d="M303.81,1077.65c13.56,12.64,36.17,18.17,53.61,16.42,15.04-.19,27.98-4.84,41.93-9.03,8.85-2.66,14.74-10.51,10.76-19.58-4.83-15.66-31.73-21.3-36.98-2.41-5.77,16.91,18.81,27.69,13.43,7.62-1.07-3.98,8.12-2.73,12.17.46,1.65,1.31,2.09,5.75.8,7.28-15.24,18.17-48.85,2.69-69.17-6.36,36.73,2.36,44.68-9.82,6.75-17.36,1.84-2.71,3.08-6.23,4.07-9.02-3.8,4.72-9.65,1.58-13.62,5.09-.61.58-1.07,1.3-1.37,2.07-4.42-.61-9.05-1.09-13.79-1.4,5.64-3.51,9.98-11.08,8.52-18.38,7.07,3.74,10.75-8.91,2.84-9.81,2.05-3.24-1.32-8.23-5.2-7.32-1.19-7.4-11.86-3.95-9.71,2.62-15.78-3.63-10.17,9.11-6.14,17.49,1.96,5.72-4.99,11.76-9.11,15-3.75.02-7.23.05-10.52.1,3.86-4.55,3.66-15.36.09-20.84,2.21,11.23-11.44,11.64-11.63,21.2-14.92-1.07-44.18,15.2-30.44,32.53-.45-1.07-.7-1.7-.88-2.66-.1-.55-.16-1.12-.18-1.68-.03-1.13.18-2.35,1.37-3.51,1.82-1.78,4.59-2.28,6.95-1.28,3.66,1.54,7.01,5.5,11.27,5.7,16.59,3.9,12.63-18.46-.64-20.22,10.55.66,33.2,1.44,34.9,15.58-.2,2.06-2.84,4.36-4.37,2.27,2.31-3.63-2.05-9.68-7.01-7.36-15.83,13.17,17.88,29.9,21.3,6.8Z"/>
          <path class="cls-1" d="M450.8,1026.07c-.18.08-.35.17-.52.27.17-.09.35-.18.52-.27Z"/>
          <path class="cls-1" d="M415.18,1066.52c5.94,6.91,12.54,4.4,16.03-2.81,2.18,1.15,4.01-.2,1.32-2.16.22-.37.44-.76.66-1.14,2.91,2,3.81-.36,1.09-1.94.07-.13.15-.28.22-.42.83.01,5.99,4.62,4.23.67,3.52.34,1.12-3.5-1.74-3.57-.83-.08-.57-.71.42-.57,1,.14,1.35-.14,4.03,1.87,1.82,1.39,3.06.66,2.22-.76,4.14,3.26,5.17-1.71,1.41-2.99,1.81-1.84-1.39-4.01-4.18-2.68-2.19.03.82-2.18,4.14-1.17,2.85.39,2.74-1.94,1.01-2.84,3.57-1.59-2.15-5.65-4.13-2.29,0-1.48.62-2.88,2.8-3.88,2.21-.99,1.75-2.71.04-2.48.95-.27.71-1.72-.35-1.88,1.5-3.71,3.41-7.7,5.87-9.14-14.4,7.51-18.85,34.03-35.1,40.18Z"/>
          <path class="cls-1" d="M233.52,1000.41c1.98,8.08-7.76,2.67-10.91,1.88,21.03,29.36-15.42,31.62.88,57.47.5.79,1.1,1.52,1.7,2.24,3.24,3.86,2.4,16.96,8.51,9.13,5.1-8.18,1.82-17.06,10.55-21.24,4.02-1.93,7.71-4.5,10.73-7.78,41.69-45.21-46.29-92.27-6.39-118.08-28.95-11.87-26.62,17.95-26.62,17.95-19.54,10.59-5.86,29.13-5.86,29.13-23.18,14.87,11.42,15.63,17.41,29.3Z"/>
          <path class="cls-1" d="M454.45,1060.66c1.95,6.41,11.73,3.73,9.78-2.7-.42-1.38.16-2.26,1.05-2.59,1.24-.46,2.59.39,2.87,1.68,7.02,31.79-62.35,3.46-64.25,34.25,7.42-19.31,28.92-3.19,42.88-.69,21,6.52,53.01,3.29,35.94-9.92,21.28-2.33,25.05-32.9,4.64-27.29-1.17.32-2.21,1.06-2.82,2.11-2.33,4.01,2.04,10.2,6.82,7.27-3.07,5.44-9.18,8.09-15.27,8.78,4.45-6.04,5.3-14.41,1-20.77-7.76-11.55-27.01-4.47-22.65,9.87Z"/>
          <path class="cls-1" d="M165.34,1030.03s.02.02.04.03c1.91,1.62,3.14,3.91,3.47,6.38,4.33,31.62,56.21,11.38,54.3,46.95,7.28-31.75-29.81-30-35.62-49.57-.45-1.5-.16-3.16.92-4.31,2.99-3.18,9.13-.02,12.93-.08,8.87-10.66-13.47-22.92-22.91-14.46-.93-2.86-1.62-5.86-1.15-8.74.51-3.18,5.72-8.73,6.56-3.02.98,6.65,10.75,3.88,9.78-2.7-1.91-12.9-19.35-12.75-24.29-2.26-10.3-6.27-19.24,6.06-8.66,8.47.75.17,1.53.27,2.3.3,6.28.27,4.36,9.16,6.71,13.47-16.86-15.23-34.32,17.79-10.11,17.88,6.42-1.22,3.75-11.3-2.62-10.09,3.51-.66,5.1-.99,8.36,1.75Z"/>
          <path class="cls-1" d="M201.52,1092.06c.88.22,1.84.03,2.5-.58,1.94-1.78-.89-3.75-.14-7.46,1.76-8.68,18.27-1.84,19.11-.41-.03-.57-.1-.92-.25-1.33-13.43-39.26-57.73-1.25-78.11-13.11-1.98-1.4,2.07-5.62,3.74-7.57-.08-10.37-17.64-4-18.44,4.68-.43-1.22-.54-5.02.05-6.91.59-1.88,4.61-4.09,1.24-5.9-11.5-6.28-12.33,12.61-3.24,15.98-12.83-1.52-17.75,20.02-3.07,19.92,4.6-.23,6.84-6.04,3.15-9.27h.11c2.15,0,4.17,1.01,5.5,2.7,25.6,32.55,66.62-39.05,88.74-.89-18.71-27.88-43.31,4.66-20.89,10.16Z"/>
        </g>
        <g>
          <path class="cls-1" d="M303.81,1112.77c13.56-12.64,36.17-18.17,53.61-16.42,15.04.19,27.98,4.84,41.93,9.03,8.85,2.66,14.74,10.51,10.76,19.58-4.83,15.66-31.73,21.3-36.98,2.41-5.77-16.91,18.81-27.69,13.43-7.62-1.07,3.98,8.12,2.73,12.17-.46,1.65-1.31,2.09-5.75.8-7.28-15.24-18.17-48.85-2.69-69.17,6.36,36.73-2.36,44.68,9.82,6.75,17.36,1.84,2.71,3.08,6.23,4.07,9.02-3.8-4.72-9.65-1.58-13.62-5.09-.61-.58-1.07-1.3-1.37-2.07-4.42.61-9.05,1.09-13.79,1.4,5.64,3.51,9.98,11.08,8.52,18.38,7.07-3.74,10.75,8.91,2.84,9.81,2.05,3.24-1.32,8.23-5.2,7.32-1.19,7.4-11.86,3.95-9.71-2.62-15.78,3.63-10.17-9.11-6.14-17.49,1.96-5.72-4.99-11.76-9.11-15-3.75-.02-7.23-.05-10.52-.1,3.86,4.55,3.66,15.36.09,20.84,2.21-11.23-11.44-11.64-11.63-21.2-14.92,1.07-44.18-15.2-30.44-32.53-.45,1.07-.7,1.7-.88,2.66-.1.55-.16,1.12-.18,1.68-.03,1.13.18,2.35,1.37,3.51,1.82,1.78,4.59,2.28,6.95,1.28,3.66-1.54,7.01-5.5,11.27-5.7,16.59-3.9,12.63,18.46-.64,20.22,10.55-.66,33.2-1.44,34.9-15.58-.2-2.06-2.84-4.36-4.37-2.27,2.31,3.63-2.05,9.68-7.01,7.36-15.83-13.17,17.88-29.9,21.3-6.8Z"/>
          <path class="cls-1" d="M415.18,1123.9c5.94-6.91,12.54-4.4,16.03,2.81,2.18-1.15,4.01.2,1.32,2.16.22.37.44.76.66,1.14,2.91-2,3.81.36,1.09,1.94.07.13.15.28.22.42.83-.01,5.99-4.62,4.23-.67,3.52-.34,1.12,3.5-1.74,3.57-.83.08-.57.71.42.57,1-.14,1.35.14,4.03-1.87,1.82-1.39,3.06-.66,2.22.76,4.14-3.26,5.17,1.71,1.41,2.99,1.81,1.84-1.39,4.01-4.18,2.68-2.19-.03.82,2.18,4.14,1.17,2.85-.39,2.74,1.94,1.01,2.84,3.57,1.59-2.15,5.65-4.13,2.29,0,1.48.62,2.88,2.8,3.88,2.21.99,1.75,2.71.04,2.48.95.27.71,1.72-.35,1.88,1.5,3.71,3.41,7.7,5.87,9.14-14.4-7.51-18.85-34.03-35.1-40.18Z"/>
          <path class="cls-1" d="M233.52,1190.01c1.98-8.08-7.76-2.67-10.91-1.88,21.03-29.36-15.42-31.62.88-57.47.5-.79,1.1-1.52,1.7-2.24,3.24-3.86,2.4-16.96,8.51-9.13,5.1,8.18,1.82,17.06,10.55,21.24,4.02,1.93,7.71,4.5,10.73,7.78,41.69,45.21-46.29,92.27-6.39,118.08-28.95,11.87-26.62-17.95-26.62-17.95-19.54-10.59-5.86-29.13-5.86-29.13-23.18-14.87,11.42-15.63,17.41-29.3Z"/>
          <path class="cls-1" d="M454.45,1129.76c1.95-6.41,11.73-3.73,9.78,2.7-.42,1.38.16,2.26,1.05,2.59,1.24.46,2.59-.39,2.87-1.68,7.02-31.79-62.35-3.46-64.25-34.25,7.42,19.31,28.92,3.19,42.88.69,21-6.52,53.01-3.29,35.94,9.92,21.28,2.33,25.05,32.9,4.64,27.29-1.17-.32-2.21-1.06-2.82-2.11-2.33-4.01,2.04-10.2,6.82-7.27-3.07-5.44-9.18-8.09-15.27-8.78,4.45,6.04,5.3,14.41,1,20.77-7.76,11.55-27.01,4.47-22.65-9.87Z"/>
          <path class="cls-1" d="M165.34,1160.38s.02-.02.04-.03c1.91-1.62,3.14-3.91,3.47-6.38,4.33-31.62,56.21-11.38,54.3-46.95,7.28,31.75-29.81,30-35.62,49.57-.45,1.5-.16,3.16.92,4.31,2.99,3.18,9.13.02,12.93.08,8.87,10.66-13.47,22.92-22.91,14.46-.93,2.86-1.62,5.86-1.15,8.74.51,3.18,5.72,8.73,6.56,3.02.98-6.65,10.75-3.88,9.78,2.7-1.91,12.9-19.35,12.75-24.29,2.26-10.3,6.27-19.24-6.06-8.66-8.47.75-.17,1.53-.27,2.3-.3,6.28-.27,4.36-9.16,6.71-13.47-16.86,15.23-34.32-17.79-10.11-17.88,6.42,1.22,3.75,11.3-2.62,10.09,3.51.66,5.1.99,8.36-1.75Z"/>
          <path class="cls-1" d="M201.52,1098.36c.88-.22,1.84-.03,2.5.58,1.94,1.78-.89,3.75-.14,7.46,1.76,8.68,18.27,1.84,19.11.41-.03.57-.1.92-.25,1.33-13.43,39.26-57.73,1.25-78.11,13.11-1.98,1.4,2.07,5.62,3.74,7.57-.08,10.37-17.64,4-18.44-4.68-.43,1.22-.54,5.02.05,6.91.59,1.88,4.61,4.09,1.24,5.9-11.5,6.28-12.33-12.61-3.24-15.98-12.83,1.52-17.75-20.02-3.07-19.92,4.6.23,6.84,6.04,3.15,9.27h.11c2.15,0,4.17-1.01,5.5-2.7,25.6-32.55,66.62,39.05,88.74.89-18.71,27.88-43.31-4.66-20.89-10.16Z"/>
        </g>
      </g>
      <g>
        <g>
          <path class="cls-1" d="M687.69,1077.65c-13.56,12.64-36.17,18.17-53.61,16.42-15.04-.19-27.98-4.84-41.93-9.03-8.85-2.66-14.74-10.51-10.76-19.58,4.83-15.66,31.73-21.3,36.98-2.41,5.77,16.91-18.81,27.69-13.43,7.62,1.07-3.98-8.12-2.73-12.17.46-1.65,1.31-2.09,5.75-.8,7.28,15.24,18.17,48.85,2.69,69.17-6.36-36.73,2.36-44.68-9.82-6.75-17.36-1.84-2.71-3.08-6.23-4.07-9.02,3.8,4.72,9.65,1.58,13.62,5.09.61.58,1.07,1.3,1.37,2.07,4.42-.61,9.05-1.09,13.79-1.4-5.64-3.51-9.98-11.08-8.52-18.38-7.07,3.74-10.75-8.91-2.84-9.81-2.05-3.24,1.32-8.23,5.2-7.32,1.19-7.4,11.86-3.95,9.71,2.62,15.78-3.63,10.17,9.11,6.14,17.49-1.96,5.72,4.99,11.76,9.11,15,3.75.02,7.23.05,10.52.1-3.86-4.55-3.66-15.36-.09-20.84-2.21,11.23,11.44,11.64,11.63,21.2,14.92-1.07,44.18,15.2,30.44,32.53.45-1.07.7-1.7.88-2.66.11-.55.16-1.12.18-1.68.03-1.13-.18-2.35-1.37-3.51-1.82-1.78-4.59-2.28-6.95-1.28-3.66,1.54-7.01,5.5-11.27,5.7-16.59,3.9-12.63-18.46.64-20.22-10.55.66-33.2,1.44-34.9,15.58.2,2.06,2.83,4.36,4.37,2.27-2.31-3.63,2.05-9.68,7.01-7.36,15.83,13.17-17.88,29.9-21.3,6.8Z"/>
          <path class="cls-1" d="M540.7,1026.07c.18.08.35.17.53.27-.17-.09-.35-.18-.53-.27Z"/>
          <path class="cls-1" d="M576.33,1066.52c-5.94,6.91-12.54,4.4-16.03-2.81-2.18,1.15-4.01-.2-1.32-2.16-.22-.37-.44-.76-.66-1.14-2.91,2-3.81-.36-1.09-1.94-.07-.13-.15-.28-.22-.42-.83.01-5.99,4.62-4.23.67-3.52.34-1.12-3.5,1.74-3.57.83-.08.57-.71-.42-.57-1,.14-1.35-.14-4.03,1.87-1.82,1.39-3.06.66-2.22-.76-4.14,3.26-5.17-1.71-1.41-2.99-1.8-1.84,1.39-4.01,4.18-2.68,2.19.03-.82-2.18-4.14-1.17-2.85.39-2.74-1.94-1.01-2.84-3.57-1.59,2.15-5.65,4.13-2.29,0-1.48-.62-2.88-2.8-3.88-2.21-.99-1.75-2.71-.04-2.48-.95-.27-.71-1.72.35-1.88-1.5-3.71-3.41-7.7-5.87-9.14,14.4,7.51,18.85,34.03,35.1,40.18Z"/>
          <path class="cls-1" d="M757.98,1000.41c-1.98,8.08,7.76,2.67,10.91,1.88-21.03,29.36,15.42,31.62-.88,57.47-.5.79-1.1,1.52-1.7,2.24-3.24,3.86-2.4,16.96-8.51,9.13-5.11-8.18-1.82-17.06-10.55-21.24-4.02-1.93-7.71-4.5-10.73-7.78-41.69-45.21,46.29-92.27,6.39-118.08,28.95-11.87,26.62,17.95,26.62,17.95,19.54,10.59,5.86,29.13,5.86,29.13,23.18,14.87-11.42,15.63-17.41,29.3Z"/>
          <path class="cls-1" d="M537.06,1060.66c-1.95,6.41-11.73,3.73-9.78-2.7.42-1.38-.16-2.26-1.05-2.59-1.24-.46-2.59.39-2.87,1.68-7.02,31.79,62.35,3.46,64.25,34.25-7.42-19.31-28.92-3.19-42.88-.69-21,6.52-53.01,3.29-35.94-9.92-21.28-2.33-25.05-32.9-4.64-27.29,1.17.32,2.21,1.06,2.82,2.11,2.33,4.01-2.04,10.2-6.82,7.27,3.07,5.44,9.18,8.09,15.27,8.78-4.45-6.04-5.3-14.41-1-20.77,7.76-11.55,27.01-4.47,22.65,9.87Z"/>
          <path class="cls-1" d="M826.17,1030.03s-.02.02-.04.03c-1.91,1.62-3.14,3.91-3.47,6.38-4.33,31.62-56.21,11.38-54.3,46.95-7.28-31.75,29.81-30,35.62-49.57.45-1.5.16-3.16-.92-4.31-2.99-3.18-9.13-.02-12.93-.08-8.87-10.66,13.47-22.92,22.91-14.46.93-2.86,1.62-5.86,1.15-8.74-.51-3.18-5.72-8.73-6.56-3.02-.98,6.65-10.75,3.88-9.78-2.7,1.91-12.9,19.35-12.75,24.3-2.26,10.3-6.27,19.24,6.06,8.66,8.47-.75.17-1.53.27-2.3.3-6.28.27-4.36,9.16-6.71,13.47,16.86-15.23,34.32,17.79,10.11,17.88-6.42-1.22-3.75-11.3,2.62-10.09-3.51-.66-5.1-.99-8.36,1.75Z"/>
          <path class="cls-1" d="M789.98,1092.06c-.88.22-1.84.03-2.5-.58-1.94-1.78.89-3.75.14-7.46-1.76-8.68-18.27-1.84-19.11-.41.03-.57.1-.92.25-1.33,13.43-39.26,57.73-1.25,78.11-13.11,1.98-1.4-2.07-5.62-3.74-7.57.08-10.37,17.64-4,18.44,4.68.43-1.22.54-5.02-.05-6.91-.59-1.88-4.61-4.09-1.24-5.9,11.5-6.28,12.33,12.61,3.24,15.98,12.83-1.52,17.75,20.02,3.07,19.92-4.6-.23-6.84-6.04-3.15-9.27h-.11c-2.15,0-4.17,1.01-5.5,2.7-25.6,32.55-66.62-39.05-88.74-.89,18.71-27.88,43.31,4.66,20.89,10.16Z"/>
        </g>
        <g>
          <path class="cls-1" d="M687.69,1112.77c-13.56-12.64-36.17-18.17-53.61-16.42-15.04.19-27.98,4.84-41.93,9.03-8.85,2.66-14.74,10.51-10.76,19.58,4.83,15.66,31.73,21.3,36.98,2.41,5.77-16.91-18.81-27.69-13.43-7.62,1.07,3.98-8.12,2.73-12.17-.46-1.65-1.31-2.09-5.75-.8-7.28,15.24-18.17,48.85-2.69,69.17,6.36-36.73-2.36-44.68,9.82-6.75,17.36-1.84,2.71-3.08,6.23-4.07,9.02,3.8-4.72,9.65-1.58,13.62-5.09.61-.58,1.07-1.3,1.37-2.07,4.42.61,9.05,1.09,13.79,1.4-5.64,3.51-9.98,11.08-8.52,18.38-7.07-3.74-10.75,8.91-2.84,9.81-2.05,3.24,1.32,8.23,5.2,7.32,1.19,7.4,11.86,3.95,9.71-2.62,15.78,3.63,10.17-9.11,6.14-17.49-1.96-5.72,4.99-11.76,9.11-15,3.75-.02,7.23-.05,10.52-.1-3.86,4.55-3.66,15.36-.09,20.84-2.21-11.23,11.44-11.64,11.63-21.2,14.92,1.07,44.18-15.2,30.44-32.53.45,1.07.7,1.7.88,2.66.11.55.16,1.12.18,1.68.03,1.13-.18,2.35-1.37,3.51-1.82,1.78-4.59,2.28-6.95,1.28-3.66-1.54-7.01-5.5-11.27-5.7-16.59-3.9-12.63,18.46.64,20.22-10.55-.66-33.2-1.44-34.9-15.58.2-2.06,2.83-4.36,4.37-2.27-2.31,3.63,2.05,9.68,7.01,7.36,15.83-13.17-17.88-29.9-21.3-6.8Z"/>
          <path class="cls-1" d="M576.33,1123.9c-5.94-6.91-12.54-4.4-16.03,2.81-2.18-1.15-4.01.2-1.32,2.16-.22.37-.44.76-.66,1.14-2.91-2-3.81.36-1.09,1.94-.07.13-.15.28-.22.42-.83-.01-5.99-4.62-4.23-.67-3.52-.34-1.12,3.5,1.74,3.57.83.08.57.71-.42.57-1-.14-1.35.14-4.03-1.87-1.82-1.39-3.06-.66-2.22.76-4.14-3.26-5.17,1.71-1.41,2.99-1.8,1.84,1.39,4.01,4.18,2.68,2.19-.03-.82,2.18-4.14,1.17-2.85-.39-2.74,1.94-1.01,2.84-3.57,1.59,2.15,5.65,4.13,2.29,0,1.48-.62,2.88-2.8,3.88-2.21.99-1.75,2.71-.04,2.48-.95.27-.71,1.72.35,1.88-1.5,3.71-3.41,7.7-5.87,9.14,14.4-7.51,18.85-34.03,35.1-40.18Z"/>
          <path class="cls-1" d="M757.98,1190.01c-1.98-8.08,7.76-2.67,10.91-1.88-21.03-29.36,15.42-31.62-.88-57.47-.5-.79-1.1-1.52-1.7-2.24-3.24-3.86-2.4-16.96-8.51-9.13-5.11,8.18-1.82,17.06-10.55,21.24-4.02,1.93-7.71,4.5-10.73,7.78-41.69,45.21,46.29,92.27,6.39,118.08,28.95,11.87,26.62-17.95,26.62-17.95,19.54-10.59,5.86-29.13,5.86-29.13,23.18-14.87-11.42-15.63-17.41-29.3Z"/>
          <path class="cls-1" d="M537.06,1129.76c-1.95-6.41-11.73-3.73-9.78,2.7.42,1.38-.16,2.26-1.05,2.59-1.24.46-2.59-.39-2.87-1.68-7.02-31.79,62.35-3.46,64.25-34.25-7.42,19.31-28.92,3.19-42.88.69-21-6.52-53.01-3.29-35.94,9.92-21.28,2.33-25.05,32.9-4.64,27.29,1.17-.32,2.21-1.06,2.82-2.11,2.33-4.01-2.04-10.2-6.82-7.27,3.07-5.44,9.18-8.09,15.27-8.78-4.45,6.04-5.3,14.41-1,20.77,7.76,11.55,27.01,4.47,22.65-9.87Z"/>
          <path class="cls-1" d="M826.17,1160.38s-.02-.02-.04-.03c-1.91-1.62-3.14-3.91-3.47-6.38-4.33-31.62-56.21-11.38-54.3-46.95-7.28,31.75,29.81,30,35.62,49.57.45,1.5.16,3.16-.92,4.31-2.99,3.18-9.13.02-12.93.08-8.87,10.66,13.47,22.92,22.91,14.46.93,2.86,1.62,5.86,1.15,8.74-.51,3.18-5.72,8.73-6.56,3.02-.98-6.65-10.75-3.88-9.78,2.7,1.91,12.9,19.35,12.75,24.3,2.26,10.3,6.27,19.24-6.06,8.66-8.47-.75-.17-1.53-.27-2.3-.3-6.28-.27-4.36-9.16-6.71-13.47,16.86,15.23,34.32-17.79,10.11-17.88-6.42,1.22-3.75,11.3,2.62,10.09-3.51.66-5.1.99-8.36-1.75Z"/>
          <path class="cls-1" d="M789.98,1098.36c-.88-.22-1.84-.03-2.5.58-1.94,1.78.89,3.75.14,7.46-1.76,8.68-18.27,1.84-19.11.41.03.57.1.92.25,1.33,13.43,39.26,57.73,1.25,78.11,13.11,1.98,1.4-2.07,5.62-3.74,7.57.08,10.37,17.64,4,18.44-4.68.43,1.22.54,5.02-.05,6.91-.59,1.88-4.61,4.09-1.24,5.9,11.5,6.28,12.33-12.61,3.24-15.98,12.83,1.52,17.75-20.02,3.07-19.92-4.6.23-6.84,6.04-3.15,9.27h-.11c-2.15,0-4.17-1.01-5.5-2.7-25.6-32.55-66.62,39.05-88.74.89,18.71,27.88,43.31-4.66,20.89-10.16Z"/>
        </g>
      </g>
    </g>
    <g>
      <g>
        <g>
          <path class="cls-1" d="M1052.95,1077.65c13.56,12.64,36.17,18.17,53.61,16.42,15.04-.19,27.98-4.84,41.93-9.03,8.85-2.66,14.74-10.51,10.76-19.58-4.83-15.66-31.73-21.3-36.98-2.41-5.77,16.91,18.81,27.69,13.43,7.62-1.07-3.98,8.12-2.73,12.17.46,1.65,1.31,2.09,5.75.8,7.28-15.24,18.17-48.85,2.69-69.17-6.36,36.73,2.36,44.68-9.82,6.75-17.36,1.84-2.71,3.08-6.23,4.07-9.02-3.8,4.72-9.65,1.58-13.62,5.09-.61.58-1.07,1.3-1.37,2.07-4.42-.61-9.05-1.09-13.79-1.4,5.64-3.51,9.98-11.08,8.52-18.38,7.07,3.74,10.75-8.91,2.84-9.81,2.05-3.24-1.32-8.23-5.2-7.32-1.19-7.4-11.86-3.95-9.71,2.62-15.78-3.63-10.17,9.11-6.14,17.49,1.96,5.72-4.99,11.76-9.11,15-3.75.02-7.23.05-10.52.1,3.86-4.55,3.66-15.36.09-20.84,2.21,11.23-11.44,11.64-11.63,21.2-14.92-1.07-44.18,15.2-30.44,32.53-.45-1.07-.7-1.7-.88-2.66-.1-.55-.16-1.12-.18-1.68-.03-1.13.18-2.35,1.37-3.51,1.82-1.78,4.59-2.28,6.95-1.28,3.66,1.54,7.01,5.5,11.27,5.7,16.59,3.9,12.63-18.46-.64-20.22,10.55.66,33.2,1.44,34.9,15.58-.2,2.06-2.84,4.36-4.37,2.27,2.31-3.63-2.05-9.68-7.01-7.36-15.83,13.17,17.88,29.9,21.3,6.8Z"/>
          <path class="cls-1" d="M1199.94,1026.07c-.18.08-.35.17-.53.27.17-.09.35-.18.53-.27Z"/>
          <path class="cls-1" d="M1164.31,1066.52c5.94,6.91,12.54,4.4,16.03-2.81,2.18,1.15,4.01-.2,1.32-2.16.22-.37.44-.76.66-1.14,2.91,2,3.81-.36,1.09-1.94.07-.13.15-.28.22-.42.83.01,5.99,4.62,4.23.67,3.52.34,1.12-3.5-1.74-3.57-.83-.08-.57-.71.42-.57,1,.14,1.35-.14,4.03,1.87,1.82,1.39,3.06.66,2.22-.76,4.14,3.26,5.17-1.71,1.41-2.99,1.81-1.84-1.39-4.01-4.18-2.68-2.19.03.82-2.18,4.14-1.17,2.85.39,2.74-1.94,1.01-2.84,3.57-1.59-2.15-5.65-4.13-2.29,0-1.48.62-2.88,2.8-3.88,2.21-.99,1.75-2.71.04-2.48.95-.27.71-1.72-.35-1.88,1.5-3.71,3.41-7.7,5.87-9.14-14.4,7.51-18.85,34.03-35.1,40.18Z"/>
          <path class="cls-1" d="M982.66,1000.41c1.98,8.08-7.76,2.67-10.91,1.88,21.03,29.36-15.42,31.62.88,57.47.5.79,1.1,1.52,1.7,2.24,3.24,3.86,2.4,16.96,8.51,9.13,5.1-8.18,1.82-17.06,10.55-21.24,4.02-1.93,7.71-4.5,10.73-7.78,41.69-45.21-46.29-92.27-6.39-118.08-28.95-11.87-26.62,17.95-26.62,17.95-19.54,10.59-5.86,29.13-5.86,29.13-23.18,14.87,11.42,15.63,17.41,29.3Z"/>
          <path class="cls-1" d="M1203.59,1060.66c1.95,6.41,11.73,3.73,9.78-2.7-.42-1.38.16-2.26,1.05-2.59,1.24-.46,2.59.39,2.87,1.68,7.02,31.79-62.35,3.46-64.25,34.25,7.42-19.31,28.92-3.19,42.88-.69,21,6.52,53.01,3.29,35.94-9.92,21.28-2.33,25.05-32.9,4.64-27.29-1.17.32-2.21,1.06-2.82,2.11-2.33,4.01,2.04,10.2,6.82,7.27-3.07,5.44-9.18,8.09-15.27,8.78,4.45-6.04,5.3-14.41,1-20.77-7.76-11.55-27.01-4.47-22.65,9.87Z"/>
          <path class="cls-1" d="M914.47,1030.03s.02.02.04.03c1.91,1.62,3.14,3.91,3.47,6.38,4.33,31.62,56.21,11.38,54.3,46.95,7.28-31.75-29.81-30-35.62-49.57-.45-1.5-.16-3.16.92-4.31,2.99-3.18,9.13-.02,12.93-.08,8.87-10.66-13.47-22.92-22.91-14.46-.93-2.86-1.62-5.86-1.15-8.74.51-3.18,5.72-8.73,6.56-3.02.98,6.65,10.75,3.88,9.78-2.7-1.91-12.9-19.35-12.75-24.29-2.26-10.3-6.27-19.24,6.06-8.66,8.47.75.17,1.53.27,2.3.3,6.28.27,4.36,9.16,6.71,13.47-16.86-15.23-34.32,17.79-10.11,17.88,6.42-1.22,3.75-11.3-2.62-10.09,3.51-.66,5.1-.99,8.36,1.75Z"/>
          <path class="cls-1" d="M950.66,1092.06c.88.22,1.84.03,2.5-.58,1.94-1.78-.89-3.75-.14-7.46,1.76-8.68,18.27-1.84,19.11-.41-.03-.57-.1-.92-.25-1.33-13.43-39.26-57.73-1.25-78.11-13.11-1.98-1.4,2.07-5.62,3.74-7.57-.08-10.37-17.64-4-18.44,4.68-.43-1.22-.54-5.02.05-6.91.59-1.88,4.61-4.09,1.24-5.9-11.5-6.28-12.33,12.61-3.24,15.98-12.83-1.52-17.75,20.02-3.07,19.92,4.6-.23,6.84-6.04,3.15-9.27h.11c2.15,0,4.17,1.01,5.5,2.7,25.6,32.55,66.62-39.05,88.74-.89-18.71-27.88-43.31,4.66-20.89,10.16Z"/>
        </g>
        <g>
          <path class="cls-1" d="M1052.95,1112.77c13.56-12.64,36.17-18.17,53.61-16.42,15.04.19,27.98,4.84,41.93,9.03,8.85,2.66,14.74,10.51,10.76,19.58-4.83,15.66-31.73,21.3-36.98,2.41-5.77-16.91,18.81-27.69,13.43-7.62-1.07,3.98,8.12,2.73,12.17-.46,1.65-1.31,2.09-5.75.8-7.28-15.24-18.17-48.85-2.69-69.17,6.36,36.73-2.36,44.68,9.82,6.75,17.36,1.84,2.71,3.08,6.23,4.07,9.02-3.8-4.72-9.65-1.58-13.62-5.09-.61-.58-1.07-1.3-1.37-2.07-4.42.61-9.05,1.09-13.79,1.4,5.64,3.51,9.98,11.08,8.52,18.38,7.07-3.74,10.75,8.91,2.84,9.81,2.05,3.24-1.32,8.23-5.2,7.32-1.19,7.4-11.86,3.95-9.71-2.62-15.78,3.63-10.17-9.11-6.14-17.49,1.96-5.72-4.99-11.76-9.11-15-3.75-.02-7.23-.05-10.52-.1,3.86,4.55,3.66,15.36.09,20.84,2.21-11.23-11.44-11.64-11.63-21.2-14.92,1.07-44.18-15.2-30.44-32.53-.45,1.07-.7,1.7-.88,2.66-.1.55-.16,1.12-.18,1.68-.03,1.13.18,2.35,1.37,3.51,1.82,1.78,4.59,2.28,6.95,1.28,3.66-1.54,7.01-5.5,11.27-5.7,16.59-3.9,12.63,18.46-.64,20.22,10.55-.66,33.2-1.44,34.9-15.58-.2-2.06-2.84-4.36-4.37-2.27,2.31,3.63-2.05,9.68-7.01,7.36-15.83-13.17,17.88-29.9,21.3-6.8Z"/>
          <path class="cls-1" d="M1164.31,1123.9c5.94-6.91,12.54-4.4,16.03,2.81,2.18-1.15,4.01.2,1.32,2.16.22.37.44.76.66,1.14,2.91-2,3.81.36,1.09,1.94.07.13.15.28.22.42.83-.01,5.99-4.62,4.23-.67,3.52-.34,1.12,3.5-1.74,3.57-.83.08-.57.71.42.57,1-.14,1.35.14,4.03-1.87,1.82-1.39,3.06-.66,2.22.76,4.14-3.26,5.17,1.71,1.41,2.99,1.81,1.84-1.39,4.01-4.18,2.68-2.19-.03.82,2.18,4.14,1.17,2.85-.39,2.74,1.94,1.01,2.84,3.57,1.59-2.15,5.65-4.13,2.29,0,1.48.62,2.88,2.8,3.88,2.21.99,1.75,2.71.04,2.48.95.27.71,1.72-.35,1.88,1.5,3.71,3.41,7.7,5.87,9.14-14.4-7.51-18.85-34.03-35.1-40.18Z"/>
          <path class="cls-1" d="M982.66,1190.01c1.98-8.08-7.76-2.67-10.91-1.88,21.03-29.36-15.42-31.62.88-57.47.5-.79,1.1-1.52,1.7-2.24,3.24-3.86,2.4-16.96,8.51-9.13,5.1,8.18,1.82,17.06,10.55,21.24,4.02,1.93,7.71,4.5,10.73,7.78,41.69,45.21-46.29,92.27-6.39,118.08-28.95,11.87-26.62-17.95-26.62-17.95-19.54-10.59-5.86-29.13-5.86-29.13-23.18-14.87,11.42-15.63,17.41-29.3Z"/>
          <path class="cls-1" d="M1203.59,1129.76c1.95-6.41,11.73-3.73,9.78,2.7-.42,1.38.16,2.26,1.05,2.59,1.24.46,2.59-.39,2.87-1.68,7.02-31.79-62.35-3.46-64.25-34.25,7.42,19.31,28.92,3.19,42.88.69,21-6.52,53.01-3.29,35.94,9.92,21.28,2.33,25.05,32.9,4.64,27.29-1.17-.32-2.21-1.06-2.82-2.11-2.33-4.01,2.04-10.2,6.82-7.27-3.07-5.44-9.18-8.09-15.27-8.78,4.45,6.04,5.3,14.41,1,20.77-7.76,11.55-27.01,4.47-22.65-9.87Z"/>
          <path class="cls-1" d="M914.47,1160.38s.02-.02.04-.03c1.91-1.62,3.14-3.91,3.47-6.38,4.33-31.62,56.21-11.38,54.3-46.95,7.28,31.75-29.81,30-35.62,49.57-.45,1.5-.16,3.16.92,4.31,2.99,3.18,9.13.02,12.93.08,8.87,10.66-13.47,22.92-22.91,14.46-.93,2.86-1.62,5.86-1.15,8.74.51,3.18,5.72,8.73,6.56,3.02.98-6.65,10.75-3.88,9.78,2.7-1.91,12.9-19.35,12.75-24.29,2.26-10.3,6.27-19.24-6.06-8.66-8.47.75-.17,1.53-.27,2.3-.3,6.28-.27,4.36-9.16,6.71-13.47-16.86,15.23-34.32-17.79-10.11-17.88,6.42,1.22,3.75,11.3-2.62,10.09,3.51.66,5.1.99,8.36-1.75Z"/>
          <path class="cls-1" d="M950.66,1098.36c.88-.22,1.84-.03,2.5.58,1.94,1.78-.89,3.75-.14,7.46,1.76,8.68,18.27,1.84,19.11.41-.03.57-.1.92-.25,1.33-13.43,39.26-57.73,1.25-78.11,13.11-1.98,1.4,2.07,5.62,3.74,7.57-.08,10.37-17.64,4-18.44-4.68-.43,1.22-.54,5.02.05,6.91.59,1.88,4.61,4.09,1.24,5.9-11.5,6.28-12.33-12.61-3.24-15.98-12.83,1.52-17.75-20.02-3.07-19.92,4.6.23,6.84,6.04,3.15,9.27h.11c2.15,0,4.17-1.01,5.5-2.7,25.6-32.55,66.62,39.05,88.74.89-18.71,27.88-43.31-4.66-20.89-10.16Z"/>
        </g>
      </g>
      <g>
        <g>
          <path class="cls-1" d="M1436.83,1077.65c-13.56,12.64-36.17,18.17-53.61,16.42-15.04-.19-27.98-4.84-41.93-9.03-8.85-2.66-14.74-10.51-10.76-19.58,4.83-15.66,31.73-21.3,36.98-2.41,5.77,16.91-18.81,27.69-13.43,7.62,1.07-3.98-8.12-2.73-12.17.46-1.65,1.31-2.09,5.75-.8,7.28,15.24,18.17,48.85,2.69,69.17-6.36-36.73,2.36-44.68-9.82-6.75-17.36-1.84-2.71-3.08-6.23-4.07-9.02,3.8,4.72,9.65,1.58,13.62,5.09.61.58,1.07,1.3,1.37,2.07,4.42-.61,9.05-1.09,13.79-1.4-5.64-3.51-9.98-11.08-8.52-18.38-7.07,3.74-10.75-8.91-2.84-9.81-2.05-3.24,1.32-8.23,5.2-7.32,1.19-7.4,11.86-3.95,9.71,2.62,15.78-3.63,10.17,9.11,6.14,17.49-1.96,5.72,4.99,11.76,9.11,15,3.75.02,7.23.05,10.52.1-3.86-4.55-3.66-15.36-.09-20.84-2.21,11.23,11.44,11.64,11.63,21.2,14.92-1.07,44.18,15.2,30.44,32.53.45-1.07.7-1.7.88-2.66.1-.55.16-1.12.18-1.68.03-1.13-.18-2.35-1.37-3.51-1.82-1.78-4.59-2.28-6.95-1.28-3.66,1.54-7.01,5.5-11.27,5.7-16.59,3.9-12.63-18.46.64-20.22-10.55.66-33.2,1.44-34.9,15.58.2,2.06,2.84,4.36,4.37,2.27-2.31-3.63,2.05-9.68,7.01-7.36,15.83,13.17-17.88,29.9-21.3,6.8Z"/>
          <path class="cls-1" d="M1289.84,1026.07c.18.08.35.17.53.27-.17-.09-.35-.18-.53-.27Z"/>
          <path class="cls-1" d="M1325.46,1066.52c-5.94,6.91-12.54,4.4-16.03-2.81-2.18,1.15-4.01-.2-1.32-2.16-.22-.37-.44-.76-.66-1.14-2.91,2-3.81-.36-1.09-1.94-.07-.13-.15-.28-.22-.42-.83.01-5.99,4.62-4.23.67-3.52.34-1.12-3.5,1.74-3.57.83-.08.57-.71-.42-.57-1,.14-1.35-.14-4.03,1.87-1.82,1.39-3.06.66-2.22-.76-4.14,3.26-5.17-1.71-1.41-2.99-1.8-1.84,1.39-4.01,4.18-2.68,2.19.03-.82-2.18-4.14-1.17-2.85.39-2.74-1.94-1.01-2.84-3.57-1.59,2.15-5.65,4.13-2.29,0-1.48-.62-2.88-2.81-3.88-2.21-.99-1.75-2.71-.04-2.48-.95-.27-.71-1.72.35-1.88-1.5-3.71-3.41-7.7-5.87-9.14,14.4,7.51,18.85,34.03,35.1,40.18Z"/>
          <path class="cls-1" d="M1507.12,1000.41c-1.98,8.08,7.76,2.67,10.91,1.88-21.03,29.36,15.42,31.62-.88,57.47-.5.79-1.1,1.52-1.7,2.24-3.24,3.86-2.4,16.96-8.51,9.13-5.1-8.18-1.82-17.06-10.55-21.24-4.02-1.93-7.71-4.5-10.73-7.78-41.69-45.21,46.29-92.27,6.39-118.08,28.95-11.87,26.62,17.95,26.62,17.95,19.54,10.59,5.86,29.13,5.86,29.13,23.18,14.87-11.42,15.63-17.41,29.3Z"/>
          <path class="cls-1" d="M1286.19,1060.66c-1.95,6.41-11.73,3.73-9.78-2.7.42-1.38-.16-2.26-1.05-2.59-1.24-.46-2.59.39-2.87,1.68-7.02,31.79,62.35,3.46,64.25,34.25-7.42-19.31-28.92-3.19-42.88-.69-21,6.52-53.01,3.29-35.94-9.92-21.28-2.33-25.05-32.9-4.64-27.29,1.17.32,2.21,1.06,2.82,2.11,2.33,4.01-2.04,10.2-6.82,7.27,3.07,5.44,9.18,8.09,15.27,8.78-4.45-6.04-5.3-14.41-1-20.77,7.76-11.55,27.01-4.47,22.65,9.87Z"/>
          <path class="cls-1" d="M1575.3,1030.03s-.02.02-.04.03c-1.91,1.62-3.14,3.91-3.47,6.38-4.33,31.62-56.21,11.38-54.3,46.95-7.28-31.75,29.81-30,35.62-49.57.45-1.5.16-3.16-.92-4.31-2.99-3.18-9.13-.02-12.93-.08-8.87-10.66,13.47-22.92,22.91-14.46.93-2.86,1.62-5.86,1.15-8.74-.51-3.18-5.72-8.73-6.56-3.02-.98,6.65-10.75,3.88-9.78-2.7,1.91-12.9,19.35-12.75,24.29-2.26,10.3-6.27,19.24,6.06,8.66,8.47-.75.17-1.53.27-2.3.3-6.28.27-4.36,9.16-6.71,13.47,16.86-15.23,34.32,17.79,10.11,17.88-6.42-1.22-3.75-11.3,2.62-10.09-3.51-.66-5.1-.99-8.36,1.75Z"/>
          <path class="cls-1" d="M1539.12,1092.06c-.88.22-1.84.03-2.5-.58-1.94-1.78.89-3.75.14-7.46-1.76-8.68-18.27-1.84-19.11-.41.03-.57.1-.92.25-1.33,13.43-39.26,57.73-1.25,78.11-13.11,1.98-1.4-2.07-5.62-3.74-7.57.08-10.37,17.64-4,18.44,4.68.43-1.22.54-5.02-.05-6.91-.59-1.88-4.61-4.09-1.24-5.9,11.5-6.28,12.33,12.61,3.24,15.98,12.83-1.52,17.75,20.02,3.07,19.92-4.6-.23-6.84-6.04-3.15-9.27h-.11c-2.15,0-4.17,1.01-5.5,2.7-25.6,32.55-66.62-39.05-88.74-.89,18.71-27.88,43.31,4.66,20.89,10.16Z"/>
        </g>
        <g>
          <path class="cls-1" d="M1436.83,1112.77c-13.56-12.64-36.17-18.17-53.61-16.42-15.04.19-27.98,4.84-41.93,9.03-8.85,2.66-14.74,10.51-10.76,19.58,4.83,15.66,31.73,21.3,36.98,2.41,5.77-16.91-18.81-27.69-13.43-7.62,1.07,3.98-8.12,2.73-12.17-.46-1.65-1.31-2.09-5.75-.8-7.28,15.24-18.17,48.85-2.69,69.17,6.36-36.73-2.36-44.68,9.82-6.75,17.36-1.84,2.71-3.08,6.23-4.07,9.02,3.8-4.72,9.65-1.58,13.62-5.09.61-.58,1.07-1.3,1.37-2.07,4.42.61,9.05,1.09,13.79,1.4-5.64,3.51-9.98,11.08-8.52,18.38-7.07-3.74-10.75,8.91-2.84,9.81-2.05,3.24,1.32,8.23,5.2,7.32,1.19,7.4,11.86,3.95,9.71-2.62,15.78,3.63,10.17-9.11,6.14-17.49-1.96-5.72,4.99-11.76,9.11-15,3.75-.02,7.23-.05,10.52-.1-3.86,4.55-3.66,15.36-.09,20.84-2.21-11.23,11.44-11.64,11.63-21.2,14.92,1.07,44.18-15.2,30.44-32.53.45,1.07.7,1.7.88,2.66.1.55.16,1.12.18,1.68.03,1.13-.18,2.35-1.37,3.51-1.82,1.78-4.59,2.28-6.95,1.28-3.66-1.54-7.01-5.5-11.27-5.7-16.59-3.9-12.63,18.46.64,20.22-10.55-.66-33.2-1.44-34.9-15.58.2-2.06,2.84-4.36,4.37-2.27-2.31,3.63,2.05,9.68,7.01,7.36,15.83-13.17-17.88-29.9-21.3-6.8Z"/>
          <path class="cls-1" d="M1325.46,1123.9c-5.94-6.91-12.54-4.4-16.03,2.81-2.18-1.15-4.01.2-1.32,2.16-.22.37-.44.76-.66,1.14-2.91-2-3.81.36-1.09,1.94-.07.13-.15.28-.22.42-.83-.01-5.99-4.62-4.23-.67-3.52-.34-1.12,3.5,1.74,3.57.83.08.57.71-.42.57-1-.14-1.35.14-4.03-1.87-1.82-1.39-3.06-.66-2.22.76-4.14-3.26-5.17,1.71-1.41,2.99-1.8,1.84,1.39,4.01,4.18,2.68,2.19-.03-.82,2.18-4.14,1.17-2.85-.39-2.74,1.94-1.01,2.84-3.57,1.59,2.15,5.65,4.13,2.29,0,1.48-.62,2.88-2.81,3.88-2.21.99-1.75,2.71-.04,2.48-.95.27-.71,1.72.35,1.88-1.5,3.71-3.41,7.7-5.87,9.14,14.4-7.51,18.85-34.03,35.1-40.18Z"/>
          <path class="cls-1" d="M1507.12,1190.01c-1.98-8.08,7.76-2.67,10.91-1.88-21.03-29.36,15.42-31.62-.88-57.47-.5-.79-1.1-1.52-1.7-2.24-3.24-3.86-2.4-16.96-8.51-9.13-5.1,8.18-1.82,17.06-10.55,21.24-4.02,1.93-7.71,4.5-10.73,7.78-41.69,45.21,46.29,92.27,6.39,118.08,28.95,11.87,26.62-17.95,26.62-17.95,19.54-10.59,5.86-29.13,5.86-29.13,23.18-14.87-11.42-15.63-17.41-29.3Z"/>
          <path class="cls-1" d="M1286.19,1129.76c-1.95-6.41-11.73-3.73-9.78,2.7.42,1.38-.16,2.26-1.05,2.59-1.24.46-2.59-.39-2.87-1.68-7.02-31.79,62.35-3.46,64.25-34.25-7.42,19.31-28.92,3.19-42.88.69-21-6.52-53.01-3.29-35.94,9.92-21.28,2.33-25.05,32.9-4.64,27.29,1.17-.32,2.21-1.06,2.82-2.11,2.33-4.01-2.04-10.2-6.82-7.27,3.07-5.44,9.18-8.09,15.27-8.78-4.45,6.04-5.3,14.41-1,20.77,7.76,11.55,27.01,4.47,22.65-9.87Z"/>
          <path class="cls-1" d="M1575.3,1160.38s-.02-.02-.04-.03c-1.91-1.62-3.14-3.91-3.47-6.38-4.33-31.62-56.21-11.38-54.3-46.95-7.28,31.75,29.81,30,35.62,49.57.45,1.5.16,3.16-.92,4.31-2.99,3.18-9.13.02-12.93.08-8.87,10.66,13.47,22.92,22.91,14.46.93,2.86,1.62,5.86,1.15,8.74-.51,3.18-5.72,8.73-6.56,3.02-.98-6.65-10.75-3.88-9.78,2.7,1.91,12.9,19.35,12.75,24.29,2.26,10.3,6.27,19.24-6.06,8.66-8.47-.75-.17-1.53-.27-2.3-.3-6.28-.27-4.36-9.16-6.71-13.47,16.86,15.23,34.32-17.79,10.11-17.88-6.42,1.22-3.75,11.3,2.62,10.09-3.51.66-5.1.99-8.36-1.75Z"/>
          <path class="cls-1" d="M1539.12,1098.36c-.88-.22-1.84-.03-2.5.58-1.94,1.78.89,3.75.14,7.46-1.76,8.68-18.27,1.84-19.11.41.03.57.1.92.25,1.33,13.43,39.26,57.73,1.25,78.11,13.11,1.98,1.4-2.07,5.62-3.74,7.57.08,10.37,17.64,4,18.44-4.68.43,1.22.54,5.02-.05,6.91-.59,1.88-4.61,4.09-1.24,5.9,11.5,6.28,12.33-12.61,3.24-15.98,12.83,1.52,17.75-20.02,3.07-19.92-4.6.23-6.84,6.04-3.15,9.27h-.11c-2.15,0-4.17-1.01-5.5-2.7-25.6-32.55-66.62,39.05-88.74.89,18.71,27.88,43.31-4.66,20.89-10.16Z"/>
        </g>
      </g>
    </g>
    <g>
      <g>
        <g>
          <path class="cls-1" d="M1802.08,1077.65c13.56,12.64,36.17,18.17,53.61,16.42,15.04-.19,27.98-4.84,41.93-9.03,8.85-2.66,14.74-10.51,10.76-19.58-4.83-15.66-31.73-21.3-36.98-2.41-5.77,16.91,18.81,27.69,13.43,7.62-1.07-3.98,8.12-2.73,12.17.46,1.65,1.31,2.09,5.75.8,7.28-15.24,18.17-48.85,2.69-69.17-6.36,36.73,2.36,44.68-9.82,6.75-17.36,1.84-2.71,3.08-6.23,4.07-9.02-3.8,4.72-9.65,1.58-13.62,5.09-.61.58-1.07,1.3-1.37,2.07-4.42-.61-9.05-1.09-13.79-1.4,5.64-3.51,9.98-11.08,8.52-18.38,7.07,3.74,10.75-8.91,2.84-9.81,2.05-3.24-1.32-8.23-5.2-7.32-1.19-7.4-11.86-3.95-9.71,2.62-15.78-3.63-10.17,9.11-6.14,17.49,1.96,5.72-4.99,11.76-9.11,15-3.75.02-7.23.05-10.52.1,3.86-4.55,3.66-15.36.09-20.84,2.21,11.23-11.44,11.64-11.63,21.2-14.92-1.07-44.18,15.2-30.44,32.53-.45-1.07-.7-1.7-.88-2.66-.1-.55-.16-1.12-.18-1.68-.03-1.13.18-2.35,1.37-3.51,1.82-1.78,4.59-2.28,6.95-1.28,3.66,1.54,7.01,5.5,11.27,5.7,16.59,3.9,12.63-18.46-.64-20.22,10.55.66,33.2,1.44,34.9,15.58-.2,2.06-2.84,4.36-4.37,2.27,2.31-3.63-2.05-9.68-7.01-7.36-15.83,13.17,17.88,29.9,21.3,6.8Z"/>
          <path class="cls-1" d="M1949.07,1026.07c-.18.08-.35.17-.52.27.17-.09.35-.18.52-.27Z"/>
          <path class="cls-1" d="M1913.45,1066.52c5.94,6.91,12.54,4.4,16.03-2.81,2.18,1.15,4.01-.2,1.32-2.16.22-.37.44-.76.66-1.14,2.91,2,3.81-.36,1.09-1.94.07-.13.15-.28.22-.42.83.01,5.99,4.62,4.23.67,3.52.34,1.12-3.5-1.74-3.57-.83-.08-.57-.71.42-.57,1,.14,1.35-.14,4.03,1.87,1.82,1.39,3.06.66,2.22-.76,4.14,3.26,5.17-1.71,1.41-2.99,1.81-1.84-1.39-4.01-4.18-2.68-2.19.03.82-2.18,4.14-1.17,2.85.39,2.74-1.94,1.01-2.84,3.57-1.59-2.15-5.65-4.13-2.29,0-1.48.62-2.88,2.81-3.88,2.21-.99,1.75-2.71.04-2.48.95-.27.71-1.72-.35-1.88,1.5-3.71,3.41-7.7,5.87-9.14-14.4,7.51-18.85,34.03-35.1,40.18Z"/>
          <path class="cls-1" d="M1731.79,1000.41c1.98,8.08-7.76,2.67-10.91,1.88,21.03,29.36-15.42,31.62.88,57.47.5.79,1.1,1.52,1.7,2.24,3.24,3.86,2.4,16.96,8.51,9.13,5.1-8.18,1.82-17.06,10.55-21.24,4.02-1.93,7.71-4.5,10.73-7.78,41.69-45.21-46.29-92.27-6.39-118.08-28.95-11.87-26.62,17.95-26.62,17.95-19.54,10.59-5.86,29.13-5.86,29.13-23.18,14.87,11.42,15.63,17.41,29.3Z"/>
          <path class="cls-1" d="M1952.72,1060.66c1.95,6.41,11.73,3.73,9.78-2.7-.42-1.38.16-2.26,1.05-2.59,1.24-.46,2.59.39,2.87,1.68,7.02,31.79-62.35,3.46-64.25,34.25,7.42-19.31,28.92-3.19,42.88-.69,21,6.52,53.01,3.29,35.94-9.92,21.28-2.33,25.05-32.9,4.64-27.29-1.17.32-2.21,1.06-2.82,2.11-2.33,4.01,2.04,10.2,6.82,7.27-3.07,5.44-9.18,8.09-15.27,8.78,4.45-6.04,5.3-14.41,1-20.77-7.76-11.55-27.01-4.47-22.65,9.87Z"/>
          <path class="cls-1" d="M1663.6,1030.03s.02.02.04.03c1.91,1.62,3.14,3.91,3.47,6.38,4.33,31.62,56.21,11.38,54.3,46.95,7.28-31.75-29.81-30-35.62-49.57-.45-1.5-.16-3.16.92-4.31,2.99-3.18,9.13-.02,12.93-.08,8.87-10.66-13.47-22.92-22.91-14.46-.93-2.86-1.62-5.86-1.15-8.74.51-3.18,5.72-8.73,6.56-3.02.98,6.65,10.75,3.88,9.78-2.7-1.91-12.9-19.35-12.75-24.29-2.26-10.3-6.27-19.24,6.06-8.66,8.47.75.17,1.53.27,2.3.3,6.28.27,4.36,9.16,6.71,13.47-16.86-15.23-34.32,17.79-10.11,17.88,6.42-1.22,3.75-11.3-2.62-10.09,3.51-.66,5.1-.99,8.36,1.75Z"/>
          <path class="cls-1" d="M1699.79,1092.06c.88.22,1.84.03,2.5-.58,1.94-1.78-.89-3.75-.14-7.46,1.76-8.68,18.27-1.84,19.11-.41-.03-.57-.1-.92-.25-1.33-13.43-39.26-57.73-1.25-78.11-13.11-1.98-1.4,2.07-5.62,3.74-7.57-.08-10.37-17.64-4-18.44,4.68-.43-1.22-.54-5.02.05-6.91.59-1.88,4.61-4.09,1.24-5.9-11.5-6.28-12.33,12.61-3.24,15.98-12.83-1.52-17.75,20.02-3.07,19.92,4.6-.23,6.84-6.04,3.15-9.27h.11c2.15,0,4.17,1.01,5.5,2.7,25.6,32.55,66.62-39.05,88.74-.89-18.71-27.88-43.31,4.66-20.89,10.16Z"/>
        </g>
        <g>
          <path class="cls-1" d="M1802.08,1112.77c13.56-12.64,36.17-18.17,53.61-16.42,15.04.19,27.98,4.84,41.93,9.03,8.85,2.66,14.74,10.51,10.76,19.58-4.83,15.66-31.73,21.3-36.98,2.41-5.77-16.91,18.81-27.69,13.43-7.62-1.07,3.98,8.12,2.73,12.17-.46,1.65-1.31,2.09-5.75.8-7.28-15.24-18.17-48.85-2.69-69.17,6.36,36.73-2.36,44.68,9.82,6.75,17.36,1.84,2.71,3.08,6.23,4.07,9.02-3.8-4.72-9.65-1.58-13.62-5.09-.61-.58-1.07-1.3-1.37-2.07-4.42.61-9.05,1.09-13.79,1.4,5.64,3.51,9.98,11.08,8.52,18.38,7.07-3.74,10.75,8.91,2.84,9.81,2.05,3.24-1.32,8.23-5.2,7.32-1.19,7.4-11.86,3.95-9.71-2.62-15.78,3.63-10.17-9.11-6.14-17.49,1.96-5.72-4.99-11.76-9.11-15-3.75-.02-7.23-.05-10.52-.1,3.86,4.55,3.66,15.36.09,20.84,2.21-11.23-11.44-11.64-11.63-21.2-14.92,1.07-44.18-15.2-30.44-32.53-.45,1.07-.7,1.7-.88,2.66-.1.55-.16,1.12-.18,1.68-.03,1.13.18,2.35,1.37,3.51,1.82,1.78,4.59,2.28,6.95,1.28,3.66-1.54,7.01-5.5,11.27-5.7,16.59-3.9,12.63,18.46-.64,20.22,10.55-.66,33.2-1.44,34.9-15.58-.2-2.06-2.84-4.36-4.37-2.27,2.31,3.63-2.05,9.68-7.01,7.36-15.83-13.17,17.88-29.9,21.3-6.8Z"/>
          <path class="cls-1" d="M1913.45,1123.9c5.94-6.91,12.54-4.4,16.03,2.81,2.18-1.15,4.01.2,1.32,2.16.22.37.44.76.66,1.14,2.91-2,3.81.36,1.09,1.94.07.13.15.28.22.42.83-.01,5.99-4.62,4.23-.67,3.52-.34,1.12,3.5-1.74,3.57-.83.08-.57.71.42.57,1-.14,1.35.14,4.03-1.87,1.82-1.39,3.06-.66,2.22.76,4.14-3.26,5.17,1.71,1.41,2.99,1.81,1.84-1.39,4.01-4.18,2.68-2.19-.03.82,2.18,4.14,1.17,2.85-.39,2.74,1.94,1.01,2.84,3.57,1.59-2.15,5.65-4.13,2.29,0,1.48.62,2.88,2.81,3.88,2.21.99,1.75,2.71.04,2.48.95.27.71,1.72-.35,1.88,1.5,3.71,3.41,7.7,5.87,9.14-14.4-7.51-18.85-34.03-35.1-40.18Z"/>
          <path class="cls-1" d="M1731.79,1190.01c1.98-8.08-7.76-2.67-10.91-1.88,21.03-29.36-15.42-31.62.88-57.47.5-.79,1.1-1.52,1.7-2.24,3.24-3.86,2.4-16.96,8.51-9.13,5.1,8.18,1.82,17.06,10.55,21.24,4.02,1.93,7.71,4.5,10.73,7.78,41.69,45.21-46.29,92.27-6.39,118.08-28.95,11.87-26.62-17.95-26.62-17.95-19.54-10.59-5.86-29.13-5.86-29.13-23.18-14.87,11.42-15.63,17.41-29.3Z"/>
          <path class="cls-1" d="M1952.72,1129.76c1.95-6.41,11.73-3.73,9.78,2.7-.42,1.38.16,2.26,1.05,2.59,1.24.46,2.59-.39,2.87-1.68,7.02-31.79-62.35-3.46-64.25-34.25,7.42,19.31,28.92,3.19,42.88.69,21-6.52,53.01-3.29,35.94,9.92,21.28,2.33,25.05,32.9,4.64,27.29-1.17-.32-2.21-1.06-2.82-2.11-2.33-4.01,2.04-10.2,6.82-7.27-3.07-5.44-9.18-8.09-15.27-8.78,4.45,6.04,5.3,14.41,1,20.77-7.76,11.55-27.01,4.47-22.65-9.87Z"/>
          <path class="cls-1" d="M1663.6,1160.38s.02-.02.04-.03c1.91-1.62,3.14-3.91,3.47-6.38,4.33-31.62,56.21-11.38,54.3-46.95,7.28,31.75-29.81,30-35.62,49.57-.45,1.5-.16,3.16.92,4.31,2.99,3.18,9.13.02,12.93.08,8.87,10.66-13.47,22.92-22.91,14.46-.93,2.86-1.62,5.86-1.15,8.74.51,3.18,5.72,8.73,6.56,3.02.98-6.65,10.75-3.88,9.78,2.7-1.91,12.9-19.35,12.75-24.29,2.26-10.3,6.27-19.24-6.06-8.66-8.47.75-.17,1.53-.27,2.3-.3,6.28-.27,4.36-9.16,6.71-13.47-16.86,15.23-34.32-17.79-10.11-17.88,6.42,1.22,3.75,11.3-2.62,10.09,3.51.66,5.1.99,8.36-1.75Z"/>
          <path class="cls-1" d="M1699.79,1098.36c.88-.22,1.84-.03,2.5.58,1.94,1.78-.89,3.75-.14,7.46,1.76,8.68,18.27,1.84,19.11.41-.03.57-.1.92-.25,1.33-13.43,39.26-57.73,1.25-78.11,13.11-1.98,1.4,2.07,5.62,3.74,7.57-.08,10.37-17.64,4-18.44-4.68-.43,1.22-.54,5.02.05,6.91.59,1.88,4.61,4.09,1.24,5.9-11.5,6.28-12.33-12.61-3.24-15.98-12.83,1.52-17.75-20.02-3.07-19.92,4.6.23,6.84,6.04,3.15,9.27h.11c2.15,0,4.17-1.01,5.5-2.7,25.6-32.55,66.62,39.05,88.74.89-18.71,27.88-43.31-4.66-20.89-10.16Z"/>
        </g>
      </g>
      <g>
        <g>
          <path class="cls-1" d="M2185.96,1077.65c-13.56,12.64-36.17,18.17-53.61,16.42-15.04-.19-27.98-4.84-41.93-9.03-8.85-2.66-14.74-10.51-10.76-19.58,4.83-15.66,31.73-21.3,36.98-2.41,5.77,16.91-18.81,27.69-13.43,7.62,1.07-3.98-8.12-2.73-12.17.46-1.65,1.31-2.09,5.75-.8,7.28,15.24,18.17,48.85,2.69,69.17-6.36-36.73,2.36-44.68-9.82-6.75-17.36-1.84-2.71-3.08-6.23-4.07-9.02,3.8,4.72,9.65,1.58,13.62,5.09.61.58,1.07,1.3,1.37,2.07,4.42-.61,9.05-1.09,13.79-1.4-5.64-3.51-9.98-11.08-8.52-18.38-7.07,3.74-10.75-8.91-2.84-9.81-2.05-3.24,1.32-8.23,5.2-7.32,1.19-7.4,11.86-3.95,9.71,2.62,15.78-3.63,10.17,9.11,6.14,17.49-1.96,5.72,4.99,11.76,9.11,15,3.75.02,7.23.05,10.52.1-3.86-4.55-3.66-15.36-.09-20.84-2.21,11.23,11.44,11.64,11.63,21.2,14.92-1.07,44.18,15.2,30.44,32.53.45-1.07.7-1.7.88-2.66.1-.55.16-1.12.18-1.68.03-1.13-.18-2.35-1.37-3.51-1.82-1.78-4.59-2.28-6.95-1.28-3.66,1.54-7.01,5.5-11.27,5.7-16.59,3.9-12.63-18.46.64-20.22-10.55.66-33.2,1.44-34.9,15.58.2,2.06,2.84,4.36,4.37,2.27-2.31-3.63,2.05-9.68,7.01-7.36,15.83,13.17-17.88,29.9-21.3,6.8Z"/>
          <path class="cls-1" d="M2038.97,1026.07c.18.08.35.17.53.27-.17-.09-.35-.18-.53-.27Z"/>
          <path class="cls-1" d="M2074.6,1066.52c-5.94,6.91-12.54,4.4-16.03-2.81-2.18,1.15-4.01-.2-1.32-2.16-.22-.37-.44-.76-.66-1.14-2.91,2-3.81-.36-1.09-1.94-.07-.13-.15-.28-.22-.42-.83.01-5.99,4.62-4.23.67-3.52.34-1.12-3.5,1.74-3.57.83-.08.57-.71-.42-.57-1,.14-1.35-.14-4.03,1.87-1.82,1.39-3.06.66-2.22-.76-4.14,3.26-5.17-1.71-1.41-2.99-1.81-1.84,1.39-4.01,4.18-2.68,2.19.03-.82-2.18-4.14-1.17-2.85.39-2.74-1.94-1.01-2.84-3.57-1.59,2.15-5.65,4.13-2.29,0-1.48-.62-2.88-2.8-3.88-2.21-.99-1.75-2.71-.04-2.48-.95-.27-.71-1.72.35-1.88-1.5-3.71-3.41-7.7-5.87-9.14,14.4,7.51,18.85,34.03,35.1,40.18Z"/>
          <path class="cls-1" d="M2256.25,1000.41c-1.98,8.08,7.76,2.67,10.91,1.88-21.03,29.36,15.42,31.62-.88,57.47-.5.79-1.1,1.52-1.7,2.24-3.24,3.86-2.4,16.96-8.51,9.13-5.1-8.18-1.82-17.06-10.55-21.24-4.02-1.93-7.71-4.5-10.73-7.78-41.69-45.21,46.29-92.27,6.39-118.08,28.95-11.87,26.62,17.95,26.62,17.95,19.54,10.59,5.86,29.13,5.86,29.13,23.18,14.87-11.42,15.63-17.41,29.3Z"/>
          <path class="cls-1" d="M2035.32,1060.66c-1.95,6.41-11.73,3.73-9.78-2.7.42-1.38-.16-2.26-1.05-2.59-1.24-.46-2.59.39-2.87,1.68-7.02,31.79,62.35,3.46,64.25,34.25-7.42-19.31-28.92-3.19-42.88-.69-21,6.52-53.01,3.29-35.94-9.92-21.28-2.33-25.05-32.9-4.64-27.29,1.17.32,2.21,1.06,2.82,2.11,2.33,4.01-2.04,10.2-6.82,7.27,3.07,5.44,9.18,8.09,15.27,8.78-4.45-6.04-5.3-14.41-1-20.77,7.76-11.55,27.01-4.47,22.65,9.87Z"/>
          <path class="cls-1" d="M2324.44,1030.03s-.02.02-.04.03c-1.91,1.62-3.14,3.91-3.47,6.38-4.33,31.62-56.21,11.38-54.3,46.95-7.28-31.75,29.81-30,35.62-49.57.45-1.5.16-3.16-.92-4.31-2.99-3.18-9.13-.02-12.93-.08-8.87-10.66,13.47-22.92,22.91-14.46.93-2.86,1.62-5.86,1.15-8.74-.51-3.18-5.72-8.73-6.56-3.02-.98,6.65-10.75,3.88-9.78-2.7,1.91-12.9,19.35-12.75,24.29-2.26,10.3-6.27,19.24,6.06,8.66,8.47-.75.17-1.53.27-2.3.3-6.28.27-4.36,9.16-6.71,13.47,16.86-15.23,34.32,17.79,10.11,17.88-6.42-1.22-3.75-11.3,2.62-10.09-3.51-.66-5.1-.99-8.36,1.75Z"/>
          <path class="cls-1" d="M2288.25,1092.06c-.88.22-1.84.03-2.5-.58-1.94-1.78.89-3.75.14-7.46-1.76-8.68-18.27-1.84-19.11-.41.03-.57.1-.92.25-1.33,13.43-39.26,57.73-1.25,78.11-13.11,1.98-1.4-2.07-5.62-3.74-7.57.08-10.37,17.64-4,18.44,4.68.43-1.22.54-5.02-.05-6.91-.59-1.88-4.61-4.09-1.24-5.9,11.5-6.28,12.33,12.61,3.24,15.98,12.83-1.52,17.75,20.02,3.07,19.92-4.6-.23-6.84-6.04-3.15-9.27h-.11c-2.15,0-4.17,1.01-5.5,2.7-25.6,32.55-66.62-39.05-88.74-.89,18.71-27.88,43.31,4.66,20.89,10.16Z"/>
        </g>
        <g>
          <path class="cls-1" d="M2185.96,1112.77c-13.56-12.64-36.17-18.17-53.61-16.42-15.04.19-27.98,4.84-41.93,9.03-8.85,2.66-14.74,10.51-10.76,19.58,4.83,15.66,31.73,21.3,36.98,2.41,5.77-16.91-18.81-27.69-13.43-7.62,1.07,3.98-8.12,2.73-12.17-.46-1.65-1.31-2.09-5.75-.8-7.28,15.24-18.17,48.85-2.69,69.17,6.36-36.73-2.36-44.68,9.82-6.75,17.36-1.84,2.71-3.08,6.23-4.07,9.02,3.8-4.72,9.65-1.58,13.62-5.09.61-.58,1.07-1.3,1.37-2.07,4.42.61,9.05,1.09,13.79,1.4-5.64,3.51-9.98,11.08-8.52,18.38-7.07-3.74-10.75,8.91-2.84,9.81-2.05,3.24,1.32,8.23,5.2,7.32,1.19,7.4,11.86,3.95,9.71-2.62,15.78,3.63,10.17-9.11,6.14-17.49-1.96-5.72,4.99-11.76,9.11-15,3.75-.02,7.23-.05,10.52-.1-3.86,4.55-3.66,15.36-.09,20.84-2.21-11.23,11.44-11.64,11.63-21.2,14.92,1.07,44.18-15.2,30.44-32.53.45,1.07.7,1.7.88,2.66.1.55.16,1.12.18,1.68.03,1.13-.18,2.35-1.37,3.51-1.82,1.78-4.59,2.28-6.95,1.28-3.66-1.54-7.01-5.5-11.27-5.7-16.59-3.9-12.63,18.46.64,20.22-10.55-.66-33.2-1.44-34.9-15.58.2-2.06,2.84-4.36,4.37-2.27-2.31,3.63,2.05,9.68,7.01,7.36,15.83-13.17-17.88-29.9-21.3-6.8Z"/>
          <path class="cls-1" d="M2074.6,1123.9c-5.94-6.91-12.54-4.4-16.03,2.81-2.18-1.15-4.01.2-1.32,2.16-.22.37-.44.76-.66,1.14-2.91-2-3.81.36-1.09,1.94-.07.13-.15.28-.22.42-.83-.01-5.99-4.62-4.23-.67-3.52-.34-1.12,3.5,1.74,3.57.83.08.57.71-.42.57-1-.14-1.35.14-4.03-1.87-1.82-1.39-3.06-.66-2.22.76-4.14-3.26-5.17,1.71-1.41,2.99-1.81,1.84,1.39,4.01,4.18,2.68,2.19-.03-.82,2.18-4.14,1.17-2.85-.39-2.74,1.94-1.01,2.84-3.57,1.59,2.15,5.65,4.13,2.29,0,1.48-.62,2.88-2.8,3.88-2.21.99-1.75,2.71-.04,2.48-.95.27-.71,1.72.35,1.88-1.5,3.71-3.41,7.7-5.87,9.14,14.4-7.51,18.85-34.03,35.1-40.18Z"/>
          <path class="cls-1" d="M2256.25,1190.01c-1.98-8.08,7.76-2.67,10.91-1.88-21.03-29.36,15.42-31.62-.88-57.47-.5-.79-1.1-1.52-1.7-2.24-3.24-3.86-2.4-16.96-8.51-9.13-5.1,8.18-1.82,17.06-10.55,21.24-4.02,1.93-7.71,4.5-10.73,7.78-41.69,45.21,46.29,92.27,6.39,118.08,28.95,11.87,26.62-17.95,26.62-17.95,19.54-10.59,5.86-29.13,5.86-29.13,23.18-14.87-11.42-15.63-17.41-29.3Z"/>
          <path class="cls-1" d="M2035.32,1129.76c-1.95-6.41-11.73-3.73-9.78,2.7.42,1.38-.16,2.26-1.05,2.59-1.24.46-2.59-.39-2.87-1.68-7.02-31.79,62.35-3.46,64.25-34.25-7.42,19.31-28.92,3.19-42.88.69-21-6.52-53.01-3.29-35.94,9.92-21.28,2.33-25.05,32.9-4.64,27.29,1.17-.32,2.21-1.06,2.82-2.11,2.33-4.01-2.04-10.2-6.82-7.27,3.07-5.44,9.18-8.09,15.27-8.78-4.45,6.04-5.3,14.41-1,20.77,7.76,11.55,27.01,4.47,22.65-9.87Z"/>
          <path class="cls-1" d="M2324.44,1160.38s-.02-.02-.04-.03c-1.91-1.62-3.14-3.91-3.47-6.38-4.33-31.62-56.21-11.38-54.3-46.95-7.28,31.75,29.81,30,35.62,49.57.45,1.5.16,3.16-.92,4.31-2.99,3.18-9.13.02-12.93.08-8.87,10.66,13.47,22.92,22.91,14.46.93,2.86,1.62,5.86,1.15,8.74-.51,3.18-5.72,8.73-6.56,3.02-.98-6.65-10.75-3.88-9.78,2.7,1.91,12.9,19.35,12.75,24.29,2.26,10.3,6.27,19.24-6.06,8.66-8.47-.75-.17-1.53-.27-2.3-.3-6.28-.27-4.36-9.16-6.71-13.47,16.86,15.23,34.32-17.79,10.11-17.88-6.42,1.22-3.75,11.3,2.62,10.09-3.51.66-5.1.99-8.36-1.75Z"/>
          <path class="cls-1" d="M2288.25,1098.36c-.88-.22-1.84-.03-2.5.58-1.94,1.78.89,3.75.14,7.46-1.76,8.68-18.27,1.84-19.11.41.03.57.1.92.25,1.33,13.43,39.26,57.73,1.25,78.11,13.11,1.98,1.4-2.07,5.62-3.74,7.57.08,10.37,17.64,4,18.44-4.68.43,1.22.54,5.02-.05,6.91-.59,1.88-4.61,4.09-1.24,5.9,11.5,6.28,12.33-12.61,3.24-15.98,12.83,1.52,17.75-20.02,3.07-19.92-4.6.23-6.84,6.04-3.15,9.27h-.11c-2.15,0-4.17-1.01-5.5-2.7-25.6-32.55-66.62,39.05-88.74.89,18.71,27.88,43.31-4.66,20.89-10.16Z"/>
        </g>
      </g>
    </g>
    <g>
      <g>
        <g>
          <path class="cls-1" d="M2551.22,1077.65c13.56,12.64,36.17,18.17,53.61,16.42,15.04-.19,27.98-4.84,41.93-9.03,8.85-2.66,14.74-10.51,10.76-19.58-4.83-15.66-31.73-21.3-36.98-2.41-5.77,16.91,18.81,27.69,13.43,7.62-1.07-3.98,8.12-2.73,12.17.46,1.65,1.31,2.09,5.75.8,7.28-15.24,18.17-48.85,2.69-69.17-6.36,36.73,2.36,44.68-9.82,6.75-17.36,1.84-2.71,3.08-6.23,4.07-9.02-3.8,4.72-9.65,1.58-13.62,5.09-.61.58-1.07,1.3-1.37,2.07-4.42-.61-9.05-1.09-13.79-1.4,5.64-3.51,9.98-11.08,8.52-18.38,7.07,3.74,10.75-8.91,2.84-9.81,2.05-3.24-1.32-8.23-5.2-7.32-1.19-7.4-11.86-3.95-9.71,2.62-15.78-3.63-10.17,9.11-6.14,17.49,1.96,5.72-4.99,11.76-9.11,15-3.75.02-7.23.05-10.52.1,3.86-4.55,3.66-15.36.09-20.84,2.21,11.23-11.44,11.64-11.63,21.2-14.92-1.07-44.18,15.2-30.44,32.53-.45-1.07-.7-1.7-.88-2.66-.1-.55-.16-1.12-.18-1.68-.03-1.13.18-2.35,1.37-3.51,1.82-1.78,4.59-2.28,6.95-1.28,3.66,1.54,7.01,5.5,11.27,5.7,16.59,3.9,12.63-18.46-.64-20.22,10.55.66,33.2,1.44,34.9,15.58-.2,2.06-2.83,4.36-4.37,2.27,2.31-3.63-2.05-9.68-7.01-7.36-15.83,13.17,17.88,29.9,21.3,6.8Z"/>
          <path class="cls-1" d="M2698.2,1026.07c-.18.08-.35.17-.53.27.17-.09.35-.18.53-.27Z"/>
          <path class="cls-1" d="M2662.58,1066.52c5.94,6.91,12.54,4.4,16.03-2.81,2.18,1.15,4.01-.2,1.32-2.16.22-.37.44-.76.66-1.14,2.91,2,3.81-.36,1.09-1.94.07-.13.15-.28.22-.42.83.01,5.99,4.62,4.23.67,3.52.34,1.12-3.5-1.74-3.57-.83-.08-.57-.71.42-.57,1,.14,1.35-.14,4.03,1.87,1.82,1.39,3.06.66,2.22-.76,4.14,3.26,5.17-1.71,1.41-2.99,1.81-1.84-1.39-4.01-4.18-2.68-2.19.03.82-2.18,4.14-1.17,2.85.39,2.74-1.94,1.01-2.84,3.57-1.59-2.15-5.65-4.13-2.29,0-1.48.62-2.88,2.8-3.88,2.21-.99,1.75-2.71.04-2.48.95-.27.71-1.72-.35-1.88,1.5-3.71,3.41-7.7,5.87-9.14-14.4,7.51-18.85,34.03-35.1,40.18Z"/>
          <path class="cls-1" d="M2480.92,1000.41c1.98,8.08-7.76,2.67-10.91,1.88,21.03,29.36-15.42,31.62.88,57.47.5.79,1.1,1.52,1.7,2.24,3.24,3.86,2.4,16.96,8.51,9.13,5.1-8.18,1.82-17.06,10.55-21.24,4.02-1.93,7.71-4.5,10.73-7.78,41.69-45.21-46.29-92.27-6.39-118.08-28.95-11.87-26.62,17.95-26.62,17.95-19.54,10.59-5.86,29.13-5.86,29.13-23.18,14.87,11.42,15.63,17.41,29.3Z"/>
          <path class="cls-1" d="M2701.85,1060.66c1.95,6.41,11.73,3.73,9.78-2.7-.42-1.38.16-2.26,1.05-2.59,1.24-.46,2.59.39,2.87,1.68,7.02,31.79-62.35,3.46-64.25,34.25,7.42-19.31,28.92-3.19,42.88-.69,21,6.52,53.01,3.29,35.94-9.92,21.28-2.33,25.05-32.9,4.64-27.29-1.17.32-2.21,1.06-2.82,2.11-2.33,4.01,2.04,10.2,6.82,7.27-3.07,5.44-9.18,8.09-15.27,8.78,4.45-6.04,5.3-14.41,1-20.77-7.76-11.55-27.01-4.47-22.65,9.87Z"/>
          <path class="cls-1" d="M2412.74,1030.03s.02.02.04.03c1.91,1.62,3.14,3.91,3.47,6.38,4.33,31.62,56.21,11.38,54.3,46.95,7.28-31.75-29.81-30-35.62-49.57-.45-1.5-.16-3.16.92-4.31,2.99-3.18,9.13-.02,12.93-.08,8.87-10.66-13.47-22.92-22.91-14.46-.93-2.86-1.62-5.86-1.15-8.74.51-3.18,5.72-8.73,6.56-3.02.98,6.65,10.75,3.88,9.78-2.7-1.91-12.9-19.35-12.75-24.3-2.26-10.3-6.27-19.24,6.06-8.66,8.47.75.17,1.53.27,2.3.3,6.28.27,4.36,9.16,6.71,13.47-16.86-15.23-34.32,17.79-10.11,17.88,6.42-1.22,3.75-11.3-2.62-10.09,3.51-.66,5.1-.99,8.36,1.75Z"/>
          <path class="cls-1" d="M2448.93,1092.06c.88.22,1.84.03,2.5-.58,1.94-1.78-.89-3.75-.14-7.46,1.76-8.68,18.27-1.84,19.11-.41-.03-.57-.1-.92-.25-1.33-13.43-39.26-57.73-1.25-78.11-13.11-1.98-1.4,2.07-5.62,3.74-7.57-.08-10.37-17.64-4-18.44,4.68-.43-1.22-.54-5.02.05-6.91.59-1.88,4.61-4.09,1.24-5.9-11.5-6.28-12.33,12.61-3.24,15.98-12.83-1.52-17.75,20.02-3.07,19.92,4.6-.23,6.84-6.04,3.15-9.27h.11c2.15,0,4.17,1.01,5.5,2.7,25.6,32.55,66.62-39.05,88.74-.89-18.71-27.88-43.31,4.66-20.89,10.16Z"/>
        </g>
        <g>
          <path class="cls-1" d="M2551.22,1112.77c13.56-12.64,36.17-18.17,53.61-16.42,15.04.19,27.98,4.84,41.93,9.03,8.85,2.66,14.74,10.51,10.76,19.58-4.83,15.66-31.73,21.3-36.98,2.41-5.77-16.91,18.81-27.69,13.43-7.62-1.07,3.98,8.12,2.73,12.17-.46,1.65-1.31,2.09-5.75.8-7.28-15.24-18.17-48.85-2.69-69.17,6.36,36.73-2.36,44.68,9.82,6.75,17.36,1.84,2.71,3.08,6.23,4.07,9.02-3.8-4.72-9.65-1.58-13.62-5.09-.61-.58-1.07-1.3-1.37-2.07-4.42.61-9.05,1.09-13.79,1.4,5.64,3.51,9.98,11.08,8.52,18.38,7.07-3.74,10.75,8.91,2.84,9.81,2.05,3.24-1.32,8.23-5.2,7.32-1.19,7.4-11.86,3.95-9.71-2.62-15.78,3.63-10.17-9.11-6.14-17.49,1.96-5.72-4.99-11.76-9.11-15-3.75-.02-7.23-.05-10.52-.1,3.86,4.55,3.66,15.36.09,20.84,2.21-11.23-11.44-11.64-11.63-21.2-14.92,1.07-44.18-15.2-30.44-32.53-.45,1.07-.7,1.7-.88,2.66-.1.55-.16,1.12-.18,1.68-.03,1.13.18,2.35,1.37,3.51,1.82,1.78,4.59,2.28,6.95,1.28,3.66-1.54,7.01-5.5,11.27-5.7,16.59-3.9,12.63,18.46-.64,20.22,10.55-.66,33.2-1.44,34.9-15.58-.2-2.06-2.83-4.36-4.37-2.27,2.31,3.63-2.05,9.68-7.01,7.36-15.83-13.17,17.88-29.9,21.3-6.8Z"/>
          <path class="cls-1" d="M2662.58,1123.9c5.94-6.91,12.54-4.4,16.03,2.81,2.18-1.15,4.01.2,1.32,2.16.22.37.44.76.66,1.14,2.91-2,3.81.36,1.09,1.94.07.13.15.28.22.42.83-.01,5.99-4.62,4.23-.67,3.52-.34,1.12,3.5-1.74,3.57-.83.08-.57.71.42.57,1-.14,1.35.14,4.03-1.87,1.82-1.39,3.06-.66,2.22.76,4.14-3.26,5.17,1.71,1.41,2.99,1.81,1.84-1.39,4.01-4.18,2.68-2.19-.03.82,2.18,4.14,1.17,2.85-.39,2.74,1.94,1.01,2.84,3.57,1.59-2.15,5.65-4.13,2.29,0,1.48.62,2.88,2.8,3.88,2.21.99,1.75,2.71.04,2.48.95.27.71,1.72-.35,1.88,1.5,3.71,3.41,7.7,5.87,9.14-14.4-7.51-18.85-34.03-35.1-40.18Z"/>
          <path class="cls-1" d="M2480.92,1190.01c1.98-8.08-7.76-2.67-10.91-1.88,21.03-29.36-15.42-31.62.88-57.47.5-.79,1.1-1.52,1.7-2.24,3.24-3.86,2.4-16.96,8.51-9.13,5.1,8.18,1.82,17.06,10.55,21.24,4.02,1.93,7.71,4.5,10.73,7.78,41.69,45.21-46.29,92.27-6.39,118.08-28.95,11.87-26.62-17.95-26.62-17.95-19.54-10.59-5.86-29.13-5.86-29.13-23.18-14.87,11.42-15.63,17.41-29.3Z"/>
          <path class="cls-1" d="M2701.85,1129.76c1.95-6.41,11.73-3.73,9.78,2.7-.42,1.38.16,2.26,1.05,2.59,1.24.46,2.59-.39,2.87-1.68,7.02-31.79-62.35-3.46-64.25-34.25,7.42,19.31,28.92,3.19,42.88.69,21-6.52,53.01-3.29,35.94,9.92,21.28,2.33,25.05,32.9,4.64,27.29-1.17-.32-2.21-1.06-2.82-2.11-2.33-4.01,2.04-10.2,6.82-7.27-3.07-5.44-9.18-8.09-15.27-8.78,4.45,6.04,5.3,14.41,1,20.77-7.76,11.55-27.01,4.47-22.65-9.87Z"/>
          <path class="cls-1" d="M2412.74,1160.38s.02-.02.04-.03c1.91-1.62,3.14-3.91,3.47-6.38,4.33-31.62,56.21-11.38,54.3-46.95,7.28,31.75-29.81,30-35.62,49.57-.45,1.5-.16,3.16.92,4.31,2.99,3.18,9.13.02,12.93.08,8.87,10.66-13.47,22.92-22.91,14.46-.93,2.86-1.62,5.86-1.15,8.74.51,3.18,5.72,8.73,6.56,3.02.98-6.65,10.75-3.88,9.78,2.7-1.91,12.9-19.35,12.75-24.3,2.26-10.3,6.27-19.24-6.06-8.66-8.47.75-.17,1.53-.27,2.3-.3,6.28-.27,4.36-9.16,6.71-13.47-16.86,15.23-34.32-17.79-10.11-17.88,6.42,1.22,3.75,11.3-2.62,10.09,3.51.66,5.1.99,8.36-1.75Z"/>
          <path class="cls-1" d="M2448.93,1098.36c.88-.22,1.84-.03,2.5.58,1.94,1.78-.89,3.75-.14,7.46,1.76,8.68,18.27,1.84,19.11.41-.03.57-.1.92-.25,1.33-13.43,39.26-57.73,1.25-78.11,13.11-1.98,1.4,2.07,5.62,3.74,7.57-.08,10.37-17.64,4-18.44-4.68-.43,1.22-.54,5.02.05,6.91.59,1.88,4.61,4.09,1.24,5.9-11.5,6.28-12.33-12.61-3.24-15.98-12.83,1.52-17.75-20.02-3.07-19.92,4.6.23,6.84,6.04,3.15,9.27h.11c2.15,0,4.17-1.01,5.5-2.7,25.6-32.55,66.62,39.05,88.74.89-18.71,27.88-43.31-4.66-20.89-10.16Z"/>
        </g>
      </g>
      <g>
        <g>
          <path class="cls-1" d="M2935.09,1077.65c-13.56,12.64-36.17,18.17-53.61,16.42-15.04-.19-27.98-4.84-41.93-9.03-8.85-2.66-14.74-10.51-10.76-19.58,4.83-15.66,31.73-21.3,36.98-2.41,5.77,16.91-18.81,27.69-13.43,7.62,1.07-3.98-8.12-2.73-12.17.46-1.65,1.31-2.09,5.75-.8,7.28,15.24,18.17,48.85,2.69,69.17-6.36-36.73,2.36-44.68-9.82-6.75-17.36-1.84-2.71-3.08-6.23-4.07-9.02,3.8,4.72,9.65,1.58,13.62,5.09.61.58,1.07,1.3,1.37,2.07,4.42-.61,9.05-1.09,13.79-1.4-5.64-3.51-9.98-11.08-8.52-18.38-7.07,3.74-10.75-8.91-2.84-9.81-2.05-3.24,1.32-8.23,5.2-7.32,1.19-7.4,11.86-3.95,9.71,2.62,15.78-3.63,10.17,9.11,6.14,17.49-1.96,5.72,4.99,11.76,9.11,15,3.75.02,7.23.05,10.52.1-3.86-4.55-3.66-15.36-.09-20.84-2.21,11.23,11.44,11.64,11.63,21.2,14.92-1.07,44.18,15.2,30.44,32.53.45-1.07.7-1.7.88-2.66.1-.55.16-1.12.18-1.68.03-1.13-.18-2.35-1.37-3.51-1.82-1.78-4.59-2.28-6.95-1.28-3.66,1.54-7.01,5.5-11.27,5.7-16.59,3.9-12.63-18.46.64-20.22-10.55.66-33.2,1.44-34.9,15.58.2,2.06,2.84,4.36,4.37,2.27-2.31-3.63,2.05-9.68,7.01-7.36,15.83,13.17-17.88,29.9-21.3,6.8Z"/>
          <path class="cls-1" d="M2788.11,1026.07c.18.08.35.17.52.27-.17-.09-.35-.18-.52-.27Z"/>
          <path class="cls-1" d="M2823.73,1066.52c-5.94,6.91-12.54,4.4-16.03-2.81-2.18,1.15-4.01-.2-1.32-2.16-.22-.37-.44-.76-.66-1.14-2.91,2-3.81-.36-1.09-1.94-.07-.13-.15-.28-.22-.42-.83.01-5.99,4.62-4.23.67-3.52.34-1.12-3.5,1.74-3.57.83-.08.57-.71-.42-.57-1,.14-1.35-.14-4.03,1.87-1.82,1.39-3.06.66-2.22-.76-4.14,3.26-5.17-1.71-1.41-2.99-1.81-1.84,1.39-4.01,4.18-2.68,2.19.03-.82-2.18-4.14-1.17-2.85.39-2.74-1.94-1.01-2.84-3.57-1.59,2.15-5.65,4.13-2.29,0-1.48-.62-2.88-2.8-3.88-2.21-.99-1.75-2.71-.04-2.48-.95-.27-.71-1.72.35-1.88-1.5-3.71-3.41-7.7-5.87-9.14,14.4,7.51,18.85,34.03,35.1,40.18Z"/>
          <path class="cls-1" d="M3005.39,1000.41c-1.98,8.08,7.76,2.67,10.91,1.88-21.03,29.36,15.42,31.62-.88,57.47-.5.79-1.1,1.52-1.7,2.24-3.24,3.86-2.4,16.96-8.51,9.13-5.1-8.18-1.82-17.06-10.55-21.24-4.02-1.93-7.71-4.5-10.73-7.78-41.69-45.21,46.29-92.27,6.39-118.08,28.95-11.87,26.62,17.95,26.62,17.95,19.54,10.59,5.86,29.13,5.86,29.13,23.18,14.87-11.42,15.63-17.41,29.3Z"/>
          <path class="cls-1" d="M2784.46,1060.66c-1.95,6.41-11.73,3.73-9.78-2.7.42-1.38-.16-2.26-1.05-2.59-1.24-.46-2.59.39-2.87,1.68-7.02,31.79,62.35,3.46,64.25,34.25-7.42-19.31-28.92-3.19-42.88-.69-21,6.52-53.01,3.29-35.94-9.92-21.28-2.33-25.05-32.9-4.64-27.29,1.17.32,2.21,1.06,2.82,2.11,2.33,4.01-2.04,10.2-6.82,7.27,3.07,5.44,9.18,8.09,15.27,8.78-4.45-6.04-5.3-14.41-1-20.77,7.76-11.55,27.01-4.47,22.65,9.87Z"/>
          <path class="cls-1" d="M3073.57,1030.03s-.02.02-.04.03c-1.91,1.62-3.14,3.91-3.47,6.38-4.33,31.62-56.21,11.38-54.3,46.95-7.28-31.75,29.81-30,35.62-49.57.45-1.5.16-3.16-.92-4.31-2.99-3.18-9.13-.02-12.93-.08-8.87-10.66,13.47-22.92,22.91-14.46.93-2.86,1.62-5.86,1.15-8.74-.51-3.18-5.72-8.73-6.56-3.02-.98,6.65-10.75,3.88-9.78-2.7,1.91-12.9,19.35-12.75,24.3-2.26,10.3-6.27,19.24,6.06,8.66,8.47-.75.17-1.53.27-2.3.3-6.28.27-4.36,9.16-6.71,13.47,16.86-15.23,34.32,17.79,10.11,17.88-6.42-1.22-3.75-11.3,2.62-10.09-3.51-.66-5.1-.99-8.36,1.75Z"/>
          <path class="cls-1" d="M3037.38,1092.06c-.88.22-1.84.03-2.5-.58-1.94-1.78.89-3.75.14-7.46-1.76-8.68-18.27-1.84-19.11-.41.03-.57.1-.92.25-1.33,13.43-39.26,57.73-1.25,78.11-13.11,1.98-1.4-2.07-5.62-3.74-7.57.08-10.37,17.64-4,18.44,4.68.43-1.22.54-5.02-.05-6.91-.59-1.88-4.61-4.09-1.24-5.9,11.5-6.28,12.33,12.61,3.24,15.98,12.83-1.52,17.75,20.02,3.07,19.92-4.6-.23-6.84-6.04-3.15-9.27h-.11c-2.15,0-4.17,1.01-5.5,2.7-25.6,32.55-66.62-39.05-88.74-.89,18.71-27.88,43.31,4.66,20.89,10.16Z"/>
        </g>
        <g>
          <path class="cls-1" d="M2935.09,1112.77c-13.56-12.64-36.17-18.17-53.61-16.42-15.04.19-27.98,4.84-41.93,9.03-8.85,2.66-14.74,10.51-10.76,19.58,4.83,15.66,31.73,21.3,36.98,2.41,5.77-16.91-18.81-27.69-13.43-7.62,1.07,3.98-8.12,2.73-12.17-.46-1.65-1.31-2.09-5.75-.8-7.28,15.24-18.17,48.85-2.69,69.17,6.36-36.73-2.36-44.68,9.82-6.75,17.36-1.84,2.71-3.08,6.23-4.07,9.02,3.8-4.72,9.65-1.58,13.62-5.09.61-.58,1.07-1.3,1.37-2.07,4.42.61,9.05,1.09,13.79,1.4-5.64,3.51-9.98,11.08-8.52,18.38-7.07-3.74-10.75,8.91-2.84,9.81-2.05,3.24,1.32,8.23,5.2,7.32,1.19,7.4,11.86,3.95,9.71-2.62,15.78,3.63,10.17-9.11,6.14-17.49-1.96-5.72,4.99-11.76,9.11-15,3.75-.02,7.23-.05,10.52-.1-3.86,4.55-3.66,15.36-.09,20.84-2.21-11.23,11.44-11.64,11.63-21.2,14.92,1.07,44.18-15.2,30.44-32.53.45,1.07.7,1.7.88,2.66.1.55.16,1.12.18,1.68.03,1.13-.18,2.35-1.37,3.51-1.82,1.78-4.59,2.28-6.95,1.28-3.66-1.54-7.01-5.5-11.27-5.7-16.59-3.9-12.63,18.46.64,20.22-10.55-.66-33.2-1.44-34.9-15.58.2-2.06,2.84-4.36,4.37-2.27-2.31,3.63,2.05,9.68,7.01,7.36,15.83-13.17-17.88-29.9-21.3-6.8Z"/>
          <path class="cls-1" d="M2823.73,1123.9c-5.94-6.91-12.54-4.4-16.03,2.81-2.18-1.15-4.01.2-1.32,2.16-.22.37-.44.76-.66,1.14-2.91-2-3.81.36-1.09,1.94-.07.13-.15.28-.22.42-.83-.01-5.99-4.62-4.23-.67-3.52-.34-1.12,3.5,1.74,3.57.83.08.57.71-.42.57-1-.14-1.35.14-4.03-1.87-1.82-1.39-3.06-.66-2.22.76-4.14-3.26-5.17,1.71-1.41,2.99-1.81,1.84,1.39,4.01,4.18,2.68,2.19-.03-.82,2.18-4.14,1.17-2.85-.39-2.74,1.94-1.01,2.84-3.57,1.59,2.15,5.65,4.13,2.29,0,1.48-.62,2.88-2.8,3.88-2.21.99-1.75,2.71-.04,2.48-.95.27-.71,1.72.35,1.88-1.5,3.71-3.41,7.7-5.87,9.14,14.4-7.51,18.85-34.03,35.1-40.18Z"/>
          <path class="cls-1" d="M3005.39,1190.01c-1.98-8.08,7.76-2.67,10.91-1.88-21.03-29.36,15.42-31.62-.88-57.47-.5-.79-1.1-1.52-1.7-2.24-3.24-3.86-2.4-16.96-8.51-9.13-5.1,8.18-1.82,17.06-10.55,21.24-4.02,1.93-7.71,4.5-10.73,7.78-41.69,45.21,46.29,92.27,6.39,118.08,28.95,11.87,26.62-17.95,26.62-17.95,19.54-10.59,5.86-29.13,5.86-29.13,23.18-14.87-11.42-15.63-17.41-29.3Z"/>
          <path class="cls-1" d="M2784.46,1129.76c-1.95-6.41-11.73-3.73-9.78,2.7.42,1.38-.16,2.26-1.05,2.59-1.24.46-2.59-.39-2.87-1.68-7.02-31.79,62.35-3.46,64.25-34.25-7.42,19.31-28.92,3.19-42.88.69-21-6.52-53.01-3.29-35.94,9.92-21.28,2.33-25.05,32.9-4.64,27.29,1.17-.32,2.21-1.06,2.82-2.11,2.33-4.01-2.04-10.2-6.82-7.27,3.07-5.44,9.18-8.09,15.27-8.78-4.45,6.04-5.3,14.41-1,20.77,7.76,11.55,27.01,4.47,22.65-9.87Z"/>
          <path class="cls-1" d="M3073.57,1160.38s-.02-.02-.04-.03c-1.91-1.62-3.14-3.91-3.47-6.38-4.33-31.62-56.21-11.38-54.3-46.95-7.28,31.75,29.81,30,35.62,49.57.45,1.5.16,3.16-.92,4.31-2.99,3.18-9.13.02-12.93.08-8.87,10.66,13.47,22.92,22.91,14.46.93,2.86,1.62,5.86,1.15,8.74-.51,3.18-5.72,8.73-6.56,3.02-.98-6.65-10.75-3.88-9.78,2.7,1.91,12.9,19.35,12.75,24.3,2.26,10.3,6.27,19.24-6.06,8.66-8.47-.75-.17-1.53-.27-2.3-.3-6.28-.27-4.36-9.16-6.71-13.47,16.86,15.23,34.32-17.79,10.11-17.88-6.42,1.22-3.75,11.3,2.62,10.09-3.51.66-5.1.99-8.36-1.75Z"/>
          <path class="cls-1" d="M3037.38,1098.36c-.88-.22-1.84-.03-2.5.58-1.94,1.78.89,3.75.14,7.46-1.76,8.68-18.27,1.84-19.11.41.03.57.1.92.25,1.33,13.43,39.26,57.73,1.25,78.11,13.11,1.98,1.4-2.07,5.62-3.74,7.57.08,10.37,17.64,4,18.44-4.68.43,1.22.54,5.02-.05,6.91-.59,1.88-4.61,4.09-1.24,5.9,11.5,6.28,12.33-12.61,3.24-15.98,12.83,1.52,17.75-20.02,3.07-19.92-4.6.23-6.84,6.04-3.15,9.27h-.11c-2.15,0-4.17-1.01-5.5-2.7-25.6-32.55-66.62,39.05-88.74.89,18.71,27.88,43.31-4.66,20.89-10.16Z"/>
        </g>
      </g>
    </g>
  </g>
</svg>
