<svg xmlns="http://www.w3.org/2000/svg" xmlns:xlink="http://www.w3.org/1999/xlink" viewBox="112.12 1319.85 3019.89 195.33">
<defs>
    <style>
      .cls-1 {
        fill: currentColor;
      }
    </style>
  </defs>
<g>
    <g>
      <path class="cls-1" d="M378.84,1439.03c16.98,13.83,31.94-11.69,15.47-21.85,16.46-10.15,1.51-35.68-15.47-21.85-5.47,4.68,2.56,12.4,8,7.75-10.06,8.6-14.33,2.64-23.74-2.98-12.91-7.84-26.73-15.24-42.15-16.7-1.5-.98-2.61-2.4-2.94-4.42-.59-3.66,3.71-6.88,5.66-2.71,3.01,6.42,12.75.84,9.76-5.53-8.19-16.6-32.68-2.08-25.93,12.95-5.62.84-11.24,2.44-16.01,5.51-6.14,1.68-16.89-10.42-10.98-11.09,1.96-.22,3.71,1.08,4.36,2.94.59,1.7,2.18,2.66,3.97,2.88,4.1.5,7.47-3.17,6.95-7.26-3.76-29.95-51.55,3.04-14.66,21.33-5.06,5.3-13.78,13.35-16.17,7.11-.41-1.07-.95-2.09-1.71-2.95-7.45-8.41-15.72,8.78-1.82,15.04-13.97,6.38-5.55,23.4,1.82,15.06.76-.86,1.3-1.89,1.71-2.97,2.38-6.24,11.11,1.81,16.17,7.11-36.88,18.26,10.88,51.29,14.65,21.33.52-4.09-2.85-7.77-6.95-7.26-1.79.22-3.37,1.18-3.97,2.88-.65,1.86-2.4,3.16-4.36,2.94-5.9-.67,4.85-12.78,10.98-11.09,4.77,3.08,10.39,4.67,16.01,5.51-6.76,15.03,17.75,29.54,25.93,12.95,2.98-6.37-6.76-11.95-9.76-5.53-1.95,4.17-6.25.95-5.66-2.71,4.38-8.1,18.18-6.05,26.91-10.77,1.76-.95,3.53-1.86,5.36-2.67,12.59-5.53,23.49-22.12,36.56-10.67-5.44-4.65-13.47,3.07-8,7.75ZM372.13,1417.18c-6.24,2.04-10.84,5.22-16.23,8.41-4.43-1.81-11.82,7.78-13.25-1.33-5.31-13.42-17.75.15-7.04,10.06-4.15,1.97-40.08,3.48-24.6-4.19,2.67,6.47,13.61,3.65,10.9-2.91-4.7-15.94-29.99-10.59-26.73,5.8-6.99-4.77-12.8-13.48-21.73-15.84,8.93-2.36,14.74-11.06,21.73-15.84-3.25,16.39,22.03,21.75,26.74,5.8,2.71-6.56-8.23-9.38-10.9-2.91-15.51-7.68,20.52-6.15,24.6-4.19-10.71,9.88,1.72,23.48,7.04,10.06,1.42-9.1,8.84.48,13.25-1.33,2.64,1.59,5.28,3.19,7.94,4.72,2.38,1.37,5.24,2.65,8.3,3.69Z"/>
      <path class="cls-1" d="M250.3,1412.22c3.41,0,5.2,2.4,5.42,4.95h0c.09,6.41-10.91,6.42-10.84.02h0c.21-2.56,2-4.97,5.42-4.97Z"/>
      <path class="cls-1" d="M207.69,1397.06c2.71-2.99.17-8.78-4.71-7.49-1.07-2.05-2.75-4.82-.81-6.92.49-.53,2.56-1.56,2.65-.04.34,5.85,9.76,5.87,9.42,0-1.6-16.39-25.96-9.7-21.96,4.93-22.02-16.54,3.98-55.79,21.42-27.4,5.63,16.89,10.4-9.46-1.83-17.44-25.82-16.85-56.53,23.61-43.31,46.38-3.23.1-5.91.24-9.64,1.7,4.26-.02,6.46,1.14,8.67,3,4.02,3.37,8.4,6.31,13.14,8.57,5.46,2.6,11.22,4.82,17.14,6.14,6.05,1.36,12.22.24,18.29-.36,5.84-.58,10.84,1.57,15.58,5.01-3.02-.81-5.7,1.49-5.72,4.04.04,2.55,2.71,4.83,5.72,4.02-5.33,4.3-13.1,5.43-22.61,4.16-10.07-1.34-19.4,2.34-28.38,6.62-4.75,2.26-9.12,5.2-13.15,8.58-2.22,1.86-4.42,3.02-8.67,3,3.73,1.47,6.41,1.61,9.64,1.7-13.22,22.77,17.95,63.92,43.31,46.38,7.64-5.35,10.66-16.8,6.44-21.45-.84-.93-2.36-.66-2.85.49-13.85,32.81-47.56-2.82-23.18-23.88-4,14.63,20.35,21.32,21.95,4.93.34-5.87-9.08-5.85-9.42,0-.09,1.51-2.16.48-2.65-.04-1.94-2.1-.25-4.87.82-6.92,4.87,1.29,7.41-4.5,4.7-7.49,6.64-2.54,15.48-4.11,22.35-8.22,5.88.69,15.06-5.54,14.41-11.91.63-6.37-8.54-12.58-14.42-11.89-6.86-4.11-15.7-5.68-22.34-8.22ZM226.4,1428.86s.01,0,.02,0c-18.1,4.44-38.33,4.79-49.29,22.52,8.16-17.5,27.8-22.14,44.77-22.78,1.51-.06,3.01.06,4.5.26ZM226.42,1405.5c-18.08.96-40.36-3.81-49.29-22.51,6.17,9.75,16.98,15.58,27.28,18.05,7.16,1.8,14.71,1.98,22.01,4.46Z"/>
      <path class="cls-1" d="M156.34,1385.57c-13.33-9.22-20.45,18.89-8.68,25.98-6.74-.27-12.29-3.58-17.49-7.21,5.17,2.56,9.76-4.57,5.38-7.53-.33-.22-.7-.39-1.07-.53-16.36-5.86-15.6,17.65-1.98,20.89-13.61,3.23-14.37,26.75,1.98,20.89.38-.14.74-.3,1.07-.53,4.38-2.95-.21-10.09-5.38-7.52,5.2-3.63,10.75-6.94,17.49-7.21-11.78,7.08-4.65,35.2,8.68,25.98-3.45-16.8,14.1-25.88,29.05-28.19,5.93,7.17,17.36-.91,23.28-3.41,0,0-.01,0-.02,0,0,0,.02,0,.02,0-5.94-2.5-17.34-10.59-23.29-3.41-10.93-2.14-24.05-6.62-28.41-17.31-1.74-3.33-.04-7.48-.64-10.88Z"/>
    </g>
    <g>
      <path class="cls-1" d="M650.36,1439.03c16.98,13.83,31.94-11.69,15.47-21.85,16.46-10.15,1.51-35.68-15.47-21.85-5.47,4.68,2.56,12.4,8,7.75-10.06,8.6-14.33,2.64-23.74-2.98-12.91-7.84-26.73-15.24-42.15-16.7-1.5-.98-2.61-2.4-2.94-4.42-.59-3.66,3.71-6.88,5.66-2.71,3.01,6.42,12.75.84,9.76-5.53-8.19-16.6-32.68-2.08-25.93,12.95-5.62.84-11.24,2.44-16.01,5.51-6.14,1.68-16.89-10.42-10.98-11.09,1.96-.22,3.71,1.08,4.36,2.94.59,1.7,2.18,2.66,3.97,2.88,4.1.5,7.47-3.17,6.95-7.26-3.76-29.95-51.55,3.04-14.66,21.33-5.06,5.3-13.78,13.35-16.17,7.11-.41-1.07-.95-2.09-1.71-2.95-7.45-8.41-15.72,8.78-1.82,15.04-13.97,6.38-5.55,23.4,1.82,15.06.76-.86,1.3-1.89,1.71-2.97,2.38-6.24,11.11,1.81,16.17,7.11-36.88,18.26,10.88,51.29,14.65,21.33.52-4.09-2.85-7.77-6.95-7.26-1.79.22-3.37,1.18-3.97,2.88-.65,1.86-2.4,3.16-4.36,2.94-5.9-.67,4.85-12.78,10.98-11.09,4.77,3.08,10.39,4.67,16.01,5.51-6.76,15.03,17.75,29.54,25.93,12.95,2.98-6.37-6.76-11.95-9.76-5.53-1.95,4.17-6.25.95-5.66-2.71,4.38-8.1,18.18-6.05,26.91-10.77,1.76-.95,3.53-1.86,5.36-2.67,12.59-5.53,23.49-22.12,36.56-10.67-5.44-4.65-13.47,3.07-8,7.75ZM643.65,1417.18c-6.24,2.04-10.84,5.22-16.23,8.41-4.43-1.81-11.82,7.78-13.25-1.33-5.31-13.42-17.75.15-7.04,10.06-4.15,1.97-40.08,3.48-24.6-4.19,2.67,6.47,13.61,3.65,10.9-2.91-4.7-15.94-29.99-10.59-26.73,5.8-6.99-4.77-12.8-13.48-21.73-15.84,8.93-2.36,14.74-11.06,21.73-15.84-3.25,16.39,22.03,21.75,26.74,5.8,2.71-6.56-8.23-9.38-10.9-2.91-15.51-7.68,20.52-6.15,24.6-4.19-10.71,9.88,1.72,23.48,7.04,10.06,1.42-9.1,8.84.48,13.25-1.33,2.64,1.59,5.28,3.19,7.94,4.72,2.38,1.37,5.24,2.65,8.3,3.69Z"/>
      <path class="cls-1" d="M521.83,1412.22c3.41,0,5.2,2.4,5.42,4.95h0c.09,6.41-10.91,6.42-10.84.02h0c.21-2.56,2-4.97,5.42-4.97Z"/>
      <path class="cls-1" d="M479.22,1397.06c2.71-2.99.17-8.78-4.71-7.49-1.07-2.05-2.75-4.82-.81-6.92.49-.53,2.56-1.56,2.65-.04.34,5.85,9.76,5.87,9.42,0-1.6-16.39-25.96-9.7-21.96,4.93-22.02-16.54,3.98-55.79,21.42-27.4,5.63,16.89,10.4-9.46-1.83-17.44-25.82-16.85-56.53,23.61-43.31,46.38-3.23.1-5.91.24-9.64,1.7,4.26-.02,6.46,1.14,8.67,3,4.02,3.37,8.4,6.31,13.14,8.57,5.46,2.6,11.22,4.82,17.14,6.14,6.05,1.36,12.22.24,18.29-.36,5.84-.58,10.84,1.57,15.58,5.01-3.02-.81-5.7,1.49-5.72,4.04.04,2.55,2.71,4.83,5.72,4.02-5.33,4.3-13.1,5.43-22.61,4.16-10.07-1.34-19.4,2.34-28.38,6.62-4.75,2.26-9.12,5.2-13.15,8.58-2.22,1.86-4.42,3.02-8.67,3,3.73,1.47,6.41,1.61,9.64,1.7-13.22,22.77,17.95,63.92,43.31,46.38,7.64-5.35,10.66-16.8,6.44-21.45-.84-.93-2.36-.66-2.85.49-13.85,32.81-47.56-2.82-23.18-23.88-4,14.63,20.35,21.32,21.95,4.93.34-5.87-9.08-5.85-9.42,0-.09,1.51-2.16.48-2.65-.04-1.94-2.1-.25-4.87.82-6.92,4.87,1.29,7.41-4.5,4.7-7.49,6.64-2.54,15.48-4.11,22.35-8.22,5.88.69,15.06-5.54,14.41-11.91.63-6.37-8.54-12.58-14.42-11.89-6.86-4.11-15.7-5.68-22.34-8.22ZM497.93,1428.86s.01,0,.02,0c-18.1,4.44-38.33,4.79-49.29,22.52,8.16-17.5,27.8-22.14,44.77-22.78,1.51-.06,3.01.06,4.5.26ZM497.94,1405.5c-18.08.96-40.36-3.81-49.29-22.51,6.17,9.75,16.98,15.58,27.28,18.05,7.16,1.8,14.71,1.98,22.01,4.46Z"/>
      <path class="cls-1" d="M427.86,1385.57c-13.33-9.22-20.45,18.89-8.68,25.98-6.74-.27-12.29-3.58-17.49-7.21,5.17,2.56,9.76-4.57,5.38-7.53-.33-.22-.7-.39-1.07-.53-16.36-5.86-15.6,17.65-1.98,20.89-13.61,3.23-14.37,26.75,1.98,20.89.38-.14.74-.3,1.07-.53,4.38-2.95-.21-10.09-5.38-7.52,5.2-3.63,10.75-6.94,17.49-7.21-11.78,7.08-4.65,35.2,8.68,25.98-3.45-16.8,14.1-25.88,29.05-28.19,5.93,7.17,17.36-.91,23.28-3.41,0,0-.01,0-.02,0,0,0,.02,0,.02,0-5.94-2.5-17.34-10.59-23.29-3.41-10.93-2.14-24.05-6.62-28.41-17.31-1.74-3.33-.04-7.48-.64-10.88Z"/>
    </g>
    <g>
      <path class="cls-1" d="M921.89,1439.03c16.98,13.83,31.94-11.69,15.47-21.85,16.46-10.15,1.51-35.68-15.47-21.85-5.47,4.68,2.56,12.4,8,7.75-10.06,8.6-14.33,2.64-23.74-2.98-12.91-7.84-26.73-15.24-42.15-16.7-1.5-.98-2.61-2.4-2.94-4.42-.59-3.66,3.71-6.88,5.66-2.71,3.01,6.42,12.75.84,9.76-5.53-8.19-16.6-32.68-2.08-25.93,12.95-5.62.84-11.24,2.44-16.01,5.51-6.14,1.68-16.89-10.42-10.98-11.09,1.96-.22,3.71,1.08,4.36,2.94.59,1.7,2.18,2.66,3.97,2.88,4.1.5,7.47-3.17,6.95-7.26-3.76-29.95-51.55,3.04-14.66,21.33-5.06,5.3-13.78,13.35-16.17,7.11-.41-1.07-.95-2.09-1.71-2.95-7.45-8.41-15.72,8.78-1.82,15.04-13.97,6.38-5.55,23.4,1.82,15.06.76-.86,1.3-1.89,1.71-2.97,2.38-6.24,11.11,1.81,16.17,7.11-36.88,18.26,10.88,51.29,14.65,21.33.52-4.09-2.85-7.77-6.95-7.26-1.79.22-3.37,1.18-3.97,2.88-.65,1.86-2.4,3.16-4.36,2.94-5.9-.67,4.85-12.78,10.98-11.09,4.77,3.08,10.39,4.67,16.01,5.51-6.76,15.03,17.75,29.54,25.93,12.95,2.98-6.37-6.76-11.95-9.76-5.53-1.95,4.17-6.25.95-5.66-2.71,4.38-8.1,18.18-6.05,26.91-10.77,1.76-.95,3.53-1.86,5.36-2.67,12.59-5.53,23.49-22.12,36.56-10.67-5.44-4.65-13.47,3.07-8,7.75ZM915.18,1417.18c-6.24,2.04-10.84,5.22-16.23,8.41-4.43-1.81-11.82,7.78-13.25-1.33-5.31-13.42-17.75.15-7.04,10.06-4.15,1.97-40.08,3.48-24.6-4.19,2.67,6.47,13.61,3.65,10.9-2.91-4.7-15.94-29.99-10.59-26.73,5.8-6.99-4.77-12.8-13.48-21.73-15.84,8.93-2.36,14.74-11.06,21.73-15.84-3.25,16.39,22.03,21.75,26.74,5.8,2.71-6.56-8.23-9.38-10.9-2.91-15.51-7.68,20.52-6.15,24.6-4.19-10.71,9.88,1.72,23.48,7.04,10.06,1.42-9.1,8.84.48,13.25-1.33,2.64,1.59,5.28,3.19,7.94,4.72,2.38,1.37,5.24,2.65,8.3,3.69Z"/>
      <path class="cls-1" d="M793.35,1412.22c3.41,0,5.2,2.4,5.42,4.95h0c.09,6.41-10.91,6.42-10.84.02h0c.21-2.56,2-4.97,5.42-4.97Z"/>
      <path class="cls-1" d="M750.74,1397.06c2.71-2.99.17-8.78-4.71-7.49-1.07-2.05-2.75-4.82-.81-6.92.49-.53,2.56-1.56,2.65-.04.34,5.85,9.76,5.87,9.42,0-1.6-16.39-25.96-9.7-21.96,4.93-22.02-16.54,3.98-55.79,21.42-27.4,5.63,16.89,10.4-9.46-1.83-17.44-25.82-16.85-56.53,23.61-43.31,46.38-3.23.1-5.91.24-9.64,1.7,4.26-.02,6.46,1.14,8.67,3,4.02,3.37,8.4,6.31,13.14,8.57,5.46,2.6,11.22,4.82,17.14,6.14,6.05,1.36,12.22.24,18.29-.36,5.84-.58,10.84,1.57,15.58,5.01-3.02-.81-5.7,1.49-5.72,4.04.04,2.55,2.71,4.83,5.72,4.02-5.33,4.3-13.1,5.43-22.61,4.16-10.07-1.34-19.4,2.34-28.38,6.62-4.75,2.26-9.12,5.2-13.15,8.58-2.22,1.86-4.42,3.02-8.67,3,3.73,1.47,6.41,1.61,9.64,1.7-13.22,22.77,17.95,63.92,43.31,46.38,7.64-5.35,10.66-16.8,6.44-21.45-.84-.93-2.36-.66-2.85.49-13.85,32.81-47.56-2.82-23.18-23.88-4,14.63,20.35,21.32,21.95,4.93.34-5.87-9.08-5.85-9.42,0-.09,1.51-2.16.48-2.65-.04-1.94-2.1-.25-4.87.82-6.92,4.87,1.29,7.41-4.5,4.7-7.49,6.64-2.54,15.48-4.11,22.35-8.22,5.88.69,15.06-5.54,14.41-11.91.63-6.37-8.54-12.58-14.42-11.89-6.86-4.11-15.7-5.68-22.34-8.22ZM769.45,1428.86s.01,0,.02,0c-18.1,4.44-38.33,4.79-49.29,22.52,8.16-17.5,27.8-22.14,44.77-22.78,1.51-.06,3.01.06,4.5.26ZM769.46,1405.5c-18.08.96-40.36-3.81-49.29-22.51,6.17,9.75,16.98,15.58,27.28,18.05,7.16,1.8,14.71,1.98,22.01,4.46Z"/>
      <path class="cls-1" d="M699.39,1385.57c-13.33-9.22-20.45,18.89-8.68,25.98-6.74-.27-12.29-3.58-17.49-7.21,5.17,2.56,9.76-4.57,5.38-7.53-.33-.22-.7-.39-1.08-.53-16.36-5.86-15.6,17.65-1.98,20.89-13.61,3.23-14.37,26.75,1.98,20.89.38-.14.74-.3,1.07-.53,4.38-2.95-.21-10.09-5.38-7.52,5.2-3.63,10.75-6.94,17.49-7.21-11.78,7.08-4.65,35.2,8.68,25.98-3.45-16.8,14.1-25.88,29.05-28.19,5.93,7.17,17.36-.91,23.28-3.41,0,0-.01,0-.02,0,0,0,.02,0,.02,0-5.94-2.5-17.34-10.59-23.29-3.41-10.93-2.14-24.05-6.62-28.41-17.31-1.74-3.33-.04-7.48-.64-10.88Z"/>
    </g>
    <g>
      <path class="cls-1" d="M1193.41,1439.03c16.98,13.83,31.94-11.69,15.47-21.85,16.46-10.15,1.51-35.68-15.47-21.85-5.47,4.68,2.56,12.4,8,7.75-10.06,8.6-14.33,2.64-23.74-2.98-12.91-7.84-26.73-15.24-42.15-16.7-1.5-.98-2.61-2.4-2.94-4.42-.59-3.66,3.71-6.88,5.66-2.71,3.01,6.42,12.75.84,9.76-5.53-8.19-16.6-32.68-2.08-25.93,12.95-5.62.84-11.24,2.44-16.01,5.51-6.14,1.68-16.89-10.42-10.98-11.09,1.96-.22,3.71,1.08,4.36,2.94.59,1.7,2.18,2.66,3.97,2.88,4.1.5,7.47-3.17,6.95-7.26-3.76-29.95-51.55,3.04-14.66,21.33-5.06,5.3-13.78,13.35-16.17,7.11-.41-1.07-.95-2.09-1.71-2.95-7.45-8.41-15.72,8.78-1.82,15.04-13.97,6.38-5.55,23.4,1.82,15.06.76-.86,1.3-1.89,1.71-2.97,2.38-6.24,11.11,1.81,16.17,7.11-36.88,18.26,10.88,51.29,14.66,21.33.52-4.09-2.85-7.77-6.95-7.26-1.79.22-3.37,1.18-3.97,2.88-.65,1.86-2.4,3.16-4.36,2.94-5.9-.67,4.85-12.78,10.98-11.09,4.77,3.08,10.39,4.67,16.01,5.51-6.76,15.03,17.75,29.54,25.93,12.95,2.98-6.37-6.76-11.95-9.76-5.53-1.95,4.17-6.25.95-5.66-2.71,4.38-8.1,18.18-6.05,26.91-10.77,1.76-.95,3.53-1.86,5.36-2.67,12.59-5.53,23.49-22.12,36.56-10.67-5.44-4.65-13.47,3.07-8,7.75ZM1186.7,1417.18c-6.24,2.04-10.84,5.22-16.23,8.41-4.43-1.81-11.82,7.78-13.25-1.33-5.31-13.42-17.75.15-7.04,10.06-4.15,1.97-40.08,3.48-24.6-4.19,2.67,6.47,13.61,3.65,10.9-2.91-4.7-15.94-29.99-10.59-26.73,5.8-6.99-4.77-12.8-13.48-21.73-15.84,8.93-2.36,14.74-11.06,21.73-15.84-3.25,16.39,22.03,21.75,26.74,5.8,2.71-6.56-8.23-9.38-10.9-2.91-15.51-7.68,20.52-6.15,24.6-4.19-10.71,9.88,1.72,23.48,7.04,10.06,1.42-9.1,8.84.48,13.25-1.33,2.64,1.59,5.28,3.19,7.94,4.72,2.38,1.37,5.24,2.65,8.3,3.69Z"/>
      <path class="cls-1" d="M1064.87,1412.22c3.41,0,5.2,2.4,5.42,4.95h0c.09,6.41-10.91,6.42-10.84.02h0c.21-2.56,2-4.97,5.42-4.97Z"/>
      <path class="cls-1" d="M1022.26,1397.06c2.71-2.99.17-8.78-4.71-7.49-1.07-2.05-2.75-4.82-.81-6.92.49-.53,2.56-1.56,2.65-.04.34,5.85,9.76,5.87,9.42,0-1.6-16.39-25.96-9.7-21.96,4.93-22.02-16.54,3.98-55.79,21.42-27.4,5.63,16.89,10.4-9.46-1.83-17.44-25.82-16.85-56.53,23.61-43.31,46.38-3.23.1-5.91.24-9.64,1.7,4.26-.02,6.46,1.14,8.67,3,4.02,3.37,8.4,6.31,13.14,8.57,5.46,2.6,11.22,4.82,17.14,6.14,6.05,1.36,12.22.24,18.29-.36,5.84-.58,10.84,1.57,15.58,5.01-3.02-.81-5.7,1.49-5.72,4.04.04,2.55,2.71,4.83,5.72,4.02-5.33,4.3-13.1,5.43-22.61,4.16-10.07-1.34-19.4,2.34-28.38,6.62-4.75,2.26-9.12,5.2-13.15,8.58-2.22,1.86-4.42,3.02-8.67,3,3.73,1.47,6.41,1.61,9.64,1.7-13.22,22.77,17.95,63.92,43.31,46.38,7.64-5.35,10.66-16.8,6.44-21.45-.84-.93-2.36-.66-2.85.49-13.85,32.81-47.56-2.82-23.18-23.88-4,14.63,20.35,21.32,21.95,4.93.34-5.87-9.08-5.85-9.42,0-.09,1.51-2.16.48-2.65-.04-1.94-2.1-.25-4.87.82-6.92,4.87,1.29,7.41-4.5,4.7-7.49,6.64-2.54,15.48-4.11,22.35-8.22,5.88.69,15.06-5.54,14.41-11.91.63-6.37-8.54-12.58-14.42-11.89-6.86-4.11-15.7-5.68-22.34-8.22ZM1040.97,1428.86s.01,0,.02,0c-18.1,4.44-38.33,4.79-49.29,22.52,8.16-17.5,27.8-22.14,44.77-22.78,1.51-.06,3.01.06,4.5.26ZM1040.99,1405.5c-18.08.96-40.36-3.81-49.29-22.51,6.17,9.75,16.98,15.58,27.28,18.05,7.16,1.8,14.71,1.98,22.01,4.46Z"/>
      <path class="cls-1" d="M970.91,1385.57c-13.33-9.22-20.45,18.89-8.68,25.98-6.74-.27-12.29-3.58-17.49-7.21,5.17,2.56,9.76-4.57,5.38-7.53-.33-.22-.7-.39-1.07-.53-16.36-5.86-15.6,17.65-1.98,20.89-13.61,3.23-14.37,26.75,1.98,20.89.38-.14.74-.3,1.07-.53,4.38-2.95-.21-10.09-5.38-7.52,5.2-3.63,10.75-6.94,17.49-7.21-11.78,7.08-4.65,35.2,8.68,25.98-3.45-16.8,14.1-25.88,29.05-28.19,5.93,7.17,17.36-.91,23.28-3.41,0,0-.01,0-.02,0,0,0,.02,0,.02,0-5.94-2.5-17.34-10.59-23.29-3.41-10.93-2.14-24.05-6.62-28.41-17.31-1.74-3.33-.04-7.48-.64-10.88Z"/>
    </g>
    <g>
      <path class="cls-1" d="M1464.93,1439.03c16.98,13.83,31.94-11.69,15.47-21.85,16.46-10.15,1.51-35.68-15.47-21.85-5.47,4.68,2.56,12.4,8,7.75-10.06,8.6-14.33,2.64-23.74-2.98-12.91-7.84-26.73-15.24-42.15-16.7-1.5-.98-2.61-2.4-2.94-4.42-.59-3.66,3.71-6.88,5.66-2.71,3.01,6.42,12.75.84,9.76-5.53-8.19-16.6-32.68-2.08-25.93,12.95-5.62.84-11.24,2.44-16.01,5.51-6.14,1.68-16.89-10.42-10.98-11.09,1.96-.22,3.71,1.08,4.36,2.94.59,1.7,2.18,2.66,3.97,2.88,4.1.5,7.47-3.17,6.95-7.26-3.76-29.95-51.55,3.04-14.66,21.33-5.06,5.3-13.78,13.35-16.17,7.11-.41-1.07-.95-2.09-1.71-2.95-7.45-8.41-15.72,8.78-1.82,15.04-13.97,6.38-5.55,23.4,1.82,15.06.76-.86,1.3-1.89,1.71-2.97,2.38-6.24,11.11,1.81,16.17,7.11-36.88,18.26,10.88,51.29,14.65,21.33.52-4.09-2.85-7.77-6.95-7.26-1.79.22-3.37,1.18-3.97,2.88-.65,1.86-2.4,3.16-4.36,2.94-5.9-.67,4.85-12.78,10.98-11.09,4.77,3.08,10.39,4.67,16.01,5.51-6.76,15.03,17.75,29.54,25.93,12.95,2.98-6.37-6.76-11.95-9.76-5.53-1.95,4.17-6.25.95-5.66-2.71,4.38-8.1,18.18-6.05,26.91-10.77,1.76-.95,3.53-1.86,5.36-2.67,12.59-5.53,23.49-22.12,36.56-10.67-5.44-4.65-13.47,3.07-8,7.75ZM1458.22,1417.18c-6.24,2.04-10.84,5.22-16.23,8.41-4.43-1.81-11.82,7.78-13.25-1.33-5.31-13.42-17.75.15-7.04,10.06-4.15,1.97-40.08,3.48-24.6-4.19,2.67,6.47,13.61,3.65,10.9-2.91-4.7-15.94-29.99-10.59-26.73,5.8-6.99-4.77-12.8-13.48-21.73-15.84,8.93-2.36,14.74-11.06,21.73-15.84-3.25,16.39,22.03,21.75,26.74,5.8,2.71-6.56-8.23-9.38-10.9-2.91-15.51-7.68,20.52-6.15,24.6-4.19-10.71,9.88,1.72,23.48,7.04,10.06,1.42-9.1,8.84.48,13.25-1.33,2.64,1.59,5.28,3.19,7.94,4.72,2.38,1.37,5.24,2.65,8.3,3.69Z"/>
      <path class="cls-1" d="M1336.39,1412.22c3.41,0,5.2,2.4,5.42,4.95h0c.09,6.41-10.91,6.42-10.84.02h0c.21-2.56,2-4.97,5.42-4.97Z"/>
      <path class="cls-1" d="M1293.78,1397.06c2.71-2.99.17-8.78-4.71-7.49-1.07-2.05-2.75-4.82-.81-6.92.49-.53,2.56-1.56,2.65-.04.34,5.85,9.76,5.87,9.42,0-1.6-16.39-25.96-9.7-21.96,4.93-22.02-16.54,3.98-55.79,21.42-27.4,5.63,16.89,10.4-9.46-1.83-17.44-25.82-16.85-56.53,23.61-43.31,46.38-3.23.1-5.91.24-9.64,1.7,4.26-.02,6.46,1.14,8.67,3,4.02,3.37,8.4,6.31,13.14,8.57,5.46,2.6,11.22,4.82,17.14,6.14,6.05,1.36,12.22.24,18.29-.36,5.84-.58,10.84,1.57,15.58,5.01-3.02-.81-5.7,1.49-5.72,4.04.04,2.55,2.71,4.83,5.72,4.02-5.33,4.3-13.1,5.43-22.61,4.16-10.07-1.34-19.4,2.34-28.38,6.62-4.75,2.26-9.12,5.2-13.15,8.58-2.22,1.86-4.42,3.02-8.67,3,3.73,1.47,6.41,1.61,9.64,1.7-13.22,22.77,17.95,63.92,43.31,46.38,7.64-5.35,10.66-16.8,6.44-21.45-.84-.93-2.36-.66-2.85.49-13.85,32.81-47.56-2.82-23.18-23.88-4,14.63,20.35,21.32,21.95,4.93.34-5.87-9.08-5.85-9.42,0-.09,1.51-2.16.48-2.65-.04-1.94-2.1-.25-4.87.82-6.92,4.87,1.29,7.41-4.5,4.7-7.49,6.64-2.54,15.48-4.11,22.35-8.22,5.88.69,15.06-5.54,14.41-11.91.63-6.37-8.54-12.58-14.42-11.89-6.86-4.11-15.7-5.68-22.34-8.22ZM1312.49,1428.86s.01,0,.02,0c-18.1,4.44-38.33,4.79-49.29,22.52,8.16-17.5,27.8-22.14,44.77-22.78,1.51-.06,3.01.06,4.5.26ZM1312.51,1405.5c-18.08.96-40.36-3.81-49.29-22.51,6.17,9.75,16.98,15.58,27.28,18.05,7.16,1.8,14.71,1.98,22.01,4.46Z"/>
      <path class="cls-1" d="M1242.43,1385.57c-13.33-9.22-20.45,18.89-8.68,25.98-6.74-.27-12.29-3.58-17.49-7.21,5.17,2.56,9.76-4.57,5.38-7.53-.33-.22-.7-.39-1.08-.53-16.36-5.86-15.6,17.65-1.98,20.89-13.61,3.23-14.37,26.75,1.98,20.89.38-.14.74-.3,1.07-.53,4.38-2.95-.21-10.09-5.38-7.52,5.2-3.63,10.75-6.94,17.49-7.21-11.78,7.08-4.65,35.2,8.68,25.98-3.45-16.8,14.1-25.88,29.05-28.19,5.93,7.17,17.36-.91,23.28-3.41,0,0-.01,0-.02,0,0,0,.02,0,.02,0-5.94-2.5-17.34-10.59-23.29-3.41-10.93-2.14-24.05-6.62-28.41-17.31-1.74-3.33-.04-7.48-.64-10.88Z"/>
    </g>
    <g>
      <path class="cls-1" d="M1736.45,1439.03c16.98,13.83,31.94-11.69,15.47-21.85,16.46-10.15,1.51-35.68-15.47-21.85-5.47,4.68,2.56,12.4,8,7.75-10.06,8.6-14.33,2.64-23.74-2.98-12.91-7.84-26.73-15.24-42.15-16.7-1.5-.98-2.61-2.4-2.94-4.42-.59-3.66,3.71-6.88,5.66-2.71,3.01,6.42,12.75.84,9.76-5.53-8.19-16.6-32.68-2.08-25.93,12.95-5.62.84-11.24,2.44-16.01,5.51-6.14,1.68-16.89-10.42-10.98-11.09,1.96-.22,3.71,1.08,4.36,2.94.59,1.7,2.18,2.66,3.97,2.88,4.1.5,7.47-3.17,6.95-7.26-3.76-29.95-51.55,3.04-14.66,21.33-5.06,5.3-13.78,13.35-16.17,7.11-.41-1.07-.95-2.09-1.71-2.95-7.45-8.41-15.72,8.78-1.82,15.04-13.97,6.38-5.55,23.4,1.82,15.06.76-.86,1.3-1.89,1.71-2.97,2.38-6.24,11.11,1.81,16.17,7.11-36.88,18.26,10.88,51.29,14.66,21.33.52-4.09-2.85-7.77-6.95-7.26-1.79.22-3.37,1.18-3.97,2.88-.65,1.86-2.4,3.16-4.36,2.94-5.9-.67,4.85-12.78,10.98-11.09,4.77,3.08,10.39,4.67,16.01,5.51-6.76,15.03,17.75,29.54,25.93,12.95,2.98-6.37-6.76-11.95-9.76-5.53-1.95,4.17-6.25.95-5.66-2.71,4.38-8.1,18.18-6.05,26.91-10.77,1.76-.95,3.53-1.86,5.36-2.67,12.59-5.53,23.49-22.12,36.56-10.67-5.44-4.65-13.47,3.07-8,7.75ZM1729.74,1417.18c-6.24,2.04-10.84,5.22-16.23,8.41-4.43-1.81-11.82,7.78-13.25-1.33-5.31-13.42-17.75.15-7.04,10.06-4.15,1.97-40.08,3.48-24.6-4.19,2.67,6.47,13.61,3.65,10.9-2.91-4.7-15.94-29.99-10.59-26.73,5.8-6.99-4.77-12.8-13.48-21.73-15.84,8.93-2.36,14.74-11.06,21.73-15.84-3.25,16.39,22.03,21.75,26.74,5.8,2.71-6.56-8.23-9.38-10.9-2.91-15.51-7.68,20.52-6.15,24.6-4.19-10.71,9.88,1.72,23.48,7.04,10.06,1.42-9.1,8.84.48,13.25-1.33,2.64,1.59,5.28,3.19,7.94,4.72,2.38,1.37,5.24,2.65,8.3,3.69Z"/>
      <path class="cls-1" d="M1607.92,1412.22c3.41,0,5.2,2.4,5.42,4.95h0c.09,6.41-10.91,6.42-10.84.02h0c.21-2.56,2-4.97,5.42-4.97Z"/>
      <path class="cls-1" d="M1565.31,1397.06c2.71-2.99.17-8.78-4.71-7.49-1.07-2.05-2.75-4.82-.81-6.92.49-.53,2.56-1.56,2.65-.04.34,5.85,9.76,5.87,9.42,0-1.6-16.39-25.96-9.7-21.96,4.93-22.02-16.54,3.98-55.79,21.42-27.4,5.63,16.89,10.4-9.46-1.83-17.44-25.82-16.85-56.53,23.61-43.31,46.38-3.23.1-5.91.24-9.64,1.7,4.26-.02,6.46,1.14,8.67,3,4.02,3.37,8.4,6.31,13.14,8.57,5.46,2.6,11.22,4.82,17.14,6.14,6.05,1.36,12.22.24,18.29-.36,5.84-.58,10.84,1.57,15.58,5.01-3.02-.81-5.7,1.49-5.72,4.04.04,2.55,2.71,4.83,5.72,4.02-5.33,4.3-13.1,5.43-22.61,4.16-10.07-1.34-19.4,2.34-28.38,6.62-4.75,2.26-9.12,5.2-13.15,8.58-2.22,1.86-4.42,3.02-8.67,3,3.73,1.47,6.41,1.61,9.64,1.7-13.22,22.77,17.95,63.92,43.31,46.38,7.64-5.35,10.66-16.8,6.44-21.45-.84-.93-2.36-.66-2.85.49-13.85,32.81-47.56-2.82-23.18-23.88-4,14.63,20.35,21.32,21.95,4.93.34-5.87-9.08-5.85-9.42,0-.09,1.51-2.16.48-2.65-.04-1.94-2.1-.25-4.87.82-6.92,4.87,1.29,7.41-4.5,4.7-7.49,6.64-2.54,15.48-4.11,22.35-8.22,5.88.69,15.06-5.54,14.41-11.91.63-6.37-8.54-12.58-14.42-11.89-6.86-4.11-15.7-5.68-22.34-8.22ZM1584.02,1428.86s.01,0,.02,0c-18.1,4.44-38.33,4.79-49.29,22.52,8.16-17.5,27.8-22.14,44.77-22.78,1.51-.06,3.01.06,4.5.26ZM1584.03,1405.5c-18.08.96-40.36-3.81-49.29-22.51,6.17,9.75,16.98,15.58,27.28,18.05,7.16,1.8,14.71,1.98,22.01,4.46Z"/>
      <path class="cls-1" d="M1513.95,1385.57c-13.33-9.22-20.45,18.89-8.68,25.98-6.74-.27-12.29-3.58-17.49-7.21,5.17,2.56,9.76-4.57,5.38-7.53-.33-.22-.7-.39-1.07-.53-16.36-5.86-15.6,17.65-1.98,20.89-13.61,3.23-14.37,26.75,1.98,20.89.38-.14.74-.3,1.07-.53,4.38-2.95-.21-10.09-5.38-7.52,5.2-3.63,10.75-6.94,17.49-7.21-11.78,7.08-4.65,35.2,8.68,25.98-3.45-16.8,14.1-25.88,29.05-28.19,5.93,7.17,17.36-.91,23.28-3.41,0,0-.01,0-.02,0,0,0,.02,0,.02,0-5.94-2.5-17.34-10.59-23.29-3.41-10.93-2.14-24.05-6.62-28.41-17.31-1.74-3.33-.04-7.48-.64-10.88Z"/>
    </g>
    <g>
      <path class="cls-1" d="M2007.98,1439.03c16.98,13.83,31.94-11.69,15.47-21.85,16.46-10.15,1.51-35.68-15.47-21.85-5.47,4.68,2.56,12.4,8,7.75-10.06,8.6-14.33,2.64-23.74-2.98-12.91-7.84-26.73-15.24-42.15-16.7-1.5-.98-2.61-2.4-2.94-4.42-.59-3.66,3.71-6.88,5.66-2.71,3.01,6.42,12.75.84,9.76-5.53-8.19-16.6-32.68-2.08-25.93,12.95-5.62.84-11.24,2.44-16.01,5.51-6.14,1.68-16.89-10.42-10.98-11.09,1.96-.22,3.71,1.08,4.36,2.94.59,1.7,2.18,2.66,3.97,2.88,4.1.5,7.47-3.17,6.95-7.26-3.76-29.95-51.55,3.04-14.66,21.33-5.06,5.3-13.78,13.35-16.17,7.11-.41-1.07-.95-2.09-1.71-2.95-7.45-8.41-15.72,8.78-1.82,15.04-13.97,6.38-5.55,23.4,1.82,15.06.76-.86,1.3-1.89,1.71-2.97,2.38-6.24,11.11,1.81,16.17,7.11-36.88,18.26,10.88,51.29,14.65,21.33.52-4.09-2.85-7.77-6.95-7.26-1.79.22-3.37,1.18-3.97,2.88-.65,1.86-2.4,3.16-4.36,2.94-5.9-.67,4.85-12.78,10.98-11.09,4.77,3.08,10.39,4.67,16.01,5.51-6.76,15.03,17.75,29.54,25.93,12.95,2.98-6.37-6.76-11.95-9.76-5.53-1.95,4.17-6.25.95-5.66-2.71,4.38-8.1,18.18-6.05,26.91-10.77,1.76-.95,3.53-1.86,5.36-2.67,12.59-5.53,23.49-22.12,36.56-10.67-5.44-4.65-13.47,3.07-8,7.75ZM2001.27,1417.18c-6.24,2.04-10.84,5.22-16.23,8.41-4.43-1.81-11.82,7.78-13.25-1.33-5.31-13.42-17.75.15-7.04,10.06-4.15,1.97-40.08,3.48-24.6-4.19,2.67,6.47,13.61,3.65,10.9-2.91-4.7-15.94-29.99-10.59-26.74,5.8-6.99-4.77-12.8-13.48-21.73-15.84,8.93-2.36,14.74-11.06,21.73-15.84-3.25,16.39,22.03,21.75,26.74,5.8,2.71-6.56-8.23-9.38-10.9-2.91-15.51-7.68,20.52-6.15,24.6-4.19-10.71,9.88,1.72,23.48,7.04,10.06,1.42-9.1,8.84.48,13.25-1.33,2.64,1.59,5.28,3.19,7.94,4.72,2.38,1.37,5.24,2.65,8.3,3.69Z"/>
      <path class="cls-1" d="M1879.44,1412.22c3.4,0,5.2,2.4,5.42,4.95h0c.09,6.41-10.91,6.42-10.84.02h0c.21-2.56,2-4.97,5.42-4.97Z"/>
      <path class="cls-1" d="M1836.83,1397.06c2.71-2.99.17-8.78-4.71-7.49-1.07-2.05-2.75-4.82-.81-6.92.49-.53,2.56-1.56,2.65-.04.34,5.85,9.76,5.87,9.42,0-1.6-16.39-25.96-9.7-21.96,4.93-22.02-16.54,3.98-55.79,21.42-27.4,5.63,16.89,10.4-9.46-1.83-17.44-25.82-16.85-56.53,23.61-43.31,46.38-3.23.1-5.91.24-9.64,1.7,4.26-.02,6.46,1.14,8.67,3,4.02,3.37,8.4,6.31,13.14,8.57,5.46,2.6,11.22,4.82,17.14,6.14,6.05,1.36,12.22.24,18.29-.36,5.84-.58,10.84,1.57,15.58,5.01-3.02-.81-5.7,1.49-5.72,4.04.04,2.55,2.71,4.83,5.72,4.02-5.33,4.3-13.1,5.43-22.61,4.16-10.07-1.34-19.4,2.34-28.38,6.62-4.75,2.26-9.12,5.2-13.15,8.58-2.22,1.86-4.42,3.02-8.67,3,3.73,1.47,6.41,1.61,9.64,1.7-13.22,22.77,17.95,63.92,43.31,46.38,7.64-5.35,10.66-16.8,6.44-21.45-.84-.93-2.36-.66-2.85.49-13.85,32.81-47.56-2.82-23.18-23.88-4,14.63,20.35,21.32,21.95,4.93.34-5.87-9.08-5.85-9.42,0-.09,1.51-2.16.48-2.65-.04-1.94-2.1-.25-4.87.82-6.92,4.87,1.29,7.41-4.5,4.71-7.49,6.64-2.54,15.48-4.11,22.35-8.22,5.88.69,15.06-5.54,14.41-11.91.63-6.37-8.54-12.58-14.42-11.89-6.86-4.11-15.7-5.68-22.34-8.22ZM1855.54,1428.86s.01,0,.02,0c-18.1,4.44-38.33,4.79-49.29,22.52,8.16-17.5,27.8-22.14,44.77-22.78,1.51-.06,3.01.06,4.5.26ZM1855.55,1405.5c-18.08.96-40.36-3.81-49.29-22.51,6.17,9.75,16.98,15.58,27.28,18.05,7.16,1.8,14.71,1.98,22.01,4.46Z"/>
      <path class="cls-1" d="M1785.48,1385.57c-13.33-9.22-20.45,18.89-8.68,25.98-6.74-.27-12.29-3.58-17.49-7.21,5.17,2.56,9.76-4.57,5.38-7.53-.33-.22-.7-.39-1.07-.53-16.36-5.86-15.6,17.65-1.98,20.89-13.61,3.23-14.37,26.75,1.98,20.89.38-.14.74-.3,1.07-.53,4.38-2.95-.21-10.09-5.38-7.52,5.2-3.63,10.75-6.94,17.49-7.21-11.78,7.08-4.65,35.2,8.68,25.98-3.45-16.8,14.1-25.88,29.05-28.19,5.93,7.17,17.36-.91,23.28-3.41,0,0-.01,0-.02,0,0,0,.02,0,.02,0-5.94-2.5-17.34-10.59-23.29-3.41-10.93-2.14-24.05-6.62-28.41-17.31-1.74-3.33-.04-7.48-.64-10.88Z"/>
    </g>
    <g>
      <path class="cls-1" d="M2279.5,1439.03c16.98,13.83,31.94-11.69,15.47-21.85,16.46-10.15,1.51-35.68-15.47-21.85-5.47,4.68,2.56,12.4,8,7.75-10.06,8.6-14.33,2.64-23.74-2.98-12.91-7.84-26.73-15.24-42.15-16.7-1.5-.98-2.61-2.4-2.94-4.42-.59-3.66,3.71-6.88,5.66-2.71,3.01,6.42,12.75.84,9.76-5.53-8.19-16.6-32.68-2.08-25.93,12.95-5.62.84-11.24,2.44-16.01,5.51-6.14,1.68-16.89-10.42-10.98-11.09,1.96-.22,3.71,1.08,4.36,2.94.59,1.7,2.18,2.66,3.97,2.88,4.1.5,7.47-3.17,6.95-7.26-3.76-29.95-51.55,3.04-14.66,21.33-5.06,5.3-13.78,13.35-16.17,7.11-.41-1.07-.95-2.09-1.71-2.95-7.45-8.41-15.72,8.78-1.82,15.04-13.97,6.38-5.55,23.4,1.82,15.06.76-.86,1.3-1.89,1.71-2.97,2.38-6.24,11.11,1.81,16.17,7.11-36.88,18.26,10.88,51.29,14.66,21.33.52-4.09-2.85-7.77-6.95-7.26-1.79.22-3.37,1.18-3.97,2.88-.65,1.86-2.4,3.16-4.36,2.94-5.9-.67,4.85-12.78,10.98-11.09,4.77,3.08,10.39,4.67,16.01,5.51-6.76,15.03,17.75,29.54,25.93,12.95,2.98-6.37-6.76-11.95-9.76-5.53-1.95,4.17-6.25.95-5.66-2.71,4.38-8.1,18.18-6.05,26.91-10.77,1.76-.95,3.53-1.86,5.36-2.67,12.59-5.53,23.49-22.12,36.56-10.67-5.44-4.65-13.47,3.07-8,7.75ZM2272.79,1417.18c-6.24,2.04-10.84,5.22-16.23,8.41-4.43-1.81-11.82,7.78-13.25-1.33-5.31-13.42-17.75.15-7.04,10.06-4.15,1.97-40.08,3.48-24.6-4.19,2.67,6.47,13.61,3.65,10.9-2.91-4.7-15.94-29.99-10.59-26.74,5.8-6.99-4.77-12.8-13.48-21.73-15.84,8.93-2.36,14.74-11.06,21.73-15.84-3.25,16.39,22.03,21.75,26.74,5.8,2.71-6.56-8.23-9.38-10.9-2.91-15.51-7.68,20.52-6.15,24.6-4.19-10.71,9.88,1.72,23.48,7.04,10.06,1.42-9.1,8.84.48,13.25-1.33,2.64,1.59,5.28,3.19,7.94,4.72,2.38,1.37,5.24,2.65,8.3,3.69Z"/>
      <path class="cls-1" d="M2150.96,1412.22c3.4,0,5.2,2.4,5.42,4.95h0c.09,6.41-10.91,6.42-10.84.02h0c.21-2.56,2-4.97,5.42-4.97Z"/>
      <path class="cls-1" d="M2108.35,1397.06c2.71-2.99.17-8.78-4.71-7.49-1.07-2.05-2.75-4.82-.81-6.92.49-.53,2.56-1.56,2.65-.04.34,5.85,9.76,5.87,9.42,0-1.6-16.39-25.96-9.7-21.96,4.93-22.02-16.54,3.98-55.79,21.42-27.4,5.63,16.89,10.4-9.46-1.83-17.44-25.82-16.85-56.53,23.61-43.31,46.38-3.23.1-5.91.24-9.64,1.7,4.26-.02,6.46,1.14,8.67,3,4.02,3.37,8.4,6.31,13.14,8.57,5.46,2.6,11.22,4.82,17.14,6.14,6.05,1.36,12.22.24,18.29-.36,5.84-.58,10.84,1.57,15.58,5.01-3.02-.81-5.7,1.49-5.72,4.04.04,2.55,2.71,4.83,5.72,4.02-5.33,4.3-13.1,5.43-22.61,4.16-10.07-1.34-19.4,2.34-28.38,6.62-4.75,2.26-9.12,5.2-13.15,8.58-2.22,1.86-4.42,3.02-8.67,3,3.73,1.47,6.41,1.61,9.64,1.7-13.22,22.77,17.95,63.92,43.31,46.38,7.64-5.35,10.66-16.8,6.44-21.45-.84-.93-2.36-.66-2.85.49-13.85,32.81-47.56-2.82-23.18-23.88-4,14.63,20.35,21.32,21.95,4.93.34-5.87-9.08-5.85-9.42,0-.09,1.51-2.16.48-2.65-.04-1.94-2.1-.25-4.87.82-6.92,4.87,1.29,7.41-4.5,4.71-7.49,6.64-2.54,15.48-4.11,22.35-8.22,5.88.69,15.06-5.54,14.41-11.91.63-6.37-8.54-12.58-14.42-11.89-6.86-4.11-15.7-5.68-22.34-8.22ZM2127.06,1428.86s.01,0,.02,0c-18.1,4.44-38.33,4.79-49.29,22.52,8.16-17.5,27.8-22.14,44.77-22.78,1.51-.06,3.01.06,4.5.26ZM2127.08,1405.5c-18.08.96-40.36-3.81-49.29-22.51,6.17,9.75,16.98,15.58,27.28,18.05,7.16,1.8,14.71,1.98,22.01,4.46Z"/>
      <path class="cls-1" d="M2057,1385.57c-13.33-9.22-20.45,18.89-8.68,25.98-6.74-.27-12.29-3.58-17.49-7.21,5.17,2.56,9.76-4.57,5.38-7.53-.33-.22-.7-.39-1.07-.53-16.36-5.86-15.6,17.65-1.98,20.89-13.61,3.23-14.37,26.75,1.98,20.89.38-.14.74-.3,1.07-.53,4.38-2.95-.21-10.09-5.38-7.52,5.2-3.63,10.75-6.94,17.49-7.21-11.78,7.08-4.65,35.2,8.68,25.98-3.45-16.8,14.1-25.88,29.05-28.19,5.93,7.17,17.36-.91,23.28-3.41,0,0-.01,0-.02,0,0,0,.02,0,.02,0-5.94-2.5-17.34-10.59-23.29-3.41-10.93-2.14-24.05-6.62-28.41-17.31-1.74-3.33-.04-7.48-.64-10.88Z"/>
    </g>
    <g>
      <path class="cls-1" d="M2551.02,1439.03c16.98,13.83,31.94-11.69,15.47-21.85,16.46-10.15,1.51-35.68-15.47-21.85-5.47,4.68,2.56,12.4,8,7.75-10.06,8.6-14.33,2.64-23.74-2.98-12.91-7.84-26.73-15.24-42.15-16.7-1.5-.98-2.61-2.4-2.94-4.42-.59-3.66,3.71-6.88,5.66-2.71,3.01,6.42,12.75.84,9.76-5.53-8.19-16.6-32.68-2.08-25.93,12.95-5.62.84-11.24,2.44-16.01,5.51-6.14,1.68-16.89-10.42-10.98-11.09,1.96-.22,3.71,1.08,4.36,2.94.59,1.7,2.18,2.66,3.97,2.88,4.1.5,7.47-3.17,6.95-7.26-3.76-29.95-51.55,3.04-14.66,21.33-5.06,5.3-13.78,13.35-16.17,7.11-.41-1.07-.95-2.09-1.71-2.95-7.45-8.41-15.72,8.78-1.82,15.04-13.97,6.38-5.55,23.4,1.82,15.06.76-.86,1.3-1.89,1.71-2.97,2.38-6.24,11.11,1.81,16.17,7.11-36.88,18.26,10.88,51.29,14.65,21.33.52-4.09-2.85-7.77-6.95-7.26-1.79.22-3.37,1.18-3.97,2.88-.65,1.86-2.4,3.16-4.36,2.94-5.9-.67,4.85-12.78,10.98-11.09,4.77,3.08,10.39,4.67,16.01,5.51-6.76,15.03,17.75,29.54,25.93,12.95,2.98-6.37-6.76-11.95-9.76-5.53-1.95,4.17-6.25.95-5.66-2.71,4.38-8.1,18.18-6.05,26.91-10.77,1.76-.95,3.53-1.86,5.36-2.67,12.59-5.53,23.49-22.12,36.56-10.67-5.44-4.65-13.47,3.07-8,7.75ZM2544.31,1417.18c-6.24,2.04-10.84,5.22-16.23,8.41-4.43-1.81-11.82,7.78-13.25-1.33-5.31-13.42-17.75.15-7.04,10.06-4.15,1.97-40.08,3.48-24.6-4.19,2.67,6.47,13.61,3.65,10.9-2.91-4.7-15.94-29.99-10.59-26.74,5.8-6.99-4.77-12.8-13.48-21.73-15.84,8.93-2.36,14.74-11.06,21.73-15.84-3.25,16.39,22.03,21.75,26.74,5.8,2.71-6.56-8.23-9.38-10.9-2.91-15.51-7.68,20.52-6.15,24.6-4.19-10.71,9.88,1.72,23.48,7.04,10.06,1.42-9.1,8.84.48,13.25-1.33,2.64,1.59,5.28,3.19,7.94,4.72,2.38,1.37,5.24,2.65,8.3,3.69Z"/>
      <path class="cls-1" d="M2422.48,1412.22c3.41,0,5.2,2.4,5.42,4.95h0c.09,6.41-10.91,6.42-10.84.02h0c.21-2.56,2-4.97,5.42-4.97Z"/>
      <path class="cls-1" d="M2379.87,1397.06c2.71-2.99.17-8.78-4.71-7.49-1.07-2.05-2.75-4.82-.81-6.92.49-.53,2.56-1.56,2.65-.04.34,5.85,9.76,5.87,9.42,0-1.6-16.39-25.96-9.7-21.96,4.93-22.02-16.54,3.98-55.79,21.42-27.4,5.63,16.89,10.4-9.46-1.83-17.44-25.82-16.85-56.53,23.61-43.31,46.38-3.23.1-5.91.24-9.64,1.7,4.26-.02,6.46,1.14,8.67,3,4.02,3.37,8.4,6.31,13.14,8.57,5.46,2.6,11.22,4.82,17.14,6.14,6.05,1.36,12.22.24,18.29-.36,5.84-.58,10.84,1.57,15.58,5.01-3.02-.81-5.7,1.49-5.72,4.04.04,2.55,2.71,4.83,5.72,4.02-5.33,4.3-13.1,5.43-22.61,4.16-10.07-1.34-19.4,2.34-28.38,6.62-4.75,2.26-9.12,5.2-13.15,8.58-2.22,1.86-4.42,3.02-8.67,3,3.73,1.47,6.41,1.61,9.64,1.7-13.22,22.77,17.95,63.92,43.31,46.38,7.64-5.35,10.66-16.8,6.44-21.45-.84-.93-2.36-.66-2.85.49-13.85,32.81-47.56-2.82-23.18-23.88-4,14.63,20.35,21.32,21.95,4.93.34-5.87-9.08-5.85-9.42,0-.09,1.51-2.16.48-2.65-.04-1.94-2.1-.25-4.87.82-6.92,4.87,1.29,7.41-4.5,4.7-7.49,6.64-2.54,15.48-4.11,22.35-8.22,5.88.69,15.06-5.54,14.41-11.91.63-6.37-8.54-12.58-14.42-11.89-6.86-4.11-15.7-5.68-22.34-8.22ZM2398.58,1428.86s.01,0,.02,0c-18.1,4.44-38.33,4.79-49.29,22.52,8.16-17.5,27.8-22.14,44.77-22.78,1.51-.06,3.01.06,4.5.26ZM2398.6,1405.5c-18.08.96-40.36-3.81-49.29-22.51,6.17,9.75,16.98,15.58,27.28,18.05,7.16,1.8,14.71,1.98,22.01,4.46Z"/>
      <path class="cls-1" d="M2328.52,1385.57c-13.33-9.22-20.45,18.89-8.68,25.98-6.74-.27-12.29-3.58-17.49-7.21,5.17,2.56,9.76-4.57,5.38-7.53-.33-.22-.7-.39-1.07-.53-16.36-5.86-15.6,17.65-1.98,20.89-13.61,3.23-14.37,26.75,1.98,20.89.38-.14.74-.3,1.07-.53,4.38-2.95-.21-10.09-5.38-7.52,5.2-3.63,10.75-6.94,17.49-7.21-11.78,7.08-4.65,35.2,8.68,25.98-3.45-16.8,14.1-25.88,29.05-28.19,5.93,7.17,17.36-.91,23.28-3.41,0,0-.01,0-.02,0,0,0,.02,0,.02,0-5.94-2.5-17.34-10.59-23.29-3.41-10.93-2.14-24.05-6.62-28.41-17.31-1.74-3.33-.04-7.48-.64-10.88Z"/>
    </g>
    <g>
      <path class="cls-1" d="M2822.54,1439.03c16.98,13.83,31.94-11.69,15.47-21.85,16.46-10.15,1.51-35.68-15.47-21.85-5.47,4.68,2.56,12.4,8,7.75-10.06,8.6-14.33,2.64-23.74-2.98-12.91-7.84-26.73-15.24-42.15-16.7-1.5-.98-2.61-2.4-2.94-4.42-.59-3.66,3.71-6.88,5.66-2.71,3.01,6.42,12.75.84,9.76-5.53-8.19-16.6-32.68-2.08-25.93,12.95-5.62.84-11.24,2.44-16.01,5.51-6.14,1.68-16.89-10.42-10.98-11.09,1.96-.22,3.71,1.08,4.36,2.94.59,1.7,2.18,2.66,3.97,2.88,4.1.5,7.47-3.17,6.95-7.26-3.76-29.95-51.55,3.04-14.66,21.33-5.06,5.3-13.78,13.35-16.17,7.11-.41-1.07-.95-2.09-1.71-2.95-7.45-8.41-15.72,8.78-1.82,15.04-13.97,6.38-5.55,23.4,1.82,15.06.76-.86,1.3-1.89,1.71-2.97,2.38-6.24,11.11,1.81,16.17,7.11-36.88,18.26,10.88,51.29,14.66,21.33.52-4.09-2.85-7.77-6.95-7.26-1.79.22-3.37,1.18-3.97,2.88-.65,1.86-2.4,3.16-4.36,2.94-5.9-.67,4.85-12.78,10.98-11.09,4.77,3.08,10.39,4.67,16.01,5.51-6.76,15.03,17.75,29.54,25.93,12.95,2.98-6.37-6.76-11.95-9.76-5.53-1.95,4.17-6.25.95-5.66-2.71,4.38-8.1,18.18-6.05,26.91-10.77,1.76-.95,3.53-1.86,5.36-2.67,12.59-5.53,23.49-22.12,36.56-10.67-5.44-4.65-13.47,3.07-8,7.75ZM2815.83,1417.18c-6.24,2.04-10.84,5.22-16.23,8.41-4.43-1.81-11.82,7.78-13.25-1.33-5.31-13.42-17.75.15-7.04,10.06-4.15,1.97-40.08,3.48-24.6-4.19,2.67,6.47,13.61,3.65,10.9-2.91-4.7-15.94-29.99-10.59-26.73,5.8-6.99-4.77-12.8-13.48-21.73-15.84,8.93-2.36,14.74-11.06,21.73-15.84-3.25,16.39,22.03,21.75,26.74,5.8,2.71-6.56-8.23-9.38-10.9-2.91-15.51-7.68,20.52-6.15,24.6-4.19-10.71,9.88,1.72,23.48,7.04,10.06,1.42-9.1,8.84.48,13.25-1.33,2.64,1.59,5.28,3.19,7.94,4.72,2.38,1.37,5.24,2.65,8.3,3.69Z"/>
      <path class="cls-1" d="M2694.01,1412.22c3.41,0,5.2,2.4,5.42,4.95h0c.09,6.41-10.91,6.42-10.84.02h0c.21-2.56,2-4.97,5.42-4.97Z"/>
      <path class="cls-1" d="M2651.4,1397.06c2.71-2.99.17-8.78-4.71-7.49-1.07-2.05-2.75-4.82-.81-6.92.49-.53,2.56-1.56,2.65-.04.34,5.85,9.76,5.87,9.42,0-1.6-16.39-25.96-9.7-21.96,4.93-22.02-16.54,3.98-55.79,21.42-27.4,5.63,16.89,10.4-9.46-1.83-17.44-25.82-16.85-56.53,23.61-43.31,46.38-3.23.1-5.91.24-9.64,1.7,4.26-.02,6.46,1.14,8.67,3,4.02,3.37,8.4,6.31,13.14,8.57,5.46,2.6,11.22,4.82,17.14,6.14,6.05,1.36,12.22.24,18.29-.36,5.84-.58,10.84,1.57,15.58,5.01-3.02-.81-5.7,1.49-5.72,4.04.04,2.55,2.71,4.83,5.72,4.02-5.33,4.3-13.1,5.43-22.61,4.16-10.07-1.34-19.4,2.34-28.38,6.62-4.75,2.26-9.12,5.2-13.15,8.58-2.22,1.86-4.42,3.02-8.67,3,3.73,1.47,6.41,1.61,9.64,1.7-13.22,22.77,17.95,63.92,43.31,46.38,7.64-5.35,10.66-16.8,6.44-21.45-.84-.93-2.36-.66-2.85.49-13.85,32.81-47.56-2.82-23.18-23.88-4,14.63,20.35,21.32,21.95,4.93.34-5.87-9.08-5.85-9.42,0-.09,1.51-2.16.48-2.65-.04-1.94-2.1-.25-4.87.82-6.92,4.87,1.29,7.41-4.5,4.7-7.49,6.64-2.54,15.48-4.11,22.35-8.22,5.88.69,15.06-5.54,14.41-11.91.63-6.37-8.54-12.58-14.42-11.89-6.86-4.11-15.7-5.68-22.34-8.22ZM2670.11,1428.86s.01,0,.02,0c-18.1,4.44-38.33,4.79-49.29,22.52,8.16-17.5,27.8-22.14,44.77-22.78,1.51-.06,3.01.06,4.5.26ZM2670.12,1405.5c-18.08.96-40.36-3.81-49.29-22.51,6.17,9.75,16.98,15.58,27.28,18.05,7.16,1.8,14.71,1.98,22.01,4.46Z"/>
      <path class="cls-1" d="M2600.04,1385.57c-13.33-9.22-20.45,18.89-8.68,25.98-6.74-.27-12.29-3.58-17.49-7.21,5.17,2.56,9.76-4.57,5.38-7.53-.33-.22-.7-.39-1.07-.53-16.36-5.86-15.6,17.65-1.98,20.89-13.61,3.23-14.37,26.75,1.98,20.89.38-.14.74-.3,1.07-.53,4.38-2.95-.21-10.09-5.38-7.52,5.2-3.63,10.75-6.94,17.49-7.21-11.78,7.08-4.65,35.2,8.68,25.98-3.45-16.8,14.1-25.88,29.05-28.19,5.93,7.17,17.36-.91,23.28-3.41,0,0-.01,0-.02,0,0,0,.02,0,.02,0-5.94-2.5-17.34-10.59-23.29-3.41-10.93-2.14-24.05-6.62-28.41-17.31-1.74-3.33-.04-7.48-.64-10.88Z"/>
    </g>
    <g>
      <path class="cls-1" d="M3094.07,1439.03c16.98,13.83,31.94-11.69,15.47-21.85,16.46-10.15,1.51-35.68-15.47-21.85-5.47,4.68,2.56,12.4,8,7.75-10.06,8.6-14.33,2.64-23.74-2.98-12.91-7.84-26.73-15.24-42.15-16.7-1.5-.98-2.61-2.4-2.94-4.42-.59-3.66,3.71-6.88,5.66-2.71,3.01,6.42,12.75.84,9.76-5.53-8.19-16.6-32.68-2.08-25.93,12.95-5.62.84-11.24,2.44-16.01,5.51-6.14,1.68-16.89-10.42-10.98-11.09,1.96-.22,3.71,1.08,4.36,2.94.59,1.7,2.18,2.66,3.97,2.88,4.1.5,7.47-3.17,6.95-7.26-3.76-29.95-51.55,3.04-14.66,21.33-5.06,5.3-13.78,13.35-16.17,7.11-.41-1.07-.95-2.09-1.71-2.95-7.45-8.41-15.72,8.78-1.82,15.04-13.97,6.38-5.55,23.4,1.82,15.06.76-.86,1.3-1.89,1.71-2.97,2.38-6.24,11.11,1.81,16.17,7.11-36.88,18.26,10.88,51.29,14.65,21.33.52-4.09-2.85-7.77-6.95-7.26-1.79.22-3.37,1.18-3.97,2.88-.65,1.86-2.4,3.16-4.36,2.94-5.9-.67,4.85-12.78,10.98-11.09,4.77,3.08,10.39,4.67,16.01,5.51-6.76,15.03,17.75,29.54,25.93,12.95,2.98-6.37-6.76-11.95-9.76-5.53-1.95,4.17-6.25.95-5.66-2.71,4.38-8.1,18.18-6.05,26.91-10.77,1.76-.95,3.53-1.86,5.36-2.67,12.59-5.53,23.49-22.12,36.56-10.67-5.44-4.65-13.47,3.07-8,7.75ZM3087.36,1417.18c-6.24,2.04-10.84,5.22-16.23,8.41-4.43-1.81-11.82,7.78-13.25-1.33-5.31-13.42-17.75.15-7.04,10.06-4.15,1.97-40.08,3.48-24.6-4.19,2.67,6.47,13.61,3.65,10.9-2.91-4.7-15.94-29.99-10.59-26.73,5.8-6.99-4.77-12.8-13.48-21.73-15.84,8.93-2.36,14.74-11.06,21.73-15.84-3.25,16.39,22.03,21.75,26.74,5.8,2.71-6.56-8.23-9.38-10.9-2.91-15.51-7.68,20.52-6.15,24.6-4.19-10.71,9.88,1.72,23.48,7.04,10.06,1.42-9.1,8.84.48,13.25-1.33,2.64,1.59,5.28,3.19,7.94,4.72,2.38,1.37,5.24,2.65,8.3,3.69Z"/>
      <path class="cls-1" d="M2965.53,1412.22c3.41,0,5.2,2.4,5.42,4.95h0c.09,6.41-10.91,6.42-10.84.02h0c.21-2.56,2-4.97,5.42-4.97Z"/>
      <path class="cls-1" d="M2922.92,1397.06c2.71-2.99.17-8.78-4.71-7.49-1.07-2.05-2.75-4.82-.81-6.92.49-.53,2.56-1.56,2.65-.04.34,5.85,9.76,5.87,9.42,0-1.6-16.39-25.96-9.7-21.96,4.93-22.02-16.54,3.98-55.79,21.42-27.4,5.63,16.89,10.4-9.46-1.83-17.44-25.82-16.85-56.53,23.61-43.31,46.38-3.23.1-5.91.24-9.64,1.7,4.26-.02,6.46,1.14,8.67,3,4.02,3.37,8.4,6.31,13.14,8.57,5.46,2.6,11.22,4.82,17.14,6.14,6.05,1.36,12.22.24,18.29-.36,5.84-.58,10.84,1.57,15.58,5.01-3.02-.81-5.7,1.49-5.72,4.04.04,2.55,2.71,4.83,5.72,4.02-5.33,4.3-13.1,5.43-22.61,4.16-10.07-1.34-19.4,2.34-28.38,6.62-4.75,2.26-9.12,5.2-13.15,8.58-2.22,1.86-4.42,3.02-8.67,3,3.73,1.47,6.41,1.61,9.64,1.7-13.22,22.77,17.95,63.92,43.31,46.38,7.64-5.35,10.66-16.8,6.44-21.45-.84-.93-2.36-.66-2.85.49-13.85,32.81-47.56-2.82-23.18-23.88-4,14.63,20.35,21.32,21.95,4.93.34-5.87-9.08-5.85-9.42,0-.09,1.51-2.16.48-2.65-.04-1.94-2.1-.25-4.87.82-6.92,4.87,1.29,7.41-4.5,4.71-7.49,6.64-2.54,15.48-4.11,22.35-8.22,5.88.69,15.06-5.54,14.41-11.91.63-6.37-8.54-12.58-14.42-11.89-6.86-4.11-15.7-5.68-22.34-8.22ZM2941.63,1428.86s.01,0,.02,0c-18.1,4.44-38.33,4.79-49.29,22.52,8.16-17.5,27.8-22.14,44.77-22.78,1.51-.06,3.01.06,4.5.26ZM2941.64,1405.5c-18.08.96-40.36-3.81-49.29-22.51,6.17,9.75,16.98,15.58,27.28,18.05,7.16,1.8,14.71,1.98,22.01,4.46Z"/>
      <path class="cls-1" d="M2871.57,1385.57c-13.33-9.22-20.45,18.89-8.68,25.98-6.74-.27-12.29-3.58-17.49-7.21,5.17,2.56,9.76-4.57,5.38-7.53-.33-.22-.7-.39-1.07-.53-16.36-5.86-15.6,17.65-1.98,20.89-13.61,3.23-14.37,26.75,1.98,20.89.38-.14.74-.3,1.07-.53,4.38-2.95-.21-10.09-5.38-7.52,5.2-3.63,10.75-6.94,17.49-7.21-11.78,7.08-4.65,35.2,8.68,25.98-3.45-16.8,14.1-25.88,29.05-28.19,5.93,7.17,17.36-.91,23.28-3.41,0,0-.01,0-.02,0,0,0,.02,0,.02,0-5.94-2.5-17.34-10.59-23.29-3.41-10.93-2.14-24.05-6.62-28.41-17.31-1.74-3.33-.04-7.48-.64-10.88Z"/>
    </g>
  </g>
</svg>
