<svg xmlns="http://www.w3.org/2000/svg" xmlns:xlink="http://www.w3.org/1999/xlink" viewBox="4.61 -0.01 136.95 71.46">

<g>
    <g>
      <path d="M73.08,66.59c-2.27.03-4.6-.78-6.23-2.4l-.07.07c.57,1.08,1.55,1.93,2.67,2.48,1.12.57,2.38.84,3.64.84,1.26-.03,2.5-.3,3.61-.83,1.11-.52,2.11-1.26,2.85-2.22l-.06-.08c-1.88,1.31-4.13,2.13-6.41,2.13Z"/>
      <path d="M73.42,10.71l-.19-.2-.18.22c-1.42,1.77-1.83,3.39-1.75,4.74-.94-.79-2.33-1.42-4.39-1.46h-.26s0,.26,0,.26c0,.06.35,5.66,6.38,5.85h.2c6.03-.19,6.38-5.79,6.38-5.85l.02-.27h-.27c-2.03.05-3.42.67-4.36,1.45.31-2.81-1.56-4.72-1.59-4.74ZM67.19,14.52c1.81.09,3.22.67,4.21,1.73.06.06.11.11.16.17.74.86,1.07,1.85,1.21,2.54.03.14.05.27.07.38-.44-.5-.91-.94-1.38-1.4-.6-.54-1.19-1.09-1.85-1.57.52.63,1.1,1.19,1.68,1.75.51.46,1.02.92,1.56,1.34,0,.06,0,.11,0,.15-4.71-.25-5.54-4.02-5.67-5.09ZM73.23,18.06v-1.51c-.04-.8-.07-1.6-.2-2.41-.08.81-.06,1.62-.05,2.42.02.55.06,1.1.11,1.64-.12-.38-.27-.76-.48-1.14-.19-.34-.44-.71-.76-1.06-.01-.03-.02-.06-.02-.09-.23-1.52.25-3.08,1.43-4.64.49.59,1.73,2.35,1.16,4.74-.32.35-.56.71-.75,1.05-.18.34-.33.67-.44,1ZM79.1,14.52c-.14,1.07-.97,4.84-5.68,5.09,0-.04.01-.08.01-.14.54-.43,1.05-.89,1.56-1.35.58-.56,1.16-1.12,1.68-1.75-.66.48-1.25,1.03-1.85,1.57-.47.46-.94.9-1.38,1.4.02-.12.04-.26.08-.41.14-.68.47-1.66,1.2-2.51.04-.05.08-.09.14-.14.98-1.08,2.41-1.67,4.24-1.76Z"/>
      <path d="M124.44,17.86c-.86-.28-1.81-.24-2.6.15l.04.09c1.57-.63,3.64.2,3.99,1.77.05.23.07.47.05.71-.02.33-.11.66-.25.97-.08.2-.19.38-.31.56-.44.67-1.11,1.13-1.85,1.44-1.5.59-3.26.59-4.92.48-1.68-.13-3.29-.54-4.77-1.32-.8-.42-1.57-.91-2.32-1.44-.46-.32-.9-.65-1.35-1-1.55-1.17-3.08-2.43-4.78-3.48-1.48-.94-3.08-1.74-4.78-2.25-1.7-.52-3.52-.69-5.28-.45-.59.08-1.17.23-1.74.42-.09-.39-.21-.78-.37-1.15-.36-.85-.9-1.64-1.61-2.25-.71-.62-1.58-1.02-2.48-1.22-1.79-.43-3.74.03-5.18,1.1-1.03.75-1.83,1.77-2.36,2.9-.35-2.01-1.41-3.77-2.9-5.04-1.49-1.27-3.43-2.03-5.53-2.03-4.34,0-7.93,3.24-8.49,7.44-.54-1.26-1.39-2.43-2.54-3.27-1.44-1.07-3.39-1.53-5.19-1.1-.89.2-1.76.6-2.47,1.22-.71.61-1.25,1.4-1.61,2.25-.16.37-.28.76-.37,1.15-.57-.19-1.15-.34-1.75-.42-1.76-.24-3.57-.07-5.27.45-1.7.51-3.3,1.31-4.78,2.25-1.7,1.05-3.23,2.31-4.78,3.48-.45.35-.89.68-1.35,1-.75.53-1.52,1.02-2.32,1.44-1.48.78-3.09,1.19-4.77,1.32-1.66.11-3.42.11-4.92-.48-.75-.31-1.41-.77-1.86-1.44-.11-.17-.21-.35-.3-.53-.13-.31-.22-.64-.25-.97-.02-.25,0-.5.05-.74.34-1.57,2.41-2.4,3.99-1.77l.04-.09c-.79-.39-1.75-.43-2.61-.15-.85.27-1.65.95-1.91,1.89-.09.33-.12.66-.1.99.01.34.08.67.19.99.4,1.13,1.36,2.09,2.45,2.54,1.72.73,3.53.77,5.29.73,1.78-.07,3.59-.55,5.18-1.37,1.32-.66,2.51-1.5,3.64-2.36.43-.33.85-.67,1.26-1,1.18-.94,2.34-1.89,3.59-2.69,2.81-1.87,6.08-3.24,9.48-2.95.58.06,1.15.18,1.71.34-.23,1.23-.2,2.5-.04,3.72.08.53.2,1.06.36,1.58.1.34.22.67.36,1,.36.82.85,1.65,1.68,2.17.84.5,1.93.51,2.72-.1.38-.33.58-.8.65-1.25.04-.28.05-.55.03-.82-.01-.18-.03-.35-.06-.53-.03-.16-.06-.32-.1-.47-.37-1.57-1.24-3.01-2.45-4.07-.66-.58-1.41-1.04-2.21-1.39.09-.38.2-.76.34-1.12.58-1.51,1.86-2.69,3.45-3.06,1.57-.4,3.32-.14,4.71.79,1.21.78,2.16,1.94,2.79,3.27-.01.23-.02.46-.02.69,0,1.82.57,3.51,1.54,4.89.25.36.53.69.83,1,1.56,1.64,3.76,2.66,6.19,2.66s4.63-1.02,6.19-2.66c.3-.31.58-.64.83-1,.97-1.38,1.54-3.07,1.54-4.89,0-.38-.02-.75-.07-1.1.63-1.16,1.51-2.16,2.6-2.86,1.38-.93,3.13-1.19,4.71-.79,1.59.37,2.87,1.55,3.44,3.06.15.36.26.74.35,1.12-.81.35-1.56.81-2.22,1.39-1.2,1.06-2.08,2.5-2.44,4.07-.04.15-.07.31-.1.47-.03.18-.05.35-.06.53-.02.27,0,.54.03.82.07.45.26.92.65,1.25.79.61,1.88.6,2.72.1.83-.52,1.31-1.35,1.67-2.17.14-.33.26-.66.36-1,.16-.52.29-1.05.37-1.58.16-1.22.19-2.49-.04-3.72.56-.16,1.13-.28,1.71-.34,3.4-.29,6.67,1.08,9.48,2.95,1.24.8,2.4,1.74,3.58,2.69.42.33.84.67,1.27,1,1.13.86,2.32,1.7,3.64,2.36,1.59.82,3.39,1.3,5.17,1.37,1.77.04,3.58,0,5.3-.73,1.11-.46,2.07-1.43,2.46-2.58.11-.32.17-.65.19-.98.01-.32-.02-.64-.11-.96-.26-.94-1.06-1.62-1.92-1.89ZM55.29,16.47c1.15.97,2.02,2.32,2.34,3.8.05.17.08.34.1.52.02.16.04.32.04.48.03.68-.1,1.36-.58,1.75-.61.43-1.56.38-2.16-.05-.56-.39-.95-1.03-1.23-1.7-.03-.09-.07-.17-.1-.26-.09-.24-.16-.49-.23-.74-.15-.56-.25-1.13-.32-1.69-.14-1.12-.11-2.25.08-3.34.75.3,1.45.69,2.06,1.23ZM78.89,20.27c-.3.36-.65.69-1.02,1-1.29,1.03-2.95,1.66-4.73,1.66s-3.44-.63-4.73-1.66c-.37-.31-.72-.64-1.02-1-1.13-1.32-1.81-3.03-1.81-4.89,0-4.17,3.39-7.56,7.56-7.56s7.56,3.39,7.56,7.56c0,1.86-.68,3.57-1.81,4.89ZM92.89,18.58c-.07.56-.17,1.13-.32,1.69-.07.25-.15.5-.24.74-.03.09-.06.17-.1.26-.27.67-.66,1.31-1.22,1.7-.6.43-1.55.48-2.16.05-.48-.39-.61-1.07-.58-1.75,0-.16.02-.32.04-.48.02-.18.05-.35.09-.52.33-1.48,1.19-2.83,2.35-3.8.6-.54,1.31-.93,2.05-1.23.2,1.09.23,2.22.09,3.34Z"/>
      <path d="M41.43,21.27l1.05-.75c.12-.09.24-.17.36-.25.89-.63,1.8-1.22,2.79-1.67,1.12-.52,2.34-.83,3.57-.75v-.1c-1.22-.45-2.65-.3-3.89.13-1.26.42-2.37,1.11-3.41,1.82-.26.19-.51.38-.76.57-.43.32-.84.65-1.25,1-.3.24-.6.5-.9.77-.93.83-1.82,1.71-2.61,2.72l.05.09,5-3.58Z"/>
      <path d="M63.36,21.27c.24.36.5.7.79,1.02,1.58,1.71,3.73,2.82,5.99,3.32l.02-.1c-1.04-.6-2-1.16-2.89-1.79-.88-.64-1.69-1.32-2.38-2.11-.1-.11-.2-.22-.29-.34-.28-.31-.53-.65-.77-1-.27-.39-.51-.8-.74-1.23-.49-.95-.87-1.97-1.16-3.13h-.1c-.1,1.5.26,3.01.94,4.36.17.35.37.68.59,1Z"/>
      <path d="M99.52,19.18c.57.33,1.13.7,1.68,1.09.42.28.85.59,1.27.9.05.03.09.06.14.1.95.67,1.94,1.34,2.97,1.93,1.08.62,2.19,1.2,3.4,1.65l.06-.09-4.75-3.49-1.24-.91s-.09-.06-.13-.09c-.98-.68-1.98-1.33-3.08-1.81-1.13-.5-2.39-.81-3.64-.71v.1c1.26.27,2.31.74,3.32,1.33Z"/>
      <path d="M78.83,24.96c1.14-.47,2.17-1.22,3.03-2.14.42-.47.79-.99,1.11-1.55.17-.32.33-.65.45-1,.1-.24.18-.48.24-.73.33-1.2.35-2.5-.07-3.64h-.1c.07,1.53-.31,3.04-1.03,4.37-.19.35-.39.68-.62,1-.22.31-.46.6-.72.88-1.53,1.71-3.64,2.84-5.86,3.36l.02.1c1.2.08,2.42-.17,3.55-.65Z"/>
      <path d="M73.08,4.87c2.29,0,4.54.82,6.41,2.13l.06-.08c-.74-.96-1.74-1.7-2.85-2.22-1.11-.53-2.35-.81-3.61-.83-1.26,0-2.53.27-3.64.84-1.11.56-2.1,1.41-2.67,2.48l.07.07c1.64-1.62,3.96-2.43,6.23-2.4Z"/>
      <path d="M73.24,51.34h-.2c-6.03.19-6.38,5.79-6.38,5.85v.27s.25,0,.25,0c2.06-.04,3.45-.67,4.39-1.46-.08,1.35.33,2.97,1.75,4.74l.18.22.19-.2s1.9-1.93,1.59-4.74c.94.78,2.33,1.4,4.36,1.44h.27s-.02-.26-.02-.26c0-.06-.35-5.66-6.38-5.85ZM71.4,55.21c-.99,1.06-2.4,1.64-4.21,1.73.13-1.07.96-4.84,5.67-5.09,0,.04,0,.09,0,.15-.54.42-1.05.88-1.56,1.34-.58.56-1.16,1.12-1.68,1.75.66-.48,1.25-1.03,1.85-1.57.47-.46.94-.9,1.38-1.4-.02.11-.04.24-.07.38-.14.69-.47,1.68-1.21,2.54-.05.06-.1.11-.16.17ZM73.26,60.19c-1.18-1.56-1.66-3.12-1.43-4.64,0-.03.01-.06.02-.09.32-.35.57-.72.76-1.06.21-.38.36-.76.47-1.12-.04.52-.08,1.07-.1,1.62-.01.8-.03,1.61.05,2.42.13-.81.16-1.61.2-2.41,0-.52,0-1.04-.01-1.55.12.37.27.7.45,1.04.19.34.43.7.75,1.05.57,2.39-.67,4.15-1.16,4.74ZM74.86,55.18c-.06-.05-.1-.09-.14-.14-.73-.85-1.06-1.83-1.2-2.51-.04-.15-.06-.29-.08-.41.44.5.91.94,1.38,1.4.6.54,1.19,1.09,1.85,1.57-.52-.63-1.1-1.19-1.68-1.75-.51-.46-1.02-.92-1.56-1.34,0-.07-.01-.11-.01-.15,4.71.25,5.54,4.02,5.68,5.09-1.83-.09-3.26-.68-4.24-1.76Z"/>
      <path d="M123.82,47.19c-1.72-.73-3.53-.77-5.3-.73-1.78.07-3.58.55-5.17,1.37-1.32.66-2.51,1.5-3.64,2.36-.43.33-.85.67-1.27,1-1.18.95-2.34,1.89-3.58,2.69-2.81,1.87-6.08,3.24-9.48,2.95-.58-.06-1.15-.18-1.71-.34.23-1.23.2-2.5.04-3.72-.08-.53-.21-1.06-.37-1.58-.1-.34-.22-.67-.36-1-.36-.82-.84-1.65-1.67-2.17-.84-.5-1.93-.51-2.72.1-.39.33-.58.8-.65,1.25-.04.28-.05.55-.03.82.01.18.03.35.06.53.03.16.06.32.1.47.36,1.57,1.24,3.01,2.44,4.07.66.58,1.41,1.04,2.22,1.39-.09.38-.2.76-.35,1.12-.57,1.51-1.85,2.69-3.44,3.06-1.58.4-3.33.14-4.71-.79-1.09-.7-1.97-1.7-2.6-2.86.05-.35.07-.72.07-1.1,0-1.82-.57-3.51-1.54-4.89-.25-.36-.53-.69-.83-1-1.56-1.64-3.76-2.66-6.19-2.66s-4.63,1.02-6.19,2.66c-.3.31-.58.64-.83,1-.97,1.38-1.54,3.07-1.54,4.89,0,.23.01.46.02.69-.63,1.33-1.58,2.49-2.79,3.27-1.39.93-3.14,1.19-4.71.79-1.59-.37-2.87-1.55-3.45-3.06-.14-.36-.25-.74-.34-1.12.8-.35,1.55-.81,2.21-1.39,1.21-1.06,2.08-2.5,2.45-4.07.04-.15.07-.31.1-.47.03-.18.05-.35.06-.53.02-.27.01-.54-.03-.82-.07-.45-.27-.92-.65-1.25-.79-.61-1.88-.6-2.72-.1-.83.52-1.32,1.35-1.68,2.17-.14.33-.26.66-.36,1-.16.52-.28,1.05-.36,1.58-.16,1.22-.19,2.49.04,3.72-.56.16-1.13.28-1.71.34-3.4.29-6.67-1.08-9.48-2.95-1.25-.8-2.41-1.75-3.59-2.69-.41-.33-.83-.67-1.26-1-1.13-.86-2.32-1.7-3.64-2.36-1.59-.82-3.4-1.3-5.18-1.37-1.76-.04-3.57,0-5.29.73-1.09.45-2.05,1.41-2.45,2.54-.11.32-.18.65-.19.99-.02.33.01.66.1.99.26.94,1.06,1.62,1.91,1.89.86.28,1.82.24,2.61-.15l-.04-.09c-1.58.63-3.65-.2-3.99-1.77-.05-.24-.07-.49-.05-.74.03-.33.12-.66.25-.97.09-.18.19-.36.3-.53.45-.67,1.11-1.13,1.86-1.44,1.5-.59,3.26-.59,4.92-.48,1.68.13,3.29.54,4.77,1.32.8.42,1.57.91,2.32,1.44.46.32.9.65,1.35,1,1.55,1.17,3.08,2.43,4.78,3.48,1.48.94,3.08,1.74,4.78,2.25,1.7.52,3.51.69,5.27.45.6-.08,1.18-.23,1.75-.42.09.39.21.78.37,1.15.36.85.9,1.64,1.61,2.25.71.62,1.58,1.02,2.47,1.22,1.8.43,3.75-.03,5.19-1.1,1.15-.84,2-2.01,2.53-3.3.57,4.23,4.16,7.47,8.5,7.47,2.1,0,4.04-.76,5.53-2.03s2.55-3.03,2.9-5.04c.53,1.13,1.33,2.15,2.36,2.9,1.44,1.07,3.39,1.53,5.18,1.1.9-.2,1.77-.6,2.48-1.22.71-.61,1.25-1.4,1.61-2.25.16-.37.28-.76.37-1.15.57.19,1.15.34,1.74.42,1.76.24,3.58.07,5.28-.45,1.7-.51,3.3-1.31,4.78-2.25,1.7-1.05,3.23-2.31,4.78-3.48.45-.35.89-.68,1.35-1,.75-.53,1.52-1.02,2.32-1.44,1.48-.78,3.09-1.19,4.77-1.32,1.66-.11,3.42-.11,4.92.48.74.31,1.41.77,1.85,1.44.12.18.23.36.31.56.14.31.23.64.25.97.02.24,0,.48-.05.71-.35,1.57-2.42,2.4-3.99,1.77l-.04.09c.79.39,1.74.43,2.6.15.86-.27,1.66-.95,1.92-1.89.09-.32.12-.64.11-.96-.02-.33-.08-.66-.19-.98-.39-1.15-1.35-2.12-2.46-2.58ZM53.15,52.88c.07-.56.17-1.13.32-1.69.07-.25.14-.5.23-.74.03-.09.07-.17.1-.26.28-.67.67-1.31,1.23-1.7.6-.43,1.55-.48,2.16-.05.48.39.61,1.07.58,1.75,0,.16-.02.32-.04.48-.02.18-.05.35-.1.52-.32,1.48-1.19,2.83-2.34,3.8-.61.54-1.31.93-2.06,1.23-.19-1.09-.22-2.22-.08-3.34ZM73.14,63.64c-4.17,0-7.56-3.39-7.56-7.56,0-1.86.68-3.57,1.81-4.89.3-.36.65-.69,1.02-1,1.29-1.03,2.95-1.66,4.73-1.66s3.44.63,4.73,1.66c.37.31.72.64,1.02,1,1.13,1.32,1.81,3.03,1.81,4.89,0,4.17-3.39,7.56-7.56,7.56ZM92.8,56.22c-.74-.3-1.45-.69-2.05-1.23-1.16-.97-2.02-2.32-2.35-3.8-.04-.17-.07-.34-.09-.52-.02-.16-.04-.32-.04-.48-.03-.68.1-1.36.58-1.75.61-.43,1.56-.38,2.16.05.56.39.95,1.03,1.22,1.7.04.09.07.17.1.26.09.24.17.49.24.74.15.56.25,1.13.32,1.69.14,1.12.11,2.25-.09,3.34Z"/>
      <path d="M38.99,49.42c.3.27.6.53.9.77.41.35.82.68,1.25,1,.25.19.5.38.76.57,1.04.71,2.15,1.4,3.41,1.82,1.24.43,2.67.58,3.9.13v-.1c-1.24.08-2.46-.23-3.58-.75-.99-.45-1.9-1.04-2.79-1.67-.12-.08-.24-.16-.36-.25l-1.05-.75-5-3.58-.05.09c.79,1.01,1.68,1.89,2.61,2.72Z"/>
      <path d="M61.93,55.55c.29-1.16.67-2.18,1.16-3.13.23-.43.47-.84.74-1.23.24-.35.49-.69.77-1,.09-.12.19-.23.29-.34.69-.79,1.5-1.47,2.38-2.11.89-.63,1.85-1.19,2.89-1.79l-.02-.1c-2.26.5-4.41,1.61-5.99,3.32-.29.32-.55.66-.79,1.02-.22.32-.42.65-.59,1-.68,1.35-1.04,2.86-.94,4.37h.1Z"/>
      <path d="M99.84,53c1.1-.48,2.1-1.13,3.08-1.81.04-.03.09-.06.13-.09l1.24-.91,4.75-3.49-.06-.09c-1.21.45-2.32,1.03-3.4,1.65-1.03.59-2.02,1.26-2.97,1.93-.05.04-.09.07-.14.1-.42.31-.85.62-1.27.9-.55.39-1.11.76-1.68,1.09-1.01.59-2.06,1.06-3.31,1.33v.1c1.24.1,2.5-.21,3.63-.71Z"/>
      <path d="M81.12,49.31c.26.28.5.57.72.88.23.32.43.65.62,1,.72,1.33,1.1,2.84,1.03,4.36h.1c.42-1.13.4-2.43.07-3.63-.06-.25-.14-.49-.24-.73-.12-.35-.28-.68-.45-1-.32-.56-.69-1.08-1.11-1.55-.86-.92-1.89-1.67-3.03-2.14-1.13-.48-2.35-.73-3.55-.65l-.02.1c2.22.52,4.33,1.65,5.86,3.36Z"/>
      <path d="M15.81,23.49c.12.05.26.09.41.09.56,0,1.02-.46,1.02-1.02s-.46-1.02-1.02-1.02-1.02.46-1.02,1.02c0,.04.02.08.02.12-4.05,2.64-6.73,7.2-6.73,12.39v1.33c0,5.18,2.69,9.75,6.73,12.39,0,.04-.02.08-.02.12,0,.56.46,1.02,1.02,1.02s1.02-.46,1.02-1.02-.46-1.02-1.02-1.02c-.15,0-.28.03-.41.09-3.8-2.46-6.32-6.72-6.32-11.58v-1.33c0-4.86,2.52-9.12,6.32-11.58Z"/>
      <path d="M131.03,22.72c0-.06.03-.11.03-.17,0-.56-.46-1.02-1.02-1.02s-1.02.46-1.02,1.02.46,1.02,1.02,1.02c.13,0,.25-.03.37-.07,3.78,2.46,6.28,6.72,6.28,11.57v1.33c0,4.84-2.51,9.1-6.28,11.57-.11-.04-.24-.07-.37-.07-.56,0-1.02.46-1.02,1.02s.46,1.02,1.02,1.02,1.02-.46,1.02-1.02c0-.06-.02-.11-.03-.17,4.01-2.65,6.66-7.19,6.66-12.35v-1.33c0-5.16-2.65-9.7-6.66-12.35Z"/>
    </g>
    <g>
      <polygon points="58.45 31.61 57.52 31.61 57.52 31.38 59.35 31.38 59.35 31.61 58.79 31.61 55.9 39.9 54.89 39.9 51.83 31.61 51.28 31.61 51.28 31.38 55.2 31.38 55.2 31.61 54.35 31.61 56.36 37.6 58.45 31.61"/>
      <path d="M62.26,34.07v5.49h.67v.22h-3.56v-.22h.66v-5.28h-.71v-.22h2.94ZM61.18,31.01c.74,0,1.19.37,1.19,1.1,0,.64-.35,1.13-1.21,1.13-.97,0-1.2-.61-1.2-1.12,0-.59.32-1.12,1.22-1.12Z"/>
      <path d="M66.08,34.07v1.1c.2-.6.6-1.22,1.79-1.22,1.12,0,1.86.55,1.86,2v3.61h.67v.22h-3.39v-.22h.49v-3.9c0-1.02-.14-1.14-.44-1.14-.5,0-.97.76-.97,1.73v3.31h.52v.22h-3.41v-.22h.66v-5.28h-.66v-.22h2.89Z"/>
      <path d="M71.1,34.28h-.66v-.22h.66v-1.55l2.23-.55v2.1h1.56v.22h-1.56v4.04c0,.71.11,1.09.53,1.09.58,0,.94-.53,1.04-1.34l.2.02c-.11.94-.5,1.8-1.97,1.8-1.19,0-2.04-.35-2.04-1.84v-3.78Z"/>
      <path d="M78.46,36.96v-.92c0-1.52-.13-1.92-.61-1.92-.22,0-.56.1-.56.48,0,.1.02.22.07.35h.3c.06.16.1.31.1.54,0,.56-.46.94-1.06.94-.74,0-1.03-.41-1.03-1,0-1.01.88-1.48,2.51-1.48,1.88,0,2.52.53,2.52,2.27v2.43c0,.49.14.62.35.62.22,0,.42-.23.48-1.24h.18c-.06,1.45-.5,1.86-1.54,1.86-.97,0-1.51-.3-1.66-.89-.19.58-.54.89-1.38.89s-1.77-.25-1.77-1.45,1.04-1.49,2.76-1.49h.35ZM78.46,38.26v-1.12h-.08c-.5,0-.74.36-.74,1.09v.19c0,.86.08.98.31.98s.52-.38.52-1.15Z"/>
      <path d="M86.9,33.24c.04-.19-.04-.37-.29-.37-.16,0-.52.05-.52.79,0,.19.02.43.08.72.47.31.91.73.91,1.52,0,1.37-.98,2.05-2.45,2.05-.35,0-.72-.05-.97-.1-.42.26-.53.4-.53.5s.13.17.77.17h1.22c1.36,0,2.72.32,2.72,1.95,0,1.33-.96,2.29-3.38,2.29-2.09,0-2.96-.5-2.96-1.28,0-.6.5-.84.92-.96l.72.32c-.07.26-.1.47-.1.66,0,.5.25,1.03,1.54,1.03s1.94-.52,1.94-1.27c0-.58-.26-.8-1.52-.8h-1.16c-1.43,0-1.81-.59-1.81-1.12,0-.68.43-1.02,1.37-1.58-.94-.26-1.39-.83-1.39-1.82,0-1.13.78-2,2.59-2,.59,0,.94.08,1.33.3-.05-.22-.07-.41-.07-.59,0-.98.68-1.27,1.18-1.27.56,0,.97.31.97.89s-.36.79-.76.79c-.36,0-.67-.22-.7-.62l.34-.2ZM84.03,36.33c0,1.13.2,1.38.56,1.38.32,0,.53-.19.53-1.44v-.59c0-1.34-.19-1.52-.52-1.52s-.58.22-.58,1.52v.65Z"/>
      <path d="M90.8,33.95c1.88,0,2.69.95,2.61,2.73h-3.38v.47c0,1.42.25,2.37,1.41,2.37.89,0,1.49-.56,1.75-1.49l.22.04c-.28,1.03-.9,1.82-2.6,1.82-2.13,0-3.09-1.22-3.09-2.96,0-2.08,1.42-2.99,3.08-2.99ZM91.28,36.44v-.59c0-1.26-.1-1.68-.59-1.68-.42,0-.65.41-.65,1.68v.59h1.24Z"/>
    </g>
  </g>
</svg>
