<svg xmlns="http://www.w3.org/2000/svg" xmlns:xlink="http://www.w3.org/1999/xlink" viewBox="1561.2 795.95 77.46 86.99">
<defs>
    <style>
      .cls-1 {
        fill: url(#linear-gradient-2);
      }

      .cls-2 {
        fill: url(#linear-gradient-4);
      }

      .cls-3 {
        fill: url(#linear-gradient-3);
      }

      .cls-4 {
        fill: currentColor;
      }

      .cls-5 {
        fill: url(#linear-gradient);
      }
    </style>
    <linearGradient id="linear-gradient" x1="658.88" y1="1742.23" x2="2464.44" y2="-63.33" gradientUnits="userSpaceOnUse">
      <stop offset="0" stop-color="currentColor"/>
      <stop offset="1" stop-color="currentColor"/>
    </linearGradient>
    <linearGradient id="linear-gradient-2" x1="905.66" y1="839.45" x2="2217.66" y2="839.45" xlink:href="#linear-gradient"/>
    <linearGradient id="linear-gradient-3" x1="775.16" y1="840.45" x2="808.16" y2="840.45" xlink:href="#linear-gradient"/>
    <linearGradient id="linear-gradient-4" x1="2315.16" y1="840.45" x2="2348.16" y2="840.45" xlink:href="#linear-gradient"/>
  </defs>
<path class="cls-4" d="M1636.2,838.68c0,27.2-16.6,41.8-36.86,41.8s-35.68-16.37-35.68-40.39c0-25.2,15.54-41.68,36.74-41.68s35.8,16.6,35.8,40.27ZM1574.5,839.86c0,17.07,9.18,32.26,25.43,32.26s25.43-14.95,25.43-32.97c0-15.9-8.24-32.38-25.32-32.38s-25.55,15.78-25.55,33.09Z"/>
</svg>
