<?xml version="1.0" encoding="UTF-8"?>
<svg id="Layer_1" data-name="Layer 1" xmlns="http://www.w3.org/2000/svg" viewBox="0 0 4000 4000">
  <defs>
    <style>
      .cls-1 {
        fill: none;
      }

      .cls-2 {
        fill: none;
      }

      .cls-3 {
        fill: currentColor;
      }

      .cls-3, .cls-4 {
        fill-rule: evenodd;
        opacity: .3;
      }

      .cls-4 {
        fill: currentColor;
      }
    </style>
  </defs>
  <rect class="cls-1" x="16.53" y="16.53" width="3966.94" height="3966.94"/>
  <path class="cls-3" d="M16.53,16.53h3966.94v162.71c-840.87,55.75-1248.23,115.39-1644.57,931.39-421.49,867.77-1425.41,571.06-1586.78,1809.92-52.37,402.09-6.72,761.18,78.79,1062.93H16.53V16.53Z"/>
  <path class="cls-3" d="M2867.75,3983.47H16.53V121.73c7.87,285.58,83.72,1077.93,667.42,1435.2,719.01,440.09,1667.36,458.68,1797.52,1518.6,40.27,327.93,180.89,639.79,386.28,907.95"/>
  <path class="cls-3" d="M3983.47,1042.8v2940.67H16.53v-1098.94c342.83-41.47,817.39-42.12,1324.43,129.01,991.74,334.71,1896.7,731.41,2206.61-260.33,252.86-809.13,18.97-1222.19,435.89-1710.42"/>
  <path class="cls-4" d="M16.53,16.53h3966.94v3458.84c-1523.4-576.08-491.53-1612.76-342.91-2147.79,154.96-557.85,68.18-973.14-688.02-780.99C2196.35,738.73,2000,16.53,1031.06,100.3,490.81,147.01,183.12,326.6,16.53,476.38V16.53Z"/>
  <path class="cls-4" d="M1154.87,16.53h2828.6v3966.94H1728.27c631.88-79.89,1490.1-462.43,1103.43-948.24-483.47-607.44,582.65-1214.88-223.14-2020.67C2188.36,594.37,1616.53,251.77,1154.87,16.53"/>
  <path class="cls-4" d="M16.53,16.53h3966.94v374.52c-115.55-2.25-291.33,65.15-569.09,233.02-1128.1,681.82-1066.12-464.88-2256.2-216.94C626.91,517.82,260.03,750.78,16.53,974.8V16.53Z"/>
  <rect class="cls-2" width="4000" height="4000"/>
</svg>