0
SECTION
2
HEADER
9
$INSUNITS
70
4
0
ENDSEC
0
SECTION
2
ENTITIES
0
LWPOLYLINE
8
CUT
90
20
70
1
10
49.7
20
0
10
119.7
20
0
10
119.7
20
-38.5
10
154.7
20
-38.5
10
154.7
20
-52.5
10
224.7
20
-52.5
10
224.7
20
-192.5
10
154.7
20
-192.5
10
154.7
20
-206.5
10
119.7
20
-206.5
10
119.7
20
-245
10
49.7
20
-245
10
49.7
20
-206.5
10
14.7
20
-206.5
10
14.7
20
-192.5
10
0
20
-192.5
10
0
20
-52.5
10
14.7
20
-52.5
10
14.7
20
-38.5
10
49.7
20
-38.5
0
LINE
8
CREASE
10
14.7
20
-52.5
11
14.7
21
-192.5
0
LINE
8
CREASE
10
49.7
20
-52.5
11
49.7
21
-192.5
0
LINE
8
CREASE
10
119.7
20
-52.5
11
119.7
21
-192.5
0
LINE
8
CREASE
10
154.7
20
-52.5
11
154.7
21
-192.5
0
LINE
8
CREASE
10
49.7
20
-17.5
11
119.7
21
-17.5
0
LINE
8
CREASE
10
49.7
20
-52.5
11
119.7
21
-52.5
0
LINE
8
CREASE
10
49.7
20
-192.5
11
119.7
21
-192.5
0
LINE
8
CREASE
10
49.7
20
-227.5
11
119.7
21
-227.5
0
LINE
8
CREASE
10
14.7
20
-52.5
11
49.7
21
-52.5
0
LINE
8
CREASE
10
119.7
20
-52.5
11
154.7
21
-52.5
0
LINE
8
CREASE
10
14.7
20
-192.5
11
49.7
21
-192.5
0
LINE
8
CREASE
10
119.7
20
-192.5
11
154.7
21
-192.5
0
ENDSEC
0
EOF
