<svg xmlns="http://www.w3.org/2000/svg" viewBox="0 0 140 180" fill="none" stroke="currentColor" stroke-width="1.5" stroke-linecap="round" stroke-linejoin="round">
  <path d="M16 16 L16 154"/>
  <path d="M16 16 L114 16"/>
  <path d="M16 164 C50 148 88 158 126 142"/>
  <path d="M16 44 C36 38 52 28 60 16"/>
  <path d="M16 80 C28 90 26 106 16 114"/>
  <path d="M74 16 C68 36 80 50 96 52"/>
  <path d="M38 156 C48 146 60 148 64 158 C54 158 44 158 38 156 Z"/>
  <path d="M96 144 C106 136 118 142 120 152 C110 148 100 146 96 144 Z"/>
  <path d="M24 44 C22 48 21 52 22 56" opacity="0.6"/>
  <path d="M86 28 C90 32 94 36 96 42" opacity="0.6"/>
  <ellipse cx="22" cy="100" rx="1.8" ry="2.3" fill="currentColor" stroke="none"/>
  <ellipse cx="54" cy="154" rx="1.8" ry="2.2" fill="currentColor" stroke="none"/>
</svg>
