<svg xmlns="http://www.w3.org/2000/svg" viewBox="0 0 180 48" fill="none" stroke="currentColor" stroke-width="1.6" stroke-linecap="round" stroke-linejoin="round">
  <path d="M6 28 C46 14 96 36 174 18"/>
  <path d="M30 24 C24 12 34 4 44 10 C40 16 34 22 30 24 Z"/>
  <path d="M56 22 C62 10 74 8 78 18 C70 20 62 22 56 22 Z"/>
  <path d="M84 28 C78 16 88 8 98 14 C94 20 88 26 84 28 Z"/>
  <path d="M112 26 C118 14 130 12 134 22 C126 24 118 26 112 26 Z"/>
  <path d="M144 22 C138 10 148 4 158 10 C154 16 148 20 144 22 Z"/>
  <path d="M36 16 C32 14 30 12 32 10" opacity="0.65"/>
  <path d="M68 14 C72 12 74 10 72 8" opacity="0.65"/>
  <path d="M90 18 C86 16 84 14 86 12" opacity="0.65"/>
  <path d="M124 18 C128 16 130 14 128 12" opacity="0.65"/>
  <ellipse cx="40" cy="12" rx="2" ry="2.4" fill="currentColor" stroke="none"/>
  <ellipse cx="70" cy="12" rx="2" ry="2.4" fill="currentColor" stroke="none"/>
  <ellipse cx="94" cy="16" rx="2" ry="2.4" fill="currentColor" stroke="none"/>
  <ellipse cx="126" cy="16" rx="2" ry="2.4" fill="currentColor" stroke="none"/>
  <ellipse cx="154" cy="12" rx="1.8" ry="2.2" fill="currentColor" stroke="none"/>
</svg>
