0
SECTION
2
HEADER
9
$INSUNITS
70
4
0
ENDSEC
0
SECTION
2
ENTITIES
0
LWPOLYLINE
8
CUT
90
49
70
1
10
0
20
-67.51
10
13
20
-64
10
113
20
-64
10
114.6
20
-56.96
10
121
20
-32
10
163
20
-32
10
163
20
-64
10
163
20
-14
10
172
20
-14
10
172
20
-13
10
173.64
20
1.7763568394002505e-15
10
252.36
20
1.7763568394002505e-15
10
254
20
-13
10
254
20
-14
10
263
20
-14
10
263
20
-64
10
263
20
-32
10
303.5
20
-32
10
311.4
20
-56.96
10
313
20
-64
10
313
20
-214
10
288
20
-239
10
272.1
20
-239
10
263
20
-214
10
257.7
20
-218.6
10
261
20
-221.9
10
261
20
-250
10
249
20
-250
10
238
20
-239
10
213
20
-239
10
213.5
20
-244
10
207.5
20
-250
10
166.15
20
-250
10
163
20
-214
10
138
20
-239
10
122.1
20
-239
10
113
20
-214
10
107.69999999999999
20
-218.6
10
111
20
-221.9
10
111
20
-250
10
99
20
-250
10
88
20
-239
10
63
20
-239
10
63.5
20
-244
10
57.5
20
-250
10
16.15
20
-250
10
13
20
-214
10
0
20
-210.49
10
0
20
-67.51
0
LWPOLYLINE
8
CUT
90
2
70
1
10
113
20
-64
10
113
20
-59.2
0
LWPOLYLINE
8
CUT
90
2
70
1
10
163
20
-64
10
163
20
-14
0
LWPOLYLINE
8
CUT
90
2
70
1
10
263
20
-64
10
263
20
-14
0
LWPOLYLINE
8
CUT
90
2
70
1
10
113
20
-214
10
113
20
-221.2
0
LWPOLYLINE
8
CUT
90
2
70
1
10
163
20
-214
10
163
20
-221.2
0
LWPOLYLINE
8
CUT
90
2
70
1
10
263
20
-214
10
263
20
-221.2
0
LINE
8
CREASE
10
13
20
-64
11
13
21
-214
0
LINE
8
CREASE
10
113
20
-64
11
113
21
-214
0
LINE
8
CREASE
10
163
20
-64
11
163
21
-214
0
LINE
8
CREASE
10
263
20
-64
11
263
21
-214
0
LINE
8
CREASE
10
13
20
-64
11
113
21
-64
0
LINE
8
CREASE
10
113
20
-64
11
163
21
-64
0
LINE
8
CREASE
10
163
20
-64
11
263
21
-64
0
LINE
8
CREASE
10
263
20
-64
11
313
21
-64
0
LINE
8
CREASE
10
13
20
-214
11
113
21
-214
0
LINE
8
CREASE
10
113
20
-214
11
163
21
-214
0
LINE
8
CREASE
10
163
20
-214
11
263
21
-214
0
LINE
8
CREASE
10
263
20
-214
11
313
21
-214
0
LINE
8
CREASE
10
172
20
-14
11
254
21
-14
0
ENDSEC
0
EOF
