<svg xmlns="http://www.w3.org/2000/svg" xmlns:xlink="http://www.w3.org/1999/xlink" viewBox="260.34 442.07 354.96 476.56">
<defs>
    <style>
      .cls-1 {
        fill: currentColor;
      }

      .cls-2 {
        fill: currentColor;
      }

      .cls-3 {
        fill: currentColor;
      }

      .cls-4 {
        fill: none;
      }

      .cls-5 {
        fill: currentColor;
      }

      .cls-6 {
        fill: currentColor;
      }

      .cls-7 {
        fill: currentColor;
      }

      .cls-8 {
        clip-path: url(#clippath);
      }
    </style>
    <clipPath id="clippath">
      <rect class="cls-4" x="250.49" y="178.39" width="864" height="864"/>
    </clipPath>
  </defs>
<g>
      <path class="cls-7" d="M461.86,688.24c.28.06,1.13.22,1.89.37,5.27,1,11.2,4.03,16.21,8.28,27.1,22.98,23.88,86.95,27.29,115.28,2.07,17.23,7.06,35.97,17.94,49.49,7.66,9.53,18.29,16.31,29.43,18.79,2.17.48,3.24.56,7.79.56,5.1,0,5.38-.03,8.2-.78,8.31-2.22,13.8-6.45,16.83-12.96,3.99-8.59.69-18.95-1.94-20.95-1.22-.93-2.86-1.61-3.9-1.61-3.83-.02-11.93-4.32-11.16-12.94.32-3.57,2.42-6.34,6.18-8.14,1.87-.9,1.93-.91,5.16-.91,2.66,0,3.6.1,5.04.56,5.73,1.81,11.93,7.8,14.23,13.76,8.25,21.38-4.05,47-31.42,51.01-5.91.87-8.03.99-11.64.66-13.06-1.17-16.54-5.26-21.76-7.88-2.61-1.31-7.4-4.6-9.96-6.84-2.11-1.84-6.22-6.5-10.15-11.48-3.89-4.93-9.46-16.21-12.39-25.09-1.3-3.94-1.82-5.99-4-15.85-4.84-21.88-6.39-32.82-7.82-55.16-1-15.68-3.24-27.27-7.2-37.33-2.85-7.23-6.39-13.14-10.01-16.74-2.82-2.79-3.83-3.25-7.18-3.25-2.44,0-2.73.05-3.97.74-1.87,1.04-3.47,2.9-5.08,5.94-2.15,4.06-4.61,8.15-9,6.88-4.19-1.21-7.79-5.13-9.55-10.37-.58-1.72-.65-2.35-.66-5.58-.01-4.21.49-6.49,2.05-9.31,2.38-4.31,8.31-8.1,14.15-9.03,2.8-.45,6.37-.09,6.42-.09Z"/>
      <path class="cls-6" d="M434.18,800.46c12.71,5.69,29.3,18.5,44.89,34.66,23.23,24.09,12.86,9.65,38.55,36.89,8.13,8.62,13.03,13.04,16.66,15.04,2.18,1.2,2.61,1.57,2.61,2.25,0,2.17-4.12,1.76-8.38-.82-13.49-8.18-22.78-25.51-53.27-44.13-4.95-3.02-8.31-4.69-14.15-7.04-4.31-1.73-18.38-6.6-21.48-7.43-5.37-1.44-11.95-2.14-20.25-2.15-7.23,0-9.19.24-16.09,1.99-5.11,1.3-19.27,6.67-24.47,9.27-3.8,1.9-15.66,6.18-20.21,7.3-8.76,2.15-22.74,3.26-29.11,2.31-14.86-2.2-18.63.34-37.33-12.67-5.89-4.1-11.8-10.5-14.07-15.25-.83-1.72-2.4-7.33-2.4-8.55s1.29-4.59,2.13-5.58c5.67-6.62,27.75-3.05,44.12,5.82,9.24,5.01,14.56,7.23,20.4,8.52,4.76,1.06,9.27.79,9.27-.56,0-.53-1.39-1.91-3.02-3-3.89-2.61-11.69-5.12-12.59-8.1-.68-2.28.93-4.3,4.95-6.2,11.18-5.3,26.3-1.73,37.85,1.93,8.5,2.69,10.21,3.08,13.84,3.11,1.96.02,3.29-.07,3.46-.24.87-.87-12.52-8.51-4.94-11.91,10.53-4.73,32.15-.34,43.02,4.53Z"/>
      <path class="cls-6" d="M428.91,832.29c16.21,1.7,30.72,6.52,39.6,11.22,4.52,2.4,10.97,6.38,10.73,6.63-.07.07-1.08-.07-2.23-.3-4.22-.83-18.89-.69-26.07.25-12.14,1.6-22.7,4.82-37.61,11.5-9.77,4.37-24.48,11.56-33.06,7.59-8.64-3.99-1.18-13.94-1.96-13.94-.41,0-4.79,2.4-7.28,3.99-7.47,4.76-11.57,8.32-17.62,11.35-17.88,8.96-27.22-1.33-11.73-10.8,4.22-2.58,12.76-6.47,19.63-8.93,25.12-9.01,25.33-14.85,49.89-18.24,3.05-.42,17.66-.32,17.72-.32Z"/>
      <path class="cls-1" d="M379.63,450.42c.28.27,1.09,4.23,1.42,7.01.89,7.27-3.53,12.44-3.53,24.4v4.21c-10.93-10.88-13.83-10.97-17.79-18.91-4.9-9.81-6.39-18-6.24-18.15.43-.43,8.93-.91,11.71-.67-.05,0,13.7,1.41,14.44,2.11Z"/>
      <path class="cls-1" d="M350.37,451.02c0,2.73,3.49,13.19,6.2,18.58,2.34,4.66,4,6.59,10.54,12.25,4.19,3.63,10.57,9.92,11.12,10.95,1.21,2.3,1.34,19.79,10.08,32.85,5.5,8.22,12.02,10.8,14.93,15.42.64,1.01,4.62,8.31,6.36,11.66.98,1.89,3.63,5.03,4.25,5.03,1.25,0-.14-1.3-1.88-6.54-1.14-3.42-3.62-8.73-5.27-11.28-1.44-2.21-3.41-4.22-6.66-6.82-14.14-11.28-15.79-21.89-18.01-39.34-2.9-22.8,3.64-26.49,2.56-36.87-.22-2.11-.69-4.36-1.15-5.55-.21-.53-.46-.57,4.66.72,1.87.47,3.68,1.07,4.02,1.32.9.67,3.28,3.82,4.54,6.03,1.56,2.71,2.7,5.96,3.16,8.93.58,3.81.34,19.25-.4,26.05-1.58,14.5-.67,22.91,10.34,42.11,5.05,8.81,8.06,13.22,9.77,14.31.72.46.79.46,1.19.07,1.6-1.6-13.97-22.27-17.43-40.95-1.48-7.97.79-33.67-.95-43.93-1.22-7.21-4.93-10.14-4.57-10.51.12-.12,3.35,1.75,4.64,2.7,10.99,8.05,18.99,28.46,19.54,37.86.43,7.35-3.19,16.72-3.19,28.99,0,3.9.56,9.55,1.16,11.59.56,1.94,2.78,7.44,3.49,8.67.74,1.27,2.28,5.11,2.85,6.46-2.69,5.38-3.06,6.61-10.39,10.66-4.05,2.23-5.64,2.85-7.85,3.06q-1.58.15-3.02-.98c-4.53-3.55-8.03-5.16-2.51-2.68,6.44,2.9,6.97,3.08,7.38,2.44.62-.99-6.41-4.01-15.05-10.1-14.6-10.29-14.45-9-24.96-19.25-14.92-14.55-13.54-12.55-18.51-20.71-4.8-7.88-8.42-12.63-13.9-18.24-6.34-6.49-8.64-7.51-10.76-8.64l.17-1.68c.49-4.85,4.52-10.61,4.65-10.69.3-.18,2.95,2.93,6.69,5.5,26.95,18.51,20.59,20.54,35.21,46.06,5.6,9.77,7.93,12.27,17.7,18.94,7.78,5.32,10.24,7.41,14.95,12.71,3.53,3.97,4.72,4.89,5.66,4.38,1.19-.64.05-3.11-3.29-7.14-3.65-4.39-7.68-7.84-15.31-13.11-9.34-6.44-10.42-7.6-16.69-17.94-13.66-22.52-10.19-29.56-31.31-44.03-8.55-5.86-8.15-5.67-11.54-8.52.82-1.77,1.8-3.75,2.6-6.68,1.91-6.97,5.49-11.46,11.43-14.31,2.3-1.11,2.78-1.29,2.78.21Z"/>
      <path class="cls-1" d="M332.59,496.1c6.66,6.97,9.14,9.62,16.05,20.81,3.81,6.18,9.37,13.3,13.35,17.12,6.82,6.53,29.86,20.94,29.86,21.88,0,.34-4.56-2.23-21.07-8.84-3.53-1.41-16.28-8.85-24.04-14.02-7.09-4.72-11.14-8.66-13.28-12.9-2.4-4.75-5.64-17.65-6.45-25.71-.51-5-.91-5.12,5.59,1.68h0Z"/>
      <path class="cls-1" d="M382.11,625.46c.96,13.48-2.67,19.7-3.33,32.7-.5,9.91-.57,15.03-.21,16.33.72,2.62,1.34,1.2,1.84-4.24.58-6.25,1.28-10.25,2.55-14.53,3.32-11.23,4.7-20.93,4.14-29.07-1.24-17.94-9.97-37.19-17.71-47-.3-.38.48-.3,4.86.51,5.24.97,4.82.71,7.94,5.04,4.65,6.46,5.39,7.88,8.67,16.66,3.15,8.43,4.14,11.63,5.24,16.97,2.37,11.52,2.54,15.85,1.01,26.53-3.15,21.99-12.31,28.21-14.9,53.92-1.34,13.24-.39,18.97,4.91,29.71,3.05,6.18,3.01,6.62-.69.81-4.63-7.25-7.3-9.25-12.79-22.6-7.95-19.34-9.84-37.94-8.23-50.28,3.19-24.53,2.13-48.25-12.02-66.99-3.08-4.08-5.86-6.7-5.64-7.06.3-.48,6.84-4.02,13.1-4.02h1.58c11.92,13.22,18.49,29.72,19.7,46.59Z"/>
      <path class="cls-1" d="M404,592.53c1.07.84,1.42,1.52,3.88,7.62,4.48,11.09,6.63,28.89,6.05,36.53-1.43,18.94-8.39,24.6-13.92,41.35-2.92,8.83-3.45,11.63-2.19,11.4.48-.09,1.05-1.16,3.53-6.62,3.34-7.36,10.13-15.27,15.59-31.05,2.64-7.63,3.46-13.36,3.23-22.6-.23-9.3-.91-11.68-2.55-19.87-.14-.7,24.18,39.46-14.98,85.81-5.95,7.04-9.81,10.89-9.84,17.88-.03,6.7,3.33,13.67,3.33,15.47,0,.83-1.44,2.66-2.73,3.48-.67.43-1.34.78-1.48.78-.53,0-3.13-8.12-4.86-15.18-1.46-5.97-1.48-10.18-.09-19.97,3.27-23.04,11.5-28.33,14.8-49.06,3.25-20.38,1.04-37.97-13.62-63.54-.44-.77-.52-1.07-.28-1.05.34.02,9.82,3.66,16.14,8.61Z"/>
      <path class="cls-1" d="M347.34,588.03c9.7,12.07,15.34,24.41,15.34,47.67,0,21.47-8.06,39.38,7.38,72.52,5.42,11.64,7.9,16.54,9.44,18.7,1.49,2.09,1.48,2.09-2.09-.98-8.74-7.51-23.23-24.41-29.55-32.95-16.69-22.54-15.26-34.13-26.31-62.46-2.28-5.84-5.59-11.57-8.95-15.49-11.61-13.54-20.41-14.17-13.26-14.27,5.62-.08,16.3,1.99,20.23,1.99,2.15,0,5.25-.64,6.7-1.39.77-.39.81-.39,1.41.18,1.77,1.66,6.34,8.2,9,12.9,2.07,3.65,3.12,6.18,5.1,12.23,6.21,19.07,3.26,30.2,5.59,40.13.44,1.88,3.55,9.84,5.29,13.53,1.13,2.39,2.48,3.33,2.48,1.72,0-.34-.56-2.8-1.24-5.46-4.65-18.17-.47-27.23-5.04-44.6-1.67-6.34-6.87-19.79-9.43-24.37-2.76-4.95-7.77-9.68-7.62-10.1.35-.98,12.21-12.62,12.87-12.62.16,0,2.62,3.14,2.66,3.14Z"/>
      <path class="cls-1" d="M303.71,612.06c6.81,6.62,10.26,11.65,13.59,19.81,1.13,2.76,6.01,15.89,10.19,29.21,7.4,23.55,15.79,33.69,32.59,51.79,1.6,1.72,3.26,3.58,3.69,4.12,1.78,2.25.31.07-16.8-8.7-15.05-7.71-20.95-11.12-30.54-24.7-3.72-5.27-5.67-7.59-8.24-9.84-8.22-7.17-25.32-15.67-34.84-19.61-2.07-10.26-3.18-14.4-3.18-18.96,0-6.46,1.77-12.16,1.77-12.47,0-.05.84.91,1.87,2.13,8.08,9.65,23.12,16.4,36.7,32.23,4.27,4.98,6.1,7.41,8.28,11.01,1.85,3.06,2.82,4.15,3.19,3.57.37-.6-.32-2.9-1.69-5.65-11.44-22.96-33.28-38.93-41.27-49.61-1.27-1.7-2.31-3.26-2.31-3.47,0-.62,4.96-5.39,7.04-6.77,2.37-1.57,6.47-3.65,7.21-3.65.82,0,6.8,3.77,12.76,9.56Z"/>
      <path class="cls-1" d="M299.09,672.87c5.49,3.85,8.1,6.48,11.99,12.08,10.78,15.51,16.11,17.97,33.5,26.79,10.25,5.2,20.83,11.06,20.52,11.38-.05.05-1.2-.15-2.56-.46-3.67-.83-8.24-.76-15.04.23-15.27,2.21-34.36,3.79-49.03-.98-7.45-2.42-17.31-8.44-21.85-13.34-4.3-4.64-8.84-13.29-9.67-18.44-.37-2.25-.61-6.67-.37-6.66.12,0,.51.44.85.94,1.17,1.73,5.62,5.97,8.27,7.89,3.35,2.43,6.01,4.04,11.97,7.27,9.19,4.98,12.36,6.25,20.57,8.26,12.09,2.96,18,5.39,18,4.18,0-2.15-15.07-5.08-31.7-14.61-5.12-2.94-13.95-8.89-16.04-10.82-4.7-4.34-10.58-12.54-10.58-13.4,0-2.19,4.63-12.15,4.91-13.68.09-.5.3-.92.45-.92.18,0,16.44,7.73,25.81,14.3Z"/>
      <path d="M375.89,731.35c-.46-.39-1.42-1.15-1.05-1.15.13,0,1.09,1.2,1.05,1.15Z"/>
      <path d="M382.43,733c3.08,2.01,4.19,1.14,3.65,2.56-.6,1.58-1.45-.21-2.89-.37-.92-.11-1.28-.96-2.38-2.77-.7-1.14,1.5.57,1.63.57Z"/>
      <path class="cls-6" d="M423.5,544.02c3.27,2.37,8.35,10.43,9.32,14.78.82,3.69-.03,8.41-2.05,11.32l-.93,1.34,1.26,1.96c11.26,17.59,17,51.27,14.26,70.03-.24,1.63-.38,3.02-.33,3.08.19.19,3.35-1.5,6.87-2.56,1.99-.6,2.69-.69,5.9-.71,3.09-.02,3.94.06,5.63.55,3.28.95,5.28,2.14,7.7,4.57,2.43,2.44,3.56,4.41,4.16,7.23,1.15,5.41-.43,9.79-4.51,12.48-1.92,1.27-3.47,1.82-7.25,2.55-6.66,1.3-14.21,3.65-18.96,5.91-2.04.97-4.93,3.66-6.54,6.08-2.56,3.86-4.85,9.98-7.29,19.54-2.34,9.17-3.04,15.78-2.77,26.53.28,11.64,1.27,15.96,5.71,25.14,2.36,4.88,6.13,11.06,9.38,15.37,5.96,7.91,13.6,14.43,14.5,15.39,1.15,1.23,2.87,1.76,12.55,6.48,4.07,1.99,7.43,3.6,7.48,3.6s-.4-.98-1.01-2.2c-1.23-2.45-2.14-4.98-2.83-7.95-.66-2.81-.67-11.56-.02-14.77,1.03-5.09,4.37-15.42,6.66-20.57,1.44-3.26,4.46-8.7,4.75-8.57.19.09,1.89,6.13,2.24,8,.37,1.94-4.91,8.68-5.82,21.31-.41,5.67,1.28,15.56,3.65,21.36,2.04,5,5.96,10.59,8.4,11.97.74.42,1.47.91,1.6,1.08.19.24,1.06,6.56,1.06,7.64,0,.16-1.17-.43-2.59-1.29-8.27-5.05-27.2-14.86-42.78-21.32-16.03-6.64-12.98-6.19-20.25-7.87-64.76-14.93-93.01,8.27-105.08,6.21-7.22-1.23-9.27-8.42-8.18-12.17,1.52-5.19,10-10.57,20.65-13.1,5.01-1.19,7.47-1.46,14.25-1.6,9-.18,15.73.49,27.27,2.7,18,3.46,36.88,8.51,36.97,8.43.18-.18-12.04-7.73-18.74-16.38-1.5-1.94-1.62-2.03-3.36-2.59-11.4-3.68-14.72-7.83-17.23-13.86-.96-2.3-3.14-9.08-2.97-9.24.05-.05,1.15-.3,2.44-.56,9.36-1.83,14.87-7.94,15.82-11.32.18-.62.4-1.22.51-1.34,1.12-1.29,16.09,8.8,11.18,25.35-.94,3.15-2.15,6.95-2.15,7.71,0,4.12,11,12.39,14.1,14.46,4.02,2.69,15.55,9.22,15.18,8.59-.12-.2-.87-1.22-1.65-2.25-8.72-11.5-11.22-20.9-13.47-39.89-1.04-8.77-.72-22.94-.37-25.47,2.19-15.8,7.48-37.19,17.96-49.21,1.38-1.58,1.39-1.62,1.93-4.49,1.68-9.07,2.21-15.94,1.79-23.44-1.37-24.54-5.78-38.25-12.36-53.2-5.75,0-5.51.13-8.67-.96-5.99-2.06-9.63-4.72-14.5-10.58-1.21-1.46-1.43-1.92-.92-1.92,1.08,0,15.95-6.91,19.66-16.33.77-1.96,1.3-2.16,2.82-1.06h0Z"/>
      <path class="cls-6" d="M501.48,666.35c5.47,1.39,10.09,6.54,11.62,12.98,1.72,7.19,1.06,17.38-1.65,25.52-3.62,10.88-10.6,22.74-10.93,22.74-.24,0-.43-1.01-2.02-4.93l-1.23-3.04c7.1-15.12,8.35-20.27-.67-35.34-1.86-3.11-3.6-6.71-4.18-8.69-1.94-6.57,3.33-10.69,9.07-9.24h0Z"/>
      <path class="cls-6" d="M531.15,750.06c2.23.73,3.39,1.81,4.66,4.32,1.27,2.51,1.56,4.14,1.54,8.67-.02,4.63-.54,8.28-1.99,13.93-3.54,13.84-10.28,15.76-11.48,28.61-.53,5.67.43,12.27,2.58,17.67,1.19,2.99,5.51,11.09,5.51,11.64,0,1.19,9.9,14.32,12.96,32.35,1.33,7.82-.22,16.97-6.84,26.86-8.25,12.34-21.24,15.75-35.9,18.04-3.04.48-10.27.4-13.31-.13-7.37-1.3-12.51-3.27-18-6.92-6.37-4.22-9.44-7.85-11.07-13.1-.51-1.63-.59-2.39-.58-5.53.01-3.21.08-3.81.6-5.12,1.26-3.18,3.78-4.86,6.29-4.19,2.32.63,3.68,2.77,5.01,7.92,1.29,5,2.39,6.63,6.17,9.17,4.5,3.03,9.89,4.85,16.28,5.52,3.48.36,13.02-.41,18.12-1.47,9.91-2.06,16.53-6.06,20.82-12.58,6.14-9.32,6.42-17.72,1.05-31.32-1.61-4.07-5.26-11.47-7.24-14.68-6.61-10.71-16.48-17.07-16.48-18.15,0-.67-.56-8.03-.43-8.16.13-.13,5.58,3.99,8.24,6.23,1.13.95,1.79,1.37,1.67,1.07-.92-2.32-3.38-13.74-4.05-18.84-1.55-11.67-.1-35.6,5.88-45.85,2.72-4.67,6.71-7.05,10.01-5.97h0Z"/>
    </g>
</svg>
